<mxfile host="app.diagrams.net" agent="Mozilla/5.0 (Windows NT 10.0; Win64; x64) AppleWebKit/537.36 (KHTML, like Gecko) Chrome/134.0.0.0 Safari/537.36 Edg/134.0.0.0" version="26.1.3">
  <diagram name="Page-1" id="Z0T2-CG02OZMQoNM54fm">
    <mxGraphModel dx="1638" dy="887" grid="1" gridSize="10" guides="1" tooltips="1" connect="1" arrows="1" fold="1" page="1" pageScale="1" pageWidth="2339" pageHeight="3300" math="0" shadow="0">
      <root>
        <mxCell id="0" />
        <mxCell id="1" parent="0" />
        <mxCell id="w5KbCgstxRWdeZdq2RKn-2" value="Data Sources" style="text;html=1;align=center;verticalAlign=middle;whiteSpace=wrap;rounded=0;fontSize=20;" parent="1" vertex="1">
          <mxGeometry x="390" y="710" width="80" height="30" as="geometry" />
        </mxCell>
        <mxCell id="w5KbCgstxRWdeZdq2RKn-5" value="" style="shape=flexArrow;endArrow=classic;html=1;rounded=0;fillColor=#d5e8d4;strokeColor=#82b366;" parent="1" edge="1">
          <mxGeometry width="50" height="50" relative="1" as="geometry">
            <mxPoint x="806.5" y="670" as="sourcePoint" />
            <mxPoint x="806.5" y="620" as="targetPoint" />
          </mxGeometry>
        </mxCell>
        <mxCell id="w5KbCgstxRWdeZdq2RKn-7" value="Ingestion Layer" style="text;html=1;align=center;verticalAlign=middle;whiteSpace=wrap;rounded=0;fontSize=20;" parent="1" vertex="1">
          <mxGeometry x="390" y="556.97" width="80" height="30" as="geometry" />
        </mxCell>
        <mxCell id="w5KbCgstxRWdeZdq2RKn-14" value="Storage Layer" style="text;html=1;align=center;verticalAlign=middle;whiteSpace=wrap;rounded=0;fontSize=20;" parent="1" vertex="1">
          <mxGeometry x="390" y="400" width="80" height="30" as="geometry" />
        </mxCell>
        <mxCell id="mHcwm586ggzmoPCYp2Yr-1" value="" style="shape=image;verticalLabelPosition=bottom;labelBackgroundColor=default;verticalAlign=top;aspect=fixed;imageAspect=0;image=data:image/png,iVBORw0KGgoAAAANSUhEUgAAAHQAAAAbCAYAAACtOKuoAAAAAXNSR0IArs4c6QAAAARnQU1BAACxjwv8YQUAAAAJcEhZcwAADsMAAA7DAcdvqGQAAAQ3SURBVGhD7ZlNKHxdHMe/M/eS8XJHJmahWYyFkJRI5hLToGQjKdaKnfVkQT1F8paVyELZsPCe8pbXUjIrJDFj4WXSIBSjMaH5Phum/zM89V/Ovd1Pfbvd8zvnntP59jvn3I4OAKGhGvSRBRrKRtfa2kq9XvNVDeh0OujGx8fp9XohimJkXENhBINBICcnh1/7qCYVSK9lprrQNk+VoRmqMjRDVYZmqMrQDFUZijA0MTER/f39uLi4wMnJCU5OTnB6eoqzszO0tLREVv8Vs9mM0dFRZGZmRobCFBYWYnt7GxsbG4iLi4sMK4O8vLwf/zLRJqPRyMnJSZJkdXU1Y2NjmZ2dzZubG76/v7Ouru5Hmz8lCAJ9Ph/Pz8+ZlZX1I/6t8vJyer1eer1exsfH/4grQYrIUJIgCQB4fn7G+/s7PB4PRkdHERMTg7S0NACA1WpFSUkJqqqqYLfbUVJSgqSkJBQVFSE5ORkJCQkoKiqCJEmwWCyQZRkVFRUoLy9Heno6Pj4+QBKiKKK0tBQOhwPFxcVITU2NGFEUo4QMlSQpnKE2m40AmJSUxOnpab68vNDhcDA9PZ1ut5tvb2+cnJzkwcEBSbK9vZ1DQ0P8/PxkIBDg1NQU6+vrubW1RZJcWlqi3+/n3t4em5ub6fF4SJIXFxfhOiMjI0xISPgxrqiUUgydmJggSS4sLHBoaChs8Pb2Ns1mM3Nzc+l0OsPLryzLvLq6YiAQoNVq5ePjI8/Ozmgymdjd3U2SdDqdFEWRDoeDHR0dbGtro9vtJkkWFBTQYrHw8PCQHx8ftNvtP8YVjVLEkvsnh4eH2NnZwebmJlwuF+x2O1paWuDxeNDX1wefz4fV1VUMDAwgJSUFfr8foVAIOp0OAJCRkQGr1QoAmJubw+fnJ7a2ttDZ2Ym9vT0YDAbc3t7i+PgYgUAA3xcX3+2jHcUY+j2ha2trmJmZwdjYGNrb20ESsiyjqakJLpcLa2trkCQJXV1duL+/hyAI4W+QRGJiIoxGY/j9N4LBIPDVpyiK/1svGlGMob9N6uvra/hZV1eHwsJCDA4OQpZlAIDJZEIoFAq3FUURbrcbx8fHABA29vtgJUnSf7JZiSjCUL1ej+9LeJvNhrKyMtTU1MDpdOLt7Q3Dw8NYWVlBKBSCw+FAQ0MDent7YTQaIUkSBEGA2+2G2WxGY2MjLi8v8fT0hNnZWVRWVqK1tRVerxe1tbUIBoMwGAzhfgVBCGeqEhDMZvM/d3d3keVRhU6ng9FohN/vh8Vigc1mQ35+PkKhELq7u7G0tASXy4W4uDgIgoC8vDx4PB7s7+/j6uoKi4uLuL6+hiAIsFgsmJ+fx+7uLgwGA2RZRkZGBnp6ejA+Pg6TyYSjoyOsr68DX1ns8/mwvLyMh4eHyKFFH0o45Wr6eyliydX4ezRDVYZmqMrQDFUZmqEq4190QOHb89+ZMwAAAABJRU5ErkJggg==;" parent="1" vertex="1">
          <mxGeometry x="686.57" y="543.94" width="240.85" height="56.06" as="geometry" />
        </mxCell>
        <mxCell id="mHcwm586ggzmoPCYp2Yr-2" value="" style="shape=image;verticalLabelPosition=bottom;labelBackgroundColor=default;verticalAlign=top;aspect=fixed;imageAspect=0;image=data:image/png,iVBORw0KGgoAAAANSUhEUgAAAc8AAABGCAYAAACqsB+PAAAAAXNSR0IArs4c6QAAAARnQU1BAACxjwv8YQUAAAAJcEhZcwAADsMAAA7DAcdvqGQAACrWSURBVHhe7d15dBRV/vfxd1Wv6YRAEiBsAgHZgmEHFQFZZXEAAwgPKOMGAgo/QEbUQVFBAUVckcFBgWEGcVCJgCiLgLIpKPsalkAWEgMhIVunt+rv80eSljSgoI6i3Nc59+ScvrerupNOf6pu3XtLu+XeYSIiKIqiKIpyBTQN7d45i6QgOxtN04KrFUVRFEUJYvh8aBHVa0rO6ZTgOkVRFEVRLkMPfkBRFEVRlB+nwlNRFEVRrpIKT0VRFEW5Sio8FUVRFOUqqfBUFEVRlKukRtsqV82sQaTNRITNRHmLTqhVw2bSMfx+nAbke/2cd/s57/KT7zNQs4iV35IG6NZQCIvGUrUZ/ir10aKqQHg4YrHgLzlrkKIi9Pw8/GdS0U4fwDiXCIVnMHye4E0qykVUeCpXpFo5M+Nui6Rrh4pYI2xYLTpWs4ZF1zGbwKSDCPj84DMEj0/w+Ay8Hj9nj+Xxj8+zSDiej3GNJGloaCjPPPMMgwcPZty4cSQkJGC1WtmyZQs7d+5k1KhRwU8B4O6772bmzJn06dOHBx98kJYtWzJmzBj27NkT3PQnjRkzhv/7v//jjjvu4OTJk8HVAGzZsoXjx49z//33B1f9YmPHjmXw4MEsXryY9u3bo+s6Tz75JMePHw9u+oeg6zr2Zv3w3z4cT6VqaOXCwBGB2MPQrCbEUpyaIsUBiwGaD8TlBdd5dGcBkn8ea/Ih/Ktfx532XfAuFCVAhadyWbUqWBh3W0UGdI4i6sYw7KEWNIsGAngFwxA8/uKfpd9ImlYcplYTaCa9+DRVBL/LT95ZF8d25jBtXRZrjhRQZPiDd/mbCQ8P57333mPAgAEkJibSt29fjh07hs/nY/369XTr1o2QkBBCQ0MxmUy43W5yc3OZOHEiM2bMoH///nz99deUL1+enJwcCgoKKCwsxG63ExISgsfjwe12U6FCBTRNw+PxkJ+fj9//w3ueNm0aTz31FI0bNyYpKYmQkBB0XUfTNFwuF1arldTUVE6cOEGLFi3QNI2wsDDMZjNer5fc3FwAHA4HoaGhGIaB3+/H6/WiaRpmsxmLxUJhYSGapmGz2cq8l9mzZzNq1CimTZvG/Pnz0TSN06dPo2kaDocDk8mEy+UiPz8fh8OB3W5H1/XAPvLz8y/4jf5+zI4KmFv9Fen1CN6YOojVgub1Yyp0ImfOoGVlQt45TEXn8ZzJAJ8H3RGGHhYJEZXxh0aiVamCv1IUfrsDzQya041593a0NTPxHF6LX52NKsEiqtcUir8OVVFFAKkWapKR7SuK/4M2Its6inzZQc5+0EYOvtlEdj/bQFY8VFOmdqwoveqESc1wq4RZdbGaNLGZNYkMMUvTynYZ3qS8zLurqmx6rK7sfzlWTsxrIa6VbUW23i6yqYNsHHejtK8TetG+f6sSHh4u//3vf6XU66+/LuHh4eJyuWT16tUCSEJCgoiIHDp0SJxOp3z11VeSlJQkIiIHDx6Uffv2icfjkfz8fNmxY4dER0fL1KlTxefzyciRI+Xtt9+WvLw8yczMlLy8PGnfvn2Z1zB9+nQREWnYsKF8/fXXIiKSn58vBQUFcvToUdmyZYv4fD7xer0yZcoUGT9+vHi9Xjlz5owUFRXJkCFDpF69enLw4EFJT0+X/Px8MQxDVq1aJTt37hQRkdTUVHnvvffk1KlTUlBQIElJSeLxeGTu3LmyZ88eERFJT0+X7Oxs2bt3r7Ru3Vo++OADERHJzs6WlJQUiYuLk5kzZ4qISG5urhiGIcnJyXLrrbde9Hv9rYslqraETtkr2kcifCyiLcoX69SdEnbbcDFZHQLaRc+5qGiaaJom1rAKEtrjGbG+ekS0/xQKy4q36Rg6T0yhlS5+nirXd1HhqcqFpUaoSdaMqSOysYPIxvZyYm5z+c+oOtK1tkNMl2h/pSXaZpInOlaSTVNiJf/D4lAuXNJK+jQNv6jtb1HCw8Plo48+koyMDElNTZXCwkK5/fbbpaioSFauXClNmzaVJUuWyJAhQyQ0NFQMw5Dly5fLPffcIyIit956qyxfvlyKiopk+/bt4vV6ZdCgQZKQkCBer1e6dOkiIiIvv/yydOzYUc6dOyf79+8Xu90eeA0Xhuc333wjbrdbJk2aJK+99pqIiDRp0kTOnTsn69evl1tuuUUMw5A1a9ZIkyZNJCUlRQ4fPiwTJkwQEZEePXrI22+/HQjP3bt3i9vtli5dusjAgQNl/vz5Eh8fL+3atRMRkTfffFPefPNNKSwslClTpsjevXtl+/btsmDBAikqKpKEhATp1auXiIjMmzdP/vGPf4iIyIgRI2TevHkiIjJ16tSLfq+/ZTHbwsTx969EWybCMhF9XrbYbx8tJpP1orZXU0xmh1jveklMi33FgfyRSMioD0W32C5qq8r1W9RoW6WMSX2rcUe/6vgNg1f/eZLBzx7i3n8k8cUpJ0Zw46uQ6TZ46cuz9J1yhEemHSV1+zkcNcP4x2P16FDDHtz8N1HatTl37lxSU1N59dVXMZvN2Gw29u7dy6JFi2jQoAEvvvgiul72X0XTNDRNo6ioiJ07d2I2mxk6dCixsbFs3ryZ+Ph4ANq1a8egQYMwDIN69ephNpvLbKeUyWQiOzub5cuXk5aWVqZORAgPD0fXdaKjo/nrX/9KWFgYdevWZfLkyWRmZpKdnc2XX36J0+lE0zRMJhPp6enk5uaydOlStm3bRuPGjRkzZgyUvH6TyQSA1WoNdMdWrFgRu91OQkIC3377LUlJSTRt2pQmTZoAsGbNGr766isAfD7fBa/yt6dXa4OrVn1EKx4lZCrMgZPfYRi/rIvV8DkhaRu6ywUaiAaumztjir4puKlyHVPhqQS0rmyj862RYNZ5+o0TTFiSxo5Md3CzXyTH5+ffu88zaNYxMr47R7XaYTz0l2rBzX62nj17MmTIECwWS3DVJdlsNtavX8+mTZto0aIFZrMZp9NJx44dSUhIoG3bthw+fBjDuPjQQdM0fD4fe/fuJSsri7Zt21KnTh1mzJiBy+XCMAxOnTrFpk2bGDZsGPHx8bhcruDNBHi9XvLy8i4K6gtt2rSJPXv2cN999zF06FCOHTsWCOQLn6frOrm5uWRlZTF8+HDeeustmjRpQmJiIpS89kspfZ+l2zKbzVx41yURueLfbanq1avz5JNPEh4eHlz1ixiaHfGX9IcY4KsagzbsTexN+6KbQ4oHBV0FDTDZwrG1Hgr3TMUbHkrpEaMmZrBFBT9FuY5d/r9Uue7cVNNO/ep2SC1k0aZzwdW/qq/TXKzakAU2nYo1QrAFN/gZhgwZwtKlS3nuuee44YYbgqsvqXRwzLhx40hJKR44ZxgGNWrUwGazsXHjRvLy8gJnacHPNZvNpKens3r1aiIiIigsLOTw4cPMnz8/cPZ38uRJxo4dywMPPFBmO6WhpGlaYKCQyWS6KNjMZjNZWVk4nU4aN27M6tWrGTlyJAMHDmT9+vVERUVRuXJl7rzzTsLCwgLb1XUdwzDo3LkzdrudTZs2cebMmcC+S8+eS4vJZCIzM5OCggIeeughunfvTs2aNdm+fTs7duwIvJ7S1xf8Oi8nPDyc6dOns3btWjp27Bhc/fNJaQ9a8Q8xabjjWuMbOx/t2W2Yx67B3vcV7LF9sVWMwWy1UfqSNU3DHhqGrXI9Qpv/PxyD5mB5bB3ac1vxPfom3gZxZXZV7Pcb4KZce1R4KgFmsw4mDRxmwmxX9sX4S0SUs4AIZsDyI2dbPyUqKorFixezcOFCwsLC0HX9R8/eKAmPgoICcnJyMAwDp9PJhAkTKCoqwuPxsHXrVnbs2MH48eOZNWsWp0+fJjQ0lLp161JYWMiCBQuoXLkyOTk5nDp1ipUrVwKwYsUKzp8/z5EjR3juued46KGH+Pjjj7n55pt55ZVXcLt/OJN3uVz4/X58Ph+5ubnk5uZiGAZFRUVQEuIpKSm0aNGC+Ph4hg8fTvPmzdm1axe33norGzZs4K233mL16tXMmTOHfv364ff78fv9ge2ZzWbeeustUlJSmDRpEo8//jjnzp0jMjKSo0ePkpWVxT333EN4eDhut5tZs2axcOFC4uLieO2119i9ezevvPIKhYWFeDwe/H4/brebgoKCwOv8KaUjjG+++WY2bNjAjBkziIyMDG72ywn4feArH4kR2wxf+ztwDxmP++8f4Hl1D8a8DKz/Pofj/XNYFmXheTsVzyvf4fzbQor6jcTTtiu+BjdhlKuAeIM3rihlqakqSsDwmyP455MNIMpG4peZ3PXGCY6c+/W/RUJ1jbtaRjD/qXpYq4SwdsNZ+k8+TMEF0ziuREhICM2bN+fjjz+mSpUqgcePHj1Kr169OHHiRJn2fza6rlOzZk2qV69OUVERb775Jq1bt+a+++7jgw8+CG7+u2nQoAFHjhwp89jRo0cZOnQo+/bt+9Gu7B9jiumJf+JCJLpyoHv1Ild6DPhDz/TFdNDz8jC90B/viS+Ca5Xr1I8fnivXJ4EGnarw2RMNGN2tMjdV+TU6VcGha3SuH8Zb99bk3ecaYa1kL+l6u3o1a9ZkypQprFmzpkxwXk9MJhPdunXj+eefZ+rUqZw9e5ZnnnnmmgrOy6lfvz5btmxh+vTpNG7cOLj613PRGMnLFEW5SurMUwkYfnME/3yqAZh1cr8vIvymCmg+P/t35pCw+Rxn0pykZ3nYkurirPtyh/o/0IHmUTaa3GAnoqKV2BvL0bd9FBXrl4PzHvJOOwmvF87ajVd+5qnrOu3atWP69Om0bds2uBquozPPP4pLnXleKDExkSlTprBy5cqrWnjhis48fw3qzFO5BBWeSsDwmyP456SGeLNcDJp5jJubRPDEoGpQzQGGH3+mi9xcHwfPeMgqMjD8fvxOA+95Nx63H5MOtnJWtHJmTFYzNrPGjREWakdZsUVaoKIN8rwkf5fDjBUZ3FLZzn1/q8fa9VcWnlarlSlTpjBkyJAfHRCkwvPa8lPhCZCbm8vmzZsZM2YMp06dCq6+JBWeyu9JhacSUBqeRZku6jy2nzMFPlrWDKFWRTtjOlekQ5dKEGoBXfuhw9/wg9df/OWlAeaSJfn0kmX8/AJ+oeCUk3c+Os2KxAJOZ7o4dd7L812imfRCoysKz/r167No0SJat279k4OBVHheW+rXrx+YIvNTTp48yezZs3n11VeDqy6iwlP5PanwVAJKw9NVEp4Z+T9MgndYNKxWnXqV7AxuFEa1CmYcFp3I8mYqlDdjtZjwCxQW+sg+7yPPaeB0+9l8ysmK4wU4XX4i7TqVyls4+L0Lp9vP9K7RPDn1p8Nz9OjRPPPMM1SuXDm46pKOHj3KnXfeyfHjx694OoXyvyEiNGrUiEOHDgVXXZaIsG3bNoYOHUpycnKZ9YAvpMJT+T2p8FQCSsPTl+uh1ui9pOf+eivI2NF45aEYHv1bXQaO2M2Hm7J4u1dVHnmmwSXDU9M0atasyfTp0xk8eHCZbf2U0kXPMzIyLjk/U/ntiAi1atViwoQJwVU/6fz580ydOpV33nmHwsLC4GoVnsrvSoWnEhCYqhJhYdTzh5m7MSu4yc9mBoZ1qczwPlUZMfsEaclOtr3YmJjboi6aqmIymbjnnnt4/PHHuekmtSTa9W7FihW88cYbfPnll2XOQq8oPPUrXNvAVLxK0SWp8FQu4ccvHinXHw3I9/H2k/WZdn8tKll/nTM3HzB3/Rlajt1LnfImVk1uSEz90IumCcTGxjJz5kz+9a9/qeBUAOjTpw9Lly7l+eefp06dOsHVl6eBzfPTcz01wJZbhCZXkrKKUkyFp1KWruHOdDHxrRP0qRPK6hdieW9IdTrXDg1ueVUq2k08fmsECx+JYe7IGPaluVi2LOOiL7ZWrVrx6KOPln1Que5FRUXx+OOPl5kTqukamn6ZZNQhpKAA/a37KHf8AFiDG5SwgTXpMLx5H+bTKcVnoJdiQn1dKmWYQsLLP+fKL76prnJ9a1kjhN4dKuIt8DH8n6dYuCkLMYTH20fyl66V+OtfqtEvJgRfvkGlUAtVyxUPGrKYdWwWnXJWnSiHiVoVrDSItFEv0saIVuWZ+WgdHomvwd1x5UhJdzFmUSrvfHGG2AgbHbpW4sRJJ0s3ZuER4eTJk2zevJm+fftis/06izMof3z79++nf//+7NixA4+n5K4pnmxsVVsiNRsU3x9KKy6aCUJOJCHv3I9/58f4D3+DJaox/htqFq/JUdJON4Ftz05kwRiMQ5+jn9qDreZt+CqWLABf2k4D67fbMDa/jXguvvaqXJ/UNU8lIDDa9oyLOuOLR9uadAi3m4gMMxMdZuG5bhWJa1cJw6yh+QXdL2iGFN9yuHR2iknDr+toGujfFzLzo0y+SHWSW+ij0GmQ7TLwAzO6RfPElEuPto2JiWHWrFmBW3tdDRHB7XZfdpSm8tvSdR27/effdm7q1KnMmjWL3NyyB/kaoOlmrPXbo3V7Al/VOpiKnJi2/BPX1kVooRGEPPguRfOHIedTsTQfjLnHGIrKVcKadw7tq3dxfTMfc/2eOG5/kIKl45DCc9hvGYr/9ofx2sOxZadjrJ2O+9B6MLzBVxmU65gKTyWgNDw9Z13EjN9Pet7lR9taTBoV7Do1w61Uc5gpZ9Xw+eGcy0dyvo+MAh9FXsF/wfJ7j7avyFM9KvPXfyWz4WghL3WNZuJPTFUZO3YsL7zwAmFhYcFVl5WZmcn48eM5efLkZe+fqfw2/H4/DRo0YP78+cFVP8owDL7++msmTZrEpk2bgqsBCLkhDkN0vKcPglzwWdXMmKs1QB+xBE9cHPYDu5B/PoQ7dR/gRwusyKdhbXgHPPA6nkYNsa1civfjJ/Bnl12kQbOGY7mhAf7vj+MtzClTp1y/VHgqAYHl+UzQbex+vkj69bqorGi8PLgGYx+qxcCnD/HhN9l8MbouXe654UfDk5IBI48++ihdu3b9yQUSAI4cOcKdd95JUlJScJXyO6hbty7Hjx8Pfviy0tLSWLRoEVOmTClzF5pgIZ0noPV9Cs+2f0H6ATSPEzFZ0aMbond/GHfliogBmhksp07BpvfxZx5GN7wYJhv6DS2QjkPwVa0EXtAsEHL0GN4N7yK5p4sDOaQCphs7Ii07oT19C+6sK1v9SPnzU+GpBPwwVcVK6p7zDHv9OGtPOYOb/WyNq9hoUcnK10lF3NUhiumj62CuYLuitW3LlSvHhAkTeOKJJ36yC1CtMHRtuZLl+UotXryYefPm8dVXXwVXXcTR4f/wPPwSRnk7uEtOJzUQS8m0kwunnphA00uGfQuIVhyW4guaylLarvRmQqbi7emnz2KZ1Br3ueQLGivXs58+jFeuLzq405xsOZLPfyc14K37a1LFdrkhiFfn4Pducvyw6KkGvHh3NbZuPHfRaNvLyc/PZ8qUKQwaNIgNGzYEVyt/cMePH2f06NE8/PDDVxScAX4QT8nNUUquueO5xJxNozgoS9tB8fMumgNqgHhLtqWB+Eu2pyhBVHgqZWkafqePSUvSGPHPZNpXC+Hbuc3YPqkBSwZVp31NxxUHHkCE3cSTt0aydmRtDs6KY/7IOiQeyue2ZxP5elfuVW3L7/ezYsUK4uPjr2jtU+WP4f3336dz587MnTsXp/Nn9nRcye3FLmzzY+24inbKdUt12yoBlxptG2LRaV0jhMdvj6JFvVD8le0YJh1znpuCsx5SM1yk53gp8BavIhQZplOzkpWq1ULQIyz47GYcuR6yM1z855scZu84T67Th/zEaNsrER8fz6xZs4iJiSnzuOq2vbZcrts2IyODcePGsWzZMny+yw9OuxxHh//DM+wlfKH2i88gf0066GdVt61SljrzVAK0knltFyry+tl0spDeC1OoPukwtUfu4bbx+xj11ik27M3FEWGh2S0R3NalIrd0iqJuw3KcKTJ4c8X39HnuKHEP76byuAM0nHGM+XvzaHRDCBXCikfA+kuO6i+x2yuSkJBAs2bN+PzzzzGMH/rp5GfeYFv5bWRnZ7N06VLq1KnD0qVLf1ZwKsrvTYWnEuB2G+A2sIdb0E2XjjPDEE7nell5ooBHPs3ktlknaPrEIZqN30/TCQdo8dwRer+bwitfZ7Pr+yLyPX4QwQZM7F+NbZ+0oWerCgBUr2AGTcMj4L7Ks85SeXl59O3bl+effz5w5w6Hw6EWhL8GiQj79u1j2LBhDB48GJfLFdxEUf4wVHgqATtPudiX6oJqITwTX+1nnQ1ejhf44rsc/vFqEtuPFHBnnVD+0qMyOH18f6LgF43J8Hq9TJ06lQEDBrB9+3bS0tLIz88Pbqb8TjRNIz09nRkzZtCvXz8SEhJ+lQUsAgOEfiu/5j+E8oenrnkqZbzWvxrjRtQBi8YnCenMWZ7OuuSi4GY/W4RJ5+HbIpg4tBaRjcI5dTiXvn8/xL6zl5/PdzXq16+PxWLh0KFDqvv2GhEWFkbDhg3ZtWvXrxKapRw39cMzbh6+yMiLR9f+mnTQsjKxTGyGJ/f74FrlOqXCUykj1Kwxf2gNBg6qBXadnDNu9u87z2tL01h/yoXTa2BcZSbZTBrVHBZGdYhgYO+qVLkhFFu4mbzj+XR77gg7kn/mCEvluqabLFgfXoqny13F44Wu8nN5RbTi7jnH5+9T+N49/5NdKH9MKjyVi4SaNe5sGM4/HqtDhRtC0S063iI/rvMeis4UcSKpkK8TnWxMdpKY7SHPZWCU9GrZzBrRYRZujrbTsZ6DZvVCqVzdjq2iHXu4pXgeqdNg3SeneWxZBsfO/ZIOW+V6Z7KXI3T0MgqatUdCbMVzOP2/MEi1krNNAdweHBsTcC58EPGqgzzlByo8lcsqb9UZe0skPdpHER0Tyg3RNiwVrCVXyktnmgOGlMwm14vnq2gXXhwScPnJPuvmdEYRyQdyefWLc2xM/vWW/lOub7qmYY7ti9bjEfwNm2FEVMJvLvmIygVh6g+6bik/BCWld2Xxg+YDU14W+uHdaKvn4D20Er//f9kvrPwRqfBUrkh1h5kH2pSnSfMKhIRbcJhNOGw6DrOO3aJh1jX8CF4fFPn8OD1+Cj1+itx+8tIL+fDLbD49pQJT+d/RgJD6HTFuGYxRsTpSrjxa+epQIRoJcaDZwa+B31+8BJ9JQIpAcxZCbiZyPh0KsjGfTUff/l/cx778n04fVf7YVHgqV00Dypk0wm0mws06DouGxaThF8Htg3yPnzyvnzyvgfuXdJ8pys+gAbpuAXsEpor1oXItJCwCQh0Yugm/ASaThkkM/AUFaHnZaFnJGFnHEdc5xG/8ol5f5fqgwlNRFEVRrpKa56koiqIoV0mFp6IoiqJcJRWeiqIoinKVVHgqiqIoylVS4akoiqIoV0mFp6IoiqJcJRWe1yBN0wJFUa4n6rOv/FGo8LxG6LrOY489hsvlIjU1laNHj3Ls2DGys7NZv349un5lf6obbriB5cuX07x58+Cqa8p3333HyZMngx9WrkORkZEsXrwYt9tNUlISR48eJSkpicLCQp599tng5pfVu3dv3n33XaKjo4OrLqtbt26kpKSwdetWoqKigqsDqlatSkFBAZ999hlVq1YNrlauQ1f2jaz8z2maRkhICDabjddee4169epx4403MnnyZDp37syqVauwWq3BT7vI9u3bad26NT6fL7jqmlKuXDnKly8f/LByHdI0jbCwMKxWK3369KFevXrExcWxZMkSnnvuOf72t78FP+Ui9evXZ8WKFURHR+P1eoOrL8tisVC+fHnCw8N/9GxX0zRCQ0MJCwu74gNZ5c/NFBJe/jlXfm7w48pvTNM02rVrR5cuXVizZg1ff/01ALt376ZChQrcc8895OXlsW3bNtq2bUunTp1o27YtTZs2pVGjRpw9e5YOHTowePBgbDYbubm5ZGRk0KhRI3r16kWrVq2Ii4ujevXqZGVl4XK5Avtt27Yt7dq1w+v1cu7cOdq0aUOHDh1wuVzk5OTQunVrevToQWpqKi1atAjsu0mTJjRs2JDMzEyqVavGHXfcQVxcHO3btyc6OpqUlBS6d+9O165dadmyJbVq1eL8+fMUFBQwevRooqKiOHXqFLfeeitNmjQhKyuLvLw8AGrXrk18fDxt27alcePG+P1+srKyaNWqFR07dsTlcpGdnU3dunXp3r07ERERpKSk0KpVK3r37k2bNm0C9/bMyMgA4Oabb6ZPnz60bt2aevXqYRgGWVlZF/wVlN+Dw+Ggb9++NGjQgDlz5nDmzBk8Hg979uyhZcuWDB8+nISEBDIzM+nVqxft2rWjbdu2xMbGUq9ePU6ePMmDDz5Ily5dMAyDvLw8MjIy6Nq1K506daJFixbExcURGhpKZmYmhvHDIu833ngjAwYM4Pz58yxcuJDy5cvTv39/2rZtS7NmzYiNjcXj8eB2u5kwYQIpKSksWbKEm266iW7duhEXF8e+ffuIiYlh0KBBtGnThtjYWOx2O6dPny7zPpU/mYjqNaXk/gKq/I5F13X5+9//LiIijz32WJm65s2bi4jI66+/Lp06dZKMjAzJy8uTadOmyYoVK0REZPbs2fK3v/1N8vPzxel0yhtvvCEzZsyQgoICWbJkicycOVOSkpLE5/PJqFGjymz/gQceEBGRl19+WQBZv369iIjMmDFDqlatKlu2bBERkRdeeEHOnDkjZ8+elalTp8q6desC7SZPnix+v1/y8vLkgw8+kMcff1wmTpwo586dk9dee02WLFkiIiLz58+XkJAQ2b9/v4iIpKamyoIFC8TlcslHH30k4eHh0r59e/nmm2/k2LFjMnnyZDl27JgkJibKHXfcIQsWLBARkfHjxwsgo0ePFsMwZNWqVRIbGyvff/+9rF27Vl588UVxu92SmJgotWvXlh49esjx48flo48+klmzZomIyObNm6VRo0YX/S1U+W1LVFSULF++XEREbrrppjJ1pf8TAwYMkBEjRoiIyIEDB2Ty5Mly8OBBEREZPXq0vP322yIikpycLE899ZR88MEHUlRUJDNnzpQFCxbI+fPnJSsrS+Li4spsv2fPnpKbmyv79u2T6Oho2bp1q6Slpcnzzz8vn376qXg8Hvn222+ldu3aIiKyatUq6devn5w4cUJ8Pp9MnTpVWrRoIRs2bJDt27fL888/L9nZ2ZKcnCxdu3a96L2q8icqKjyvjfJj4dm0aVMREfn444+lc+fO0q9fP2nevLkA0qFDB8nLy5O0tDSJiYmRpKQkOX36tNSvX18aNmwo999/v0RERAgg7dq1E7kgJEtLTExM4IuhY8eOcujQIRER+eKLL6R169YiIrJ8+XLp1auX9OvXL/AF1KdPHykqKpLDhw/LSy+9JCIimzZtEkB69eolWVlZ8umnn4rJZBJd12X69OkiItKhQwfZtWuXGIYh999/vwAyd+5cERFp3LixfPbZZ+JyuWT06NECyGOPPSZut1s2btwYaPfII48IIMOHDxePxyMrV66UCRMmiIjIvffeK4B07txZevXqJe3bt5dDhw7JwYMHpXbt2gLI3XffLSIi06ZNK/O7UOW3Lz8WnhMnThQRkUmTJkm3bt0kPj5eYmJiBJCnn35a/H6/rFu3TurXry9S8jkNCwuTbt26yYABAwLbefbZZ0VEpH379mW2f2F4Vq5cWYYMGSIdOnQI1G/atElEROrUqSOGYUhaWpqkpqZKRkaG9OzZU0JDQ2XNmjWSlZUl3bp1E0CaNWsmPp9PNm7ceNF7VeXPU1Tn/R+Ipmns2bOHZcuW0aJFCw4cOMD8+fMJCwujsLAQwzDQNA1d1wkLC+PIkSMsXLiQWbNmcejQIebOnRu8SQBycnJYvXo1TZs2ZdSoUURHR5Obm0udOnVo164dAGvXruWzzz5j2bJldOrUiUOHDvH6669jt9txOp34/X78fj+pqakAxMbGEhUVRevWrdmzZw/fffcdAwcOhJLrTJqmkZeXx7///W8AsrOzA68nLi6Os2fPsmXLFgBee+01jh8/TpMmTQJtLqRpGm63m0OHDmEYBi+99BIHDhygV69efPbZZ1DSDVyjRg1WrVrF3r17efrppwGw2+1BW1OuRT6fj3Xr1rF27VpGjRpFYmIio0aNQtM0Cgt/uNWd1WolJCSEdevW8emnn7J9+3Z2797NQw89VGZ7l+L3+3n//fcpLCwkMTGRnTt30rRpUzye4hu2G4ZB9erVqVGjBtu2bWPz5s1YrVZiY2MJCwtj9uzZ7Nu3j3nz5mEymXA4HMG7UP5EVHj+AYSHhwPw1Vdfcffdd5OVlcXrr79OamoqDzzwADk5OZhMJigJEgCn08mECRPwer0MGDCAZcuWMWLEiDLbLVVYWMjOnTupXr063bt3x2q18t577xEREcG9995LXl4e+/fv58knnyQ7O5tp06axZ88eHnnkEfLz8wMDKEQkMFgjMjISgE8//ZQuXbpwxx130Lx5cxwOB+vXr8fhcCAiZa4/ldJ1HRHB7y++m2JsbCzlypWDC96fiATaUhLIn3/+OVarlf79+2MymRg1ahRpaWm8+OKLhISEsGvXLgYMGEDHjh3p2LEjDoeDJ554IrBf5dpT+tlfu3YtCxcuJD09ndGjR/Puu+/y8ssvBw4YS/n9fjweD6tXryY7O5saNWrw4osv8vbbb1+w1UsLDw8nIyODL7/8kry8PIYNG8aOHTsCA/VMJhOnT58mJSWFfv36ERMTg8lkokaNGqSlpfHoo4/Srl07evToQWhoKB06dAjehfInosLzGlerVi3ee+890tPT2bRpE7fddhtRUVGMHDmSnj17EhMTQ2RkJD6fLxBGPp+Pm266ib/85S8AtG3blqeffpq77rorePMAeL1eNmzYAED58uU5cOAAr7zyCg6HgxYtWrB//34OHDhAp06diIiIYMiQIQwZMoR69epRrly5wMjeC+fnJScn4/V6ad68OU6nk+zsbCIiImjZsiV2uz0QjJdy9OhRIiMjadGiBQC33HILkZGRHD16NBDOpUf1t9xyC2azGV3XqVKlCjfffDOJiYk0atSIMWPGBM4UkpKSiI2NxWq1kpOTg8VioVmzZtSoUaPMvpVrR+/evRk/fjybN28mLS2NO++8k6KiItq1a8fMmTNp3LgxJpMJwzACB1Ner5c+ffoQFxdHWloa1atXZ+vWrXTu3Dl482X4fD5Gjx5NlSpVSEhIoHXr1jgcDurXrx/4rOq6zr59+3jzzTfJzs7m888/p3Llyuzdu5caNWoQHR1NXl4ePp+PRo0a0aBBg+DdKH8m6prntVFMJpNMnjxZREQ++eQTue+++2TEiBGyZcsWcTqdMnLkSKHkGl9hYaF88cUXMnnyZCksLBQRkdzcXGnQoIEkJCSI0+mU5cuXy44dO0RKBvQ8+uijUmrx4sVis9nK7L9evXqya9cuERF5+umnxeFwSHp6uoiIvPHGG0LJtUeXyyUrVqwIDMgREUlPT5fZs2eL3++XDz/8UACJjIyU+fPni2EYsmDBAnnyySclNTVVTp48KTfeeKPs27dPsrOzA/ufNm2aSMk1z969e8vx48dl586dcvfdd8vu3bslMzNT+vXrJ/Hx8ZKfny9HjhyRcePGycmTJ0VEZMOGDTJy5EgREVm4cKHcd999cuLECTl79qz069dPxo4dKy6XS9atWydjxoyRnTt3Sl5engwePPiiv4Uqv22pVKmSrFy5UqRkUNqDDz4oEydOlJMnT0pycrK0atVKKLku7na75Z133pH58+dLqd27d0uNGjXk+PHjkp6eLkuXLpXk5GTxeDwybNgweeuttwJtH3744TL77tu3rzidTjly5Ig8+OCDkp+fL4mJiTJw4EDZuHGjiIi43W6Jj48XKRlkVqFCBZkzZ46IiHz++ecycuRIyczMlAMHDsj48eNlxYoV4vV65YUXXrjovary5ynqZtjXiNIpI926dcNisWC32xERPB4PR44cYdGiRYG2w4cPp06dOpjN5sCw/sjISObMmUPNmjXp1asXAElJSZQvX55atWqhaRo5OTmICNnZ2YGh/6UsFgvdu3enXbt2zJkzh5SUFIYMGULdunX54osvAlNnxowZQ7Vq1TCbzXz//ff4/X7CwsLYsWMHLVu25MCBA6xYsQJKum6HDh1KtWrV0HUdj8fDJ598wrfffssjjzyCw+HglVdeAaBTp050796dWbNmcfbsWZo1a8bAgQMD11Q3btzIhg0bsFgs9OzZkzZt2mCz2Thz5gwWi4UjR47w2WefER8fT7NmzTCZTBQWFrJ//34+/PBD7HY7/fr1o2nTpphMJjweDzt37uTjjz8O/A6U30dISAi9e/emcePG2O12zGYzfr8fr9fLqlWr2Lp1KwA2m42JEycSGhoKwOnTpwkJCcEwDGbPnk2PHj1o06YNeXl5JCcnExMTQ8WKFfF6vZw/fx6z2UxiYiLLly8PXMe88cYbiY+PJzc3l8WLF9OrVy/i4uIC4wjy8/MxmUwcOHCAZs2akZyczEcffUSVKlXo378/NpuN//znP9SuXZsePXpgMpnw+XykpaVdUVex8selwlNRFEVRrpK65qkoiqIoV0mFp6IoiqJcJRWeiqIoinKVVHgqiqIoylVS4akoiqIoV0mFp6IoiqJcJe3p75LE4/xhbUhFURRFUS5PxM//B5JOb8g/+TkuAAAAAElFTkSuQmCC;" parent="1" vertex="1">
          <mxGeometry x="574.5" y="375" width="465.5" height="70.38" as="geometry" />
        </mxCell>
        <mxCell id="mHcwm586ggzmoPCYp2Yr-3" value="" style="shape=flexArrow;endArrow=classic;html=1;rounded=0;fillColor=#d5e8d4;strokeColor=#82b366;" parent="1" edge="1">
          <mxGeometry width="50" height="50" relative="1" as="geometry">
            <mxPoint x="806.5" y="510" as="sourcePoint" />
            <mxPoint x="806.5" y="460" as="targetPoint" />
          </mxGeometry>
        </mxCell>
        <mxCell id="mHcwm586ggzmoPCYp2Yr-4" value="Catalog Layer" style="text;html=1;align=center;verticalAlign=middle;whiteSpace=wrap;rounded=0;fontSize=20;" parent="1" vertex="1">
          <mxGeometry x="390" y="345" width="80" height="30" as="geometry" />
        </mxCell>
        <mxCell id="mHcwm586ggzmoPCYp2Yr-5" value="" style="shape=image;verticalLabelPosition=bottom;labelBackgroundColor=default;verticalAlign=top;aspect=fixed;imageAspect=0;image=data:image/png,iVBORw0KGgoAAAANSUhEUgAAAc0AAAAZCAYAAABTnXWQAAAAAXNSR0IArs4c6QAAAARnQU1BAACxjwv8YQUAAAAJcEhZcwAADsMAAA7DAcdvqGQAAAmDSURBVHhe7d1bTFzVHgbwb8+FGcqddhIpV2UabMGkYlUkU2xtUyuJNsXao7F0fGhaTRM1UtNGQnRaG6QmpPUWjTWx02okMV5oK8aCVkoIqAgWSrDcAgcHgWmZkRmkc1nfeTlOAjYeHs5J6pn/L/le9lp7Ze1Jdv7Zs9feW9t16jSpFIQQQgjx17TCsn/QOz4OaBo0TVvYLoQQQoh/05KXZ9Lj+ufC7UIIIYRYQLdwgxBCCCGuT4qmEEIIsUhSNIUQQohFkqIphBBCLJIUTSGEEGKRpGiKqGYwGJCUlIRly5bBYrEgOTkZZrMZAKDX65GQkID4+PiFu92wYmNjF276E6PRiKSkJJhMpoVNQoj/QIqmiGr79+/HL7/8gtbWVnzzzTdwu9344IMPYDQaUVJSgsuXL6OjowN6vX7hrjcUvV6P8vJyNDQ0QKf769N6z549mJ6exoEDB2744xLiRvPXZ5cQ/8fKy8vx8ssv49SpU1i9ejUKCgpQW1uLsrIyvPbaa9Dr9SAJ9Td4Y9aKFSvgcDiQn58PkgubhRD/JfJyAxGVYmJiUFNTg2effRZ2ux1OpxMAkJSUhP3796O3txe///47jh07BqPRiPfeew86nQ5erxeffvop+vr6kJ6eDrvdjpSUFITDYQQCAbS1taGxsRFbt25Fbm4uYmJikJKSgvr6evz888/YsWMHli5dCpLo7OzE6dOn4fP5Fk4PDz30ENasWQOTyYRAIID29nacOXMG69atQ0lJCeLj40ESfr8fLS0tKCwshMPhgF6vx+HDh3Hy5Enk5eVhw4YN0DQNgUAAV69excmTJ1FWVoa33noLDocDBw8eREJCAioqKmA2mxEMBjEwMICPPvoIc3NzyMrKwu7du2EwGDA3N4dQKASv14vXX3994ZSFiA7JyzMJQCKJujz22GNUSrGtrY1Op5PPP/88NU2LtG/cuJEul4tKKdbX1/PVV1+lUopnz55lcnIyv/zyS05PT/OJJ55gdXU13W43r169yszMTDY1NVEpxdbWVtrtdu7du5dNTU30eDy02+10Op0Mh8N84YUXaDKZ5s3rgQce4MTEBD0eDw8cOECv18uhoSFWVlayu7ubMzMzfPrpp+lwOKiUYkdHB2trazk1NUWfz8ft27dz27ZtDIVCdDqdtNvtbGpqIkkeOXKEdrudSilWVVWxsLCQ9fX1dLvdrKys5Pnz50mSVVVVTE5OZmNjIz0eDx0OB7u7u6mU4sjIyLzfSSKJqkjRlERrTCYTN27cyM7OTiqlGAwGefHiRX7xxRfMz89nSUkJXS4XfT4fk5OTmZmZyba2NgaDQa5Zs4YFBQUsKCiIjPf222+TJK1WK8+cOUOSrK6uJgDW1NRQKcVnnnmGAJiTk8PW1laGQiFardbIGHFxcayrqyNJbtq0iQBotVp55513cvXq1bz99tsj/bOysjgyMsKJiQnu3r2bvb29nJycpKZpTE1Npc1mY2pqKgEwLS2NSil++OGHLC8vp1KKlZWVPH78OJVSPHr0KDVNo81m4+joKKenp1lVVUWlFGtqagiAW7Zsoc/n49jYmBRNSdRG7mmKqHXt2jU0NjbCZrPBYrEgOzsbBoMBmzdvxsGDB5GVlYVwOIzx8XF4PB4Eg0H4/X4AgKZp6Onpgd/vh9vtxtDQELZt2xYZW9M0BINBuFwuAEBubi4AYN++fRgYGEBjYyNuvvlmzM3NzftQQlpaGnJzc+Hz+TA0NAQAGBgYwPfff4+ffvoJXV1dWLduHX799Vc0Nzdj+fLlCAaD0Ov18xb1TE9Po6WlBS+99BK8Xi++/fbbP32QgSTy8/Ph9/vx3XffgSRaWlpw6dIlJCUlYfPmzQgEApF5fP7557hy5cq8MYSINlI0RVSKiYnBbbfdhry8PJDElStX4HK5sGHDBrhcLthsNtxxxx0IBAKRhUCapkGn00EphdjYWPT396Ovrw/d3d3YsmULTpw4ERl/YYGKjY2FpmmoqKiA1WqF1WpFWloa4uPj0d/fH+mnlEI4HL7uqtbHH38cs7OzqK6uxsWLF7F27VqMjo5Cp9NBr9dD0zSQBEns3LkT4XAYjzzyCI4ePYp77733uguElFLQNA0GgyGybcmSJQCAUCgUOeY/aPI1JBHlpGiKqJSamoq6ujr09vZi586d89qMRiOGh4cxPDw8r5j8YW5uDjt27IDFYkFHRwfWr18Pg8GA0tLShV0jhoeHASDSJzU1FaWlpdi+fTsSEhIi/cbGxtDX14fY2NjI1WlGRgYefPBBlJWVwWw248iRI7j//vtx1113ISMjAyQxOTmJubk56HQ6pKSkYOvWrdDpdHjyySfx4osvYu/evX8qdpqm4YcffkBcXBzWrl0LTdNQWlqKW2+9FVNTU/j4449hNBqxatUqAIDdbofFYvlbrCYW4n9G7mlKojGaprGoqIgXLlygx+Phu+++y1deeYXvv/8+x8fHWVxczPXr13NiYoJjY2MEwPT0dF64cIEkuWvXLv7444+cmZnhoUOH+NVXX1EpRZK02+1sbm5mKBTivn37CIC5ublsaGigz+fj4cOHWV9fT6UU6+rqmJiYOG9ud999NwcHBzk6Ospjx46xo6OD/f39rKioYE9PDwcHB/nmm2/S7/czHA6TJO+77z6eO3cuch/V6XRSKcWGhgYeOnSIPp+PSil+/fXXrK2tJUk6HA6uWLGCb7zxBmdmZnj8+HF2dnZydnaWe/bs4ZIlS+h0OhkIBHjixAkODg7KQiBJ1EceORFRzWq1wmazwWQyRf6G7O7uRktLC2666SYUFRUhGAzi7NmzMJvNKC4uxrJly3Du3Dnk5ORg1apVSExMRCAQwG+//Qa9Xo+RkRGYzWZYLBZ0dXXh8uXLAIDs7Gzcc889kUdUpqencf78eUxNTS2YFVBUVISVK1fCZDIhFAqhu7sb7e3tKC4uxsqVK2EwGOD1euH3+5GSkoKmpiakpaUhLy8POp0OXV1dyMjIQHp6OoxGI7xeL0KhEGZnZ+H3+5Geno6uri709PQgLi4ODz/8MMxmM0KhEEZHR9Hc3IxAIIClS5di06ZNSExMxOTkJN555x34/X7ccsst1/27V4j/e3KlKZFIrpeKigpeunSJTz31FAHwueee47Vr1/jZZ5/JlaYkaiNXmkKI68rOzsYnn3yCnJwcuN1uWCwWtLe349FHH4XX613YXYioIEVTCCGEWCRZPSuEEEIskhRNIYQQYpGkaAohhBCL9C9xiw/ABT6wHQAAAABJRU5ErkJggg==;" parent="1" vertex="1">
          <mxGeometry x="574.25" y="345" width="465.5" height="25.24" as="geometry" />
        </mxCell>
        <mxCell id="mHcwm586ggzmoPCYp2Yr-10" value="" style="endArrow=none;html=1;rounded=0;" parent="1" edge="1">
          <mxGeometry width="50" height="50" relative="1" as="geometry">
            <mxPoint x="560" y="450" as="sourcePoint" />
            <mxPoint x="560" y="340" as="targetPoint" />
            <Array as="points">
              <mxPoint x="560" y="383.94000000000005" />
            </Array>
          </mxGeometry>
        </mxCell>
        <mxCell id="mHcwm586ggzmoPCYp2Yr-11" value="" style="endArrow=none;html=1;rounded=0;" parent="1" edge="1">
          <mxGeometry width="50" height="50" relative="1" as="geometry">
            <mxPoint x="560" y="340" as="sourcePoint" />
            <mxPoint x="1050" y="340" as="targetPoint" />
          </mxGeometry>
        </mxCell>
        <mxCell id="mHcwm586ggzmoPCYp2Yr-12" value="" style="endArrow=none;html=1;rounded=0;" parent="1" edge="1">
          <mxGeometry width="50" height="50" relative="1" as="geometry">
            <mxPoint x="1050" y="450" as="sourcePoint" />
            <mxPoint x="1050" y="340" as="targetPoint" />
            <Array as="points">
              <mxPoint x="1050" y="383.94000000000005" />
            </Array>
          </mxGeometry>
        </mxCell>
        <mxCell id="mHcwm586ggzmoPCYp2Yr-13" value="" style="endArrow=none;html=1;rounded=0;" parent="1" edge="1">
          <mxGeometry width="50" height="50" relative="1" as="geometry">
            <mxPoint x="560" y="450" as="sourcePoint" />
            <mxPoint x="1050" y="450" as="targetPoint" />
          </mxGeometry>
        </mxCell>
        <mxCell id="mHcwm586ggzmoPCYp2Yr-14" value="Processing Layer" style="text;html=1;align=center;verticalAlign=middle;whiteSpace=wrap;rounded=0;fontSize=20;" parent="1" vertex="1">
          <mxGeometry x="390" y="227.5" width="80" height="30" as="geometry" />
        </mxCell>
        <mxCell id="mHcwm586ggzmoPCYp2Yr-15" value="" style="shape=image;verticalLabelPosition=bottom;labelBackgroundColor=default;verticalAlign=top;aspect=fixed;imageAspect=0;image=data:image/png,iVBORw0KGgoAAAANSUhEUgAAAQ4AAABBCAYAAAAgyEqoAAAAAXNSR0IArs4c6QAAAARnQU1BAACxjwv8YQUAAAAJcEhZcwAADsMAAA7DAcdvqGQAACP3SURBVHhe7Z15fBRltve/VdVrOvtCCCQQtgAhgICC6CiKCnq9MBF07vV1BxV3ER11RgVF4dVxQ0RxQRFxGQdFUFEGX8WIoixBWRMIS0KAhOxbp9eq8/6RpE06IQjOnUtifz8ehHqeqq7qqvr1ec459ZQCCCFChAhxAqjBC0KECBHieISEI0SIECdMSDhChAhxwoSEI0SIECdMSDhChAhxwiidKasSFqMRFm7CYtHQVBVFAcMQ/LqB2+3HWaXjcxnBq4UI0S6qZkazhKFarCiaCUVRADB0P4bPi+F1ofvcwat1ajq8cER2MZHaP4J+w6MZPDaafoMj6JroICLMioKKT/dTXu2isKCWXd/XsCOrkgO51RTmujD8HfrQQ/wPoqgm7LHdcCT1IqJrGuFJ/bB3ScESHoVqNiO6jq++FldZEc6ivdQV76G2aB+u0kPoPlfw5jodHVY4HDEa52R25ZzMJM68KIFYexh+BF0XDMNAGo9KARRVQVUVTKqKYJCbV8H6FaV88+khdq2rCd50iN85kcnpJGScQ0yfETi69UZRFAzdD4aBiARuGUVRQVVRVBVF0XBXHKVy72bKctZTuXczhu4L3nSnoeMJhwJDLozlmul9OGNMIlEOK26/jmH8+sMwmzUsikJefiX/fO8Qy17Op/qwN7hbiN8Z1vA4up91GXEDz8bRNRXD70V0f3C3Y6KoGqrZhqeyhMp92Rxa9wF1JfnB3ToFHU44Jt/fg2vvHED35HB8fuOEBCMYs1lF14Xvs46w4N6d5G91BncJ8TshvGsavcdPIabvcARpJRhNHqw0eRtNfzb81wJF1VA0E87iA+SveZuy3euCenR8NODR4IWnKlOf7sONf84gJsaGz6djiN6oeydnumGgoNCrbzSDzoti2/pyKos7r3sZom0iuqfT/7J7iExNR4yGIUlzVEXBYtLoFudgUGo8Q3vHExdlx+nyBX64Gv5sRAQxdCyRsUT1GoLP6cRZvLd5jw5Ph/E4rpvbmykz0rGYTBi6gYoFqxLzGzPKgo8a/FKPyayxZ18Zf83MpnBnfXDHEJ2U8K5pDLj8fsK6piD+1sMSj0/nqjFp/NfZ/ehib8jU0XjTKMDBCi/Ls/P56Pu8QLalOYqm4XPWsm/Va5Rs/zK4ucPSIYRj/M3due/poUQ4LA3BT7zEqSMYaJrZ2KPpENTGQ9KbrX0sFAxc7DcWUuxfh4oJTVPJ3lzMXzKzqSkOxTw6O9bILgy84q9E9RqI0YZoADg9fp6+ZhRjByYGNwX4584SHl+2CbUN4QBQNRPuihJ2f/wcVfk/BTd3SH7Lz/W/hd7DIpnywABiIm3oepNACGADzI1mASwIHvzUBv7dvjWt+4tbqusGZ4zsytTH0wLLQnROFEWh14XXE9V70DFFowmvT3B64XCVhxqPQb0fqtwGR6o9VHsEzdT+bWTofuzxSfS66DqskXHBzR2S9o/4fxlruMrkO3uQ1jsKj7d9L0KoYbf//3JIfwfwBDf/anRd+M//6sHpE2KDm0J0ImL7nknCkDEYvvY9SxGIsqlYTKBpCoqiNKT4FQWTpqKpkJYUGbxaK3Sfh6heg+ky+KKGNG4H55Q+gj5DophwdS9cvvZFA0BQKTbWUycHGmO+J4dhCOERFq66M611uDxEp0A1mekx9v/86htYALMKXSMsRFgU7CaIsip0CTcTblbQj395QqN4pJx7ObboLsFNHY5f9839L6BZFP5jWjfsZnMgFdYeKg7ONn/MAG02YApuboc21MFQSBsaxcg/dg63MkRLYvuMIiyuW/Dik6aNK6htRDCFhZOQfn5wS4fjlBWOMIeZCyek4DuGtyH4AQOdukZzoilmVIVmy9qzevzU4qe+1YnX/QYJXeyceV7XoJYQnYH4IX9As4cj8q95binG+utTDGIYdBlxwa/2dk5VTtmsyqjMLsxbNjo4pQ6AYGBVYojS0pBflUFpCwUdNxX+rShteCg2i8a3XxYx85rN1B4N1XZ0FqzhsQy6ejYRyWkY/uOcV4FKp4eFU8/iDwOOnVWpqvcy9vHVOKxamynZFigKhs/Dtjfup7YoL7i1w3DKFoBlzkhm8LD4NmVNQcVHLTV6DnVGPnXGgZMyp3EIVWl4GK4VioJh0dm6voySAycfbA1xahHZPZ0uQ85Hs9p/KQdtAxEBRaFXUhT/cVoyCRG24C4BdBTqXF72l9Wh63Ic8Whoqy85TO2R3ODGDsMp63HM/2EUp5+ehLRRUi74CVf60V27HOOkMygKgodSWUO1nocSFFBVVQW37uXxG7fw9TvFLdpCdFy6jfwjvcZPRTOZGh9Ya4lhCLohoMD4YSncckF/Kpx+oh1WukWag7tT5TLIr6wnIzGM937M582v9+D2+DBpKqp6LAFROPrzN+xZ8bfghg7DKSscy/aOJblnZJvPohh4iFP/wEDTQ8FNJ0RDAdiLFPuzUGl5USgKmM0Kc2/7iY8XFrRoC9FxSb3genqefxWGv3UaVjeEHl0i6NklkpS4cEb0imdQchTZBRUsXbsHiwa9k6JQVIXyKhcVtS7qvQaXnpHKmAFJHCit4fu8EupcPgrLatl7qKrNyKmialTlb2fbm38ObuowtOGjnxqEhVmDF7WLgZvNvhso5C2g/YKeluhtxsVFwIIJi7l1/CNEx0WzWFG01ul6XRcmje7NgutH8ehlQ5h2Xh9O7xmNXVM4p3csV4zuRc7halZuzGfljwfI2lXEz/kV/CE9iYlDuxHv0BjRI5q7L0jjr/85iBevGcmd/zkYrS2vQ1EwW+3BSzsUp6xwnLgj5MRHNZX+LfgoD248SeQk9iNER8Pj0xk9sCvX/KEPcQ4rNpOKSVUwqWBSQVMVLhrUlavPSwMRlMYhzdihKfzXmamEWTTMqoLVpGIxqVhNKg6riYmnJZM5ug8+vY0IfwfnlBWOOueJxS5UYuhrvomupomYOXYEvDVt/CI0DlU86Hi8J+K9hDjV8XvcjSXmv5x3RQFdhFovlDv9lDt9uHXwGFDvE0pqvVS6DJrf/4oCtS4vdV6DsjoftR4Dj9GwTpVLp9qlU+sFq1lr/dsjgs/dsR+kPGWFo+hoXavvu31UEriELlwY3HBMBB0ftTQUEbdEURRq3R6qa05MwEKc2nhrK9A9rhaZDwWFOrcPu6bj9vmpcev4BHQD3H6h2uUjwgL13mbpWwGrVSPCrFDj8uHyG/gN8BtQ59VxenVibGBr4zkWMQxcFUeDF3coTtl0bOrp4Qwd0XY6FlQENy4poMLYSIWx4SSsYb1qY2djLUhL8TCZVA4fdvL5O4WU5ofEo7NgsoQR23c4Jnt4IB1rGEJirIMxA7vSPdpOTJgJq9pQZm43K8Q5LJhUhfX7StmyrxS/Ibh9Oj0SIjh/YFeSomw4LCoWFSwqRNo0ImwaoPBzYRXZe0ubxToUxPBTkv0ltUV7WuxbR+KUzaqM+I94Fqw8u80CMBq9BZ3fOrO0goatzToOm0Xjm9VHmHn1ZpzloeFKZ8ESFsWgax4nMmVAoADM5zcY3DueWZOG0j2q7aClACt+PkL/+DCgYXKfA5UuRveJI9reOk0LYAgsWX+A11bvxNzkeTQWgG19/V7qju4PXqXDcMoKR3i0mX/knU90lL1VnY6Bj2hlEP1M1weJR5OqH/+QFBR81LNP3qXef6iFeCgKaGaFpc/tZsG9OS3WC9Hx6T/5fhKHjkWMhqrjXyUcAv/MKeHi9F8eUNtQUEn/LuEnLBz1ZYVsefGWwDSEHZHWP7WnCC6nny+WF2Ixt06dgYGmRGFV0glThjezYY3WfFnbZleGEa4MJ4IUpNmcHACapnK0yMX3/y9U+NUZKdv6DX63s8XzIorS8GNyTBQ4WF7L0h8LWPpjAe9sKGDT/jL042RMgtOxiqZxdOOaDi0anMrCofuEL18votblPebMSs0R3JQaH1IpX/+GatJGFCH3p0p++qIyuCVEJ6DiQDb1Rw/+4qEqDSlZfzsioABltW4WrNrGy59vZ94nW9lZWNlOdSgYIpTVugPTDaKoeKsqKc39Nqhnx+OUFQ6AfTtr+PjN/djMx99NAzfbfc+z178YH4eDm381qqpQU+1l6XMdN3AVon1E1yn4eimG0RC7MqkKhSV1fLn9CN42xMNnwPd7y9iSV4pF0zBrKnazxr4jVWwpOPaPy9bCKr7adghNbbh+VZOZQ+s+wFNdFty1w3HKxjia6JHh4IkPziA9PTYwC1hbJeeCTqnxCapiIVYZi0rbY9XmNJScz6PY/z1q4xOyJpPKmy/u4tXpu4O7h+hUKPS79Ha6jZ6I4W+YrVwzaYzs14VYu/bLC70UqHULWw+WU1XnbjH00A2hS0wYg5JjsGsQHmbBrKlU1rrxikLukSoOldahqQqq2Urlns3kfvgkXmfVL7vRQTnlhQPgvGu68sALpxEbZcfvN9oUjpMhWDhMJpXvvj3EI5N/or4ilEnp7FgcMQyY/CAx/YZh6D5EBK9fJ/jxKEVRMGtqq3gFgG4YDe/3AcyaiqooePw6KmDS1IaH3TQTrtIj7F7+NNWHdgVvokPSIYQD4E9/6cktD2fgsFnw+j1Eqv3pabqiVTxDQflVgScFFa9Us8+3GBQDk0ll6/ajPJS5hZIDvzXNG6KjEBbfkwGTHyAiuW/Dax5/xbXTHiItH6tXNROe6gr2rnqZspzO82KmDiMcAFfO7MkNM9KJjrLh87Yei54MqgqqSWVLdjFPXPUzh3d3/hcGh2iJI7EPaRPvJrLngAbxCM7/nySqyYy74ij7V79J6a61wc0dmlO2crQtdmRVU1ZdT8+0SBK72JHG/PrJYrVo6H5hzScHef6OHRzODYnG7xGfs5Lag7lYHLGEdemBqpmQY1Ue/goUTUM1Wag9mMP+zxdRvuf74C4dng4lHAB7N9eydXM5Jht07xVGVJgNXeSEBMRs1rCZNHbllPP2M3t4a24e5QWt52cI8fvBV19F9f6f8bvrMIfFYIvt2jDoPYF5SRVVQ7OG4a4o4eiWf3Lgn4uoKeq4s3y1R4caqjTHFqExYmw8Yy7vypiJXYmPdKAjNLz602hxUKqioGgKJlXBQGfb9nLWvlvM+n8Wc+DnumY9Q4QAR5fexA0cRXz/swjv0R9FURBdBzFazBqmKAooKoqqgqLiKjtMec56ynJ+oKZwV8N7aDspHVY4mgiL1uiSbKffiGiGjY9mwLBIkrpGEBlhQ1MUPD4/ZRX1HDxQw9Zvqtn6VSWH9tVSdsiDnOw8xyE6PYqiYomII6xLCpHdBhLefQBhiT2xRkSjms2IruN11lBfehjn4d3UHsmhrjgfT3Upht75vdcOLxzNsdhVzFYVk0lBbSy6EREMQ/B5DbwuA93faQ43xL8JRdFQTWYUk7mhTL0xayKGgeh+DL+3U3sXbdGphCNEiBD/Ho5fyx0iRIgQQYSEI0SIECdMSDhChAhxwoSEI0SIECdMSDhChAhxwoSyKiH+R9A0jW7duhEZGYnVakVVVUQEl8vFkSNHqKqqIiEhgR49elBTU0Ne3sm/gDkxMZG4uDiqqqo4cuRIcHMLoqOjsdvtlJSUoOudt5DHZDLRv39/LBYL+/fvp7q6OrjLb+K4wmGxWDjvvPOIj4/HZDLh8XgoKSkhKysLo1k9/4gRI0hLS8NkapjX4tChQ2zatIm6uobKzAEDBtC/f3/y8vLYtevYjxb37duXgQMHUlJSwoYNG4Kb/8dRFIUJEyZQXl7O99+3fMZg4MCBpKWlYbVasdlsgSpCRVGor6+npqaGpKQkDMOgvr4en8+H3W7HYrGgaRo5OTlERkbi8Xj49tuOPwtUe8THx/Pmm28yYcIENmzYQFVVFdHR0YwaNYrXXnuNu+66i/POO4977rmHjRs3MnPmzOBN/Gqef/55pk+fzt///neuvPLK4OYAMTExPPvss9hsNm699dZ/+c10KhEZGckzzzxDYmIic+bMYePGjcFdfjPSnj3yyCPicrlk7dq18uyzz8q+ffvE5/PJ7bffLoBERUXJ5ZdfLvv27ZNt27bJSy+9JCtWrBCn0ylvvPGG9OzZUwD529/+JiIi8+fPb/UZze3hhx8WwzDkq6++atX27zCTySQiIt9++22rtueff15ERHbu3CkvvPCCLFy4UBYuXCivvvqqPPXUU3LPPffIa6+9Ji+++KKUlJSIiMgPP/wgCxYskFdeeUWefPJJKSkpkdzc3Fbb7mwWFxcnK1euFBGRjIwMASQxMVG++eYbERGZNGlSq3VO1ubOnSu6rsuSJUtatTW3K6+8UkRE3n77bXE4HK3aQ/brrd0Xow4bNozZs2ezceNGJkyYQF1dHa+++irffvstc+fO5dNPP2Xo0KEsW7aMBQsWMHfuXIqKirDZbDzxxBPce++9WCwWbr31VlyuhidPm/5/LNxuN7quBzyVUwmvt6GUeNmyZTz6aPvPBiYnJ3PppZfyyiuvsGTJEgAyMzOZNm0aTqczuPvvgoqKCtavX8+YMWNQFIXTTz+d22+/na1btzJv3jwmTJjAlClTEBHq6+sxmUxs3LiR5557rsV2oqKiuPfee0lPT8fv95Oeno6iKIGhxw033EBmZmbDxDxeL6WlpWRlZXHjjTcCcMEFF/D000/z0EMPMXPmTJKTkzGbzbhcLmpqarjzzjsD57qJJ598kpSUFBRFwWq1oigKc+bMITs7m/nz5xMTE4PZbCYiIoKHH36YPn36kJmZSVhYGIqisHTpUpYvXw7Aaaedxn333Yfd3jBLXV5eHs8++yxlZWU8+OCDDB8+HK3x/bb3338/e/fupUuXLjzzzDM4HA4Mw6Curo7p06dTX1/PddddxyWXXIKmabjdbv7xj3/w5Zdf8uCDDxIVFcV3333HiBEjiIyMJCoqCrPZjN/v57XXXuOrr75CURRefPFFEhISUFUVl8uFyWTirbfeYs2aNS2+h+a0UpMmy8zMFBGRrKysFsvT09Nl2LBh0rNnT3nvvffE5XLJmWee2aKPpmny5ptviohI//79ZebMmSIi8tRTT7X6nOZ23333idfrlfLyctm8ebP8/PPP8sUXX8hpp50mNP66ZGdnS3Z2tmzevFl27NghgwcPFkDuuece2bJli2RnZ8vWrVtl1qxZYrVaRVVVmTZtmmzfvl2ys7Nly5Ytcuedd4qiKALIpEmTJCcnR7Kzs2XTpk0ix/A4nnrqKRERmT17dqu2YFu5cqX4fD656aabAssyMzOlsrJSsrOzW/XvbNaWx9GzZ08pKCiQ9evXS1JSktx0003i9/vlk08+kaFDh0pFRYVs3bpVLrvsMiktLRURkU8//bTFdhVFkQcffFBERN59912ZPn26VFVViYjIwoULZeTIkSIi8sILL8jpp58euAY//fRTmT59uoiIrF27VsaOHSuLFi0SEZFXXnlFMjIyZMOGDSIiMnfu3FbHk5OTIyIi27ZtkyuvvFIKCgrkwIEDkpKSImVlZSIismLFChk6dKg89thjUlVVJQcPHpTMzEzJzs6W+vp6GTNmjAwcOFB2794tlZWVcsMNN8grr7wiIiJPPPGEvP322+L1emXp0qXyxz/+UXJzc+XAgQOSmJgon332mVRWVsrtt98uL7zwgoiIvP766/Lf//3fIiLy8ccfS3p6uvz8889SUVEh3bp1k9zcXCkrK5MFCxZIXl5eYJ1p06aJiMimTZskJSUlMBpYtmyZ/PWvf5UmZsyYEbhH2rBWCwJmt9slOztbXC6X1NTUyK5du2T06NGBjQ0ePFicTqf88MMPkpqa2mr9WbNmiYjI7bffLk888YTICQiHx+ORzMxMueaaa0RE5MMPP5RbbrlFiouL5YsvvhCLxSJ33XWXiIjs2LFDpkyZIoZhyJo1awSQxYsXi2EY0r1798Bnv/jiiwLI6tWrRdd1ueWWW2TUqFEiIrJ+/XoZMmSIbN++XeQ4wvHMM8+I1WqVuLi4gEVERLToGxKOOFmxYoWIiBw8eFD27NkjBw8eFBGRH3/8UVJTU+X6668Xt9st33zzjSxZskRERDIzMwWQq6++WqQN4bDb7VJXVyc5OTmSnp4ugLz77rsiIrJ48WIBJCEhQex2u1gsFklJSQlsZ9y4cSKNghMeHi6RkZEtzt3TTz8tIiIfffRRq+PJzc0Vj8cj48aNE0BmzJghIiLz5s2TsrIyqaiokMsuu0wAWbZsmYhI4J64+OKLxTAMef/99+Wtt94Sn88nr7/+euB4unbtKtHR0VJRUSE5OTkSExMjmqbJY489Jn6/X1avXi1ut1sOHz4s48aNk7CwMImPj5eYmJjANdkUAkhISJDY2FiJj4+Xbdu2ydGjR+WZZ56RvLw8cTqdYrfbJSkpSdauXSsej0fuuusuKSwslPz8fDGbzQLI/PnzRUTk7rvvbvU9NFm76ViXy8XIkSO57777KC8vR0T48ssvMQyDOXPmYLVaA25P80BpE03BQ7vd3mI6teOhKAqffvopK1asYPny5bzzzjtMnjyZTZs20bVrV6644gpSU1OpqKjg4MGDxMXFkZSUhKIohIWFkZqaykMPPYTJZKK0tJSrr76agoIC1q5dy8CBA/noo4+or69nzpw53H333QDMmzePbdu2ceeddwbvToCm47n22mvZtGkTWVlZZGVlsW7dut8U3OusNJ3zCRMmkJaWxpAhQ1i8eDGjRo1ixowZREdH4/f7iYqKYsSIEZSVlVFeXg7AihUrgrbWgKIoOBwO8vPzA0H2wsLCwLkxm83YbDYWL16Mx+Phiy++CNpCQ8anaciRkZHB119/TVlZGVdddRUAPl+zd8Q2oigKTqcz4LoXFxdTX1/PWWedhdVqpba2ltzcXFJSUujduzeGYVBV1TAp8f79+9m6dSvDhg1j6NCh6LpOdnY2NN5jxcXFjBw5EovFQmpqKllZWWzdupXJkyezZ88eDh8+zOzZs6murubtt9/G6XQyfvx4wsLCmD9/Ptu3b2fixImICEuWLCElJYXIyMgW+w9QVFSEx+PBMAz8fj9+v5+0tDTsdjuFhYWB427a7/ZoVzgAdF3npZdeolevXgwaNIjp06dTUVHBHXfcwYQJEygpKcHhcGCxWIJXDYzTioqKTjj1tWPHDgCcTmfgAunRowfjxo1j0aJF/PDDD9x8883Ex8ej6zqLFy9m6dKl+P1+8vLy+Prrr5kyZQr9+vULpOvuuece5s2bx+TJk/nqq69Ys2YNGRkZVFVVUVNTA8B3333XYj+a03QjLFy4kCFDhpCRkUFGRgbp6en8+c9/Du4eopGmc19VVcU777yDruv06dMHh8OBiKDrOk6nE4vFEsjKRUVFBW2lJc2vN6vVCo3CfuWVV3Lw4EEyMjK47bbbOPfccwP9ms6fYRioqsqaNWtYvXo1Pp+PzMxMFixY0GrO0OaoqkpYWMMrIJv2ta6uLrCOqqpUVlbidDoDT2cDdOnShV69elFbW4vL1fDC64iIiGZbbsiCWCwWdu/e3eramjp1KnPnziU9PZ0pU6awcuVKXnjhBfLz89F1nSFDhnDOOefw3HPPkZyczMaNG5kzZ06bAkjj99B0jC6XC8MwsNlsgfam+7Y92hWO6667jgcffJBzzjknsGzRokWsXr2ayMhIevTowZtvvsmwYcNITk4GYPz48fzlL38hMzOTQYMGAbBlyxb8/hN77DgxMTHw99jYWADuvvtuPv74Y3r06MG0adOYPn06JSUlmEwmvF4v1157bSDAtmvXLubPn8/LL7+MzWajsLCQm266ifHjx3PxxReTmZnJbbfdRk1NDXa7PXDxdevWLfC5x+JYF1aI49OzZ080TWPLli1UVlZiNpspLi5m+fLlREZGMmrUKAAeeeSR4FWhUYS2bNnCiBEjmDRpEg6Hg+HDh6MoCjExMWRmZgIwZ84cFi5cyJw5cwLrNnnGcXFxmM1mBg0axOHDh7n++uspLCzk0ksvRVGUNq9VwzCIiopixowZAAEPYenSpYGAf5OQHD7c8F6fK664ItA3KiqKVatW8dFHH6GqKmPHjoXG8oMZM2Zwxhln4PF46N69O2PGjAFg3LhxPP7440ycOJHZs2czbdo0tmzZQmZmJjt27MBkMjFlyhQeffRR+vbty7333suSJUsCx3g8zGYz69evp6ysjLS0NEaNGkViYiJnnnlmcNc2aTV+abLZs2eLiEh2drb07ds3sPz777+XmpoaGTBggAwdOlT2798vGzZskLPOOktGjhwpRUVF4vF4RERk5syZoihKYFtPPvlkq89pbvfdd5/4fD4pLCyUlJQUGTlypJSXl0t2drbs2rVL/H6/PPLII2Kz2WThwoUiIpKfny8333yz/P3vf5e77rpLALnxxhulvr5eVq1aJWvWrBERkQceeEAAmTx5srzzzjsya9Ysue6660RE5OWXXxaz2Sxvv/22yHFiHI899lirtmBrL8axadOmVv07m8XHx8snn3wiIiJff/21fPjhh/LZZ59JeXm5rFq1SiIjI+Xmm28Wv98vn3/+udhsNlm+fLn4fD5ZvXq11NfXi7QR4wDkzDPPlO3bt8u+fftkw4YN4vf7RUTk/ffflz/96U/i8Xhk27Zt8sEHH4jT6RQRke3bt8vll18eCIB+9NFHcscdd4hhGLJ+/XrJzc0Vt9sd6Bv8mU3B0dLSUvnqq69EGgOwVqtVampqpLCwUIYPHy6AZGRkyLp168Tj8cjq1avF6/XK559/LgkJCRIRESEvvfSS1NbWyvvvvy87d+4UwzDk1ltvlYkTJ0pdXZ0UFxfLu+++K4cOHZLc3Fw5//zz5aGHHhIRkQ0bNsjatWvF6/XKtGnTZPz48eL1emX//v3y7rvvSllZmeTl5ck555wjOTk5geDovn375NChQ6KqaiDGISJy9tlny+jRo8Xv90txcXHg+5HjBEfbLQCz2WxccMEFfPbZZxQUFFBaWgqNhVAXXXQRP/zwA4qikJCQwMqVKxkwYAB79+5l4MCBOBwOAPbt28f555/P1KlTmTVrFqWlpeTn56NpGqqqUlVVxfnnnx/4zPvvv58nnngCs9nM/v37MZvNeL1epk6dyoEDB9i4cSM2m43Dhw+TlJREWFgYVquVc889l0WLFpGUlMTOnTvp378/lZWVXHLJJfh8Pt544w2GDRtGbm5uII03btw4srOzefLJJ3nggQfYuXMnffr0wWazsW7duhZuLsBTTz3F/fffT0lJCQUFBQGXTtM0ysrKeOyxx1i3rmEK/M8++4zx48dzxx138OqrrwIwadIkFi1aRHh4ONu3bw9sNywsjEmTJpGT03lecG0ymejVqxdxcXHYbLaA6+7z+di7dy9FRUUkJCSQmppKVVUVeXl5JCYm0qdPn8BwJSsri+XLlzN58uQW21ZVleTkZFJTU1FVlfr6egBKSkooKiqiX79+xMbGYjabqaurw+/3IyIUFhYSGRlJYmIiqqqyefNmTjvtNKxWKyJCVVUVFosFXdf56aefWnzm7t27SUpK4sILL8ThcOB2u9m1axfV1dUMGzYMEWHPnj2BfUlOTiY5ORm73Y7f72f//v0BT8ThcDB48GAcDgd+v5/y8nL27NmDz+cjIyODqKgorFYrHo+H/Px8Dh06hNVqZfjw4VgsFhRFwePxsHnzZgzDIC0tjbi4OKxWK263m6NHj1JQUED//v0xm82UlZURExMDwLZt2zCbzfTp04eIiAhycnKoq6tj8ODBREZG4nQ6ueOOO5g6dSqjR4/mxx9/bPE9NNGucNB4kuLi4rBYLIGT73a7KSsrCwSkaByjhYeHo2kaPp8PwzCoqanhww8/JC8vj1mzZmG1WjGZTIELg0YXsOkLpTGQGh4eDo3jSEVRqK2tpba2FsMwiI2NxWq1omkaHo8HEQncuA6Hg7CwMCwWC36/H6fTSU1NDSKCw+EgKioKk8mE3+/H5XJRWdnw+j6bzUZ0dDQmkykwLvR6vYH2JsLDwwkLC0PTtBbHQKMLXVFRgdvd8E6WppPfNK6lcSweERGByWTCbP7lDeeKolBcXNyqduD3QlOV43XXXce1117LBx98wOrVq7nwwguZOXMmc+fODV7l387u3btJSEgIDJs7C0OGDOG9995DURQGDRrE2LFjWbp0KSaTiTPOOIODBw8GrxKglRvyr7ZjuTshC1mTDRkyRLKysmT37t2yY8cO2bVrlzz66KOt+v1v2apVq2T9+vWtlncGu/baa2Xnzp2yY8eOQD3TiBEjWvVrbsf1OEKECBEimHazKiFChAjRFiHhCBEixAkTEo4QIUKcMP8fjOn05jHH3HMAAAAASUVORK5CYII=;" parent="1" vertex="1">
          <mxGeometry x="672" y="210" width="270" height="65" as="geometry" />
        </mxCell>
        <mxCell id="mHcwm586ggzmoPCYp2Yr-16" value="" style="shape=flexArrow;endArrow=classic;html=1;rounded=0;fillColor=#d5e8d4;strokeColor=#82b366;" parent="1" edge="1">
          <mxGeometry width="50" height="50" relative="1" as="geometry">
            <mxPoint x="806.5" y="330" as="sourcePoint" />
            <mxPoint x="806.5" y="280" as="targetPoint" />
          </mxGeometry>
        </mxCell>
        <mxCell id="mHcwm586ggzmoPCYp2Yr-17" value="Consumption Layer" style="text;html=1;align=center;verticalAlign=middle;whiteSpace=wrap;rounded=0;fontSize=20;" parent="1" vertex="1">
          <mxGeometry x="390" y="86.5" width="80" height="30" as="geometry" />
        </mxCell>
        <mxCell id="mHcwm586ggzmoPCYp2Yr-18" value="" style="shape=image;verticalLabelPosition=bottom;labelBackgroundColor=default;verticalAlign=top;aspect=fixed;imageAspect=0;image=data:image/png,iVBORw0KGgoAAAANSUhEUgAAAa0AAAA/CAYAAABTj5fLAAAAAXNSR0IArs4c6QAAAARnQU1BAACxjwv8YQUAAAAJcEhZcwAADsMAAA7DAcdvqGQAADPdSURBVHhe7Z13eFVF+vg/59ya3FTS6AESShIIKBCKiHQQkKDiyq66q7sWfBbBXdTVBRULgg1dVgEroFQRpQgkdGmChmYogVACCSQhgfTk5rb390fuvSY3uOKufn8Szud5Xp4wM+ecO3PmzDvvzDszCiBoaGhoaGhcA6i+ARoaGhoaGr9VNKWloaGhoXHNoCktDY3/nygKiqqiKIpvjIaGxhVQtDktDY2fj06vx2AwAoLdZsPpdPom+UlMZhNNIiKICgun0mrlXF4epSUliGifpIbGj9GglVZwcDAWiwVVVXG5XJSXl1NWVqY1Chr/E35+frRv1YrE8HDs4mJfbi5ncy5QXW31Tfqj6PR62ke34vZWLbnZ4s9Fp7CsIJ8dxzMpLSnxTa6h4aVphEpuoYsfmrEG3YzXo8HltkWLFsTFxdGyZUtGjhxJjx49sFgslJeXs2fPHtatW8epU6fIyMggNzfX93INjf+IqqrEtItlQptYkoMCqRbh04JC5mdmknP+PC6Xy/eSK2L092dsp45Mj42lqb8fNid8kp/HaxkZZJ4+Ta0WSeM6pnEjHXFtdGxNs3nDDi8NotsfS7HaABSG3mTk5DkHp7J/vrV/LdJg5rQCAgK45557WLZsGevXr+eDDz4gOTmZxo0bExgYSJMmTbj99tv54IMP2LBhAwsWLGD48OGoaoMpAo3/A8xmP/z9/BkdFk6LoBBiA4MZGhJM4wALil7vm/zHURSMCphUHaCiAGZVQafNbWnUok1zPc89ZKkVoqBXHTXmBtA6Us/0Ry20b6WrlaZh0yBa7LCwMN544w1mz55Nr169flIR6fV6Bg8ezMcff8y0adMIDw/3TaKhcUUcTgcOh5McaxU4XYjTSW51NRU2O1yllQWgE+G4zcbq4iJOl1Wwv6yMjYWXyC8q0qys65jGITrCg35QQOfz7RRfVOnW3qO4hL2HVFxuo2rEzXq+PyJs/84BgEGn0CJcj8HQcDs/OmCqb+C1hMlkYs2aNdx5552YTCbf6P9IQEAAvXr1onv37qxfv57KykrfJBoadTAYjYSHRZDncmEQF/sryllVUsqZsjLKy8quyiFDp9PVdJSMJr4tKGBr4SXW5uexPzeXy5cva3Ou1zFtIg3MmRzI2YsuzuU6qbQKmeeE4grhcpmTEIuB0zlQUgnVdqHcCjvTbVworKl3Q7tZmHS/meWbqn1v3WC4pue09Ho9K1euZMSIEb5RiAhOpxOn04mIoKoqqqqi/5EhnAULFvDnP//5quckNK4/TCYTrVu3RlEULhcV4a/TI+LCoaoEBgZSVlZGXl4eDkdNr/dK6HQ6IiMjCQsL4+LFi1y6XISiUxGXC5fDoSksDZ6/P5B+nfXc/mwxxeWQFKdj0u919L4VdME2XE7QqSqVFw1sWAGzv7STftZJ4zA9Wz4K5pnXKlm1u8r3tg0KuVZl8uTJYrfbxZeLFy/Kq6++Kn369JGAgAAxm80SFRUlQ4cOlQ8//FDy8vJ8LxGHwyGjRo2q9wxNNAHEbDZL+/btJS4uTgICAmrCFUVQFFFUVcLCwiQ+Pl6aNWsmOp2u3vWA6HQ6adq0qXTq1EkiIyNFUZR6aTS5/kSnIo0Cf6gLqqJIiEUn0ZE6WTTNInJRJ1KCSHl9cZUgclGVfz5ikIggnUSG/lD3dIoigX6qqGr9Z17jUi/gmpDw8HA5cuSIr+6RrKws6dixY730teXGG2+8ouK6cOGCRERE1EuvyfUtV1RYPqIoioSHh0vHjh2lefPm9RSXqqrSrFkzSUxMlIiICE1haeKV0ACdLP5niNxzm78E+6sCSJe2OslYbRSpVERKqVFa/0mqdLJujlFC/WrqXeMwVab8OUCeuCtI/E0Nq65ds3NaEyZM4K677qrjdHH27Fl+//vfs3///jppfcnLy+Po0aN07dq1jhOGyWSiqKiIXbt21UmvcX2h6nSYzGYAjEYj0dHRKIpCTk4O5eXl3nSKonhFRKiqqsLlchEeHobRbEJnNuMfEoTJ7EdEWBjh4eHk5uZSUFBQ62ka1zt2O4Q1MnDXCCNVl1XO5bpY/b6ehGF2sIlv8ivjFNp2dRHgMpD6Nfx+kD93DTfw8foqTuf89DzrtcQ1qbT0ej1PPvkkHTp0qBM+Z84cFixYUCfsx8jMzARg+PDh3jCdTofNZmPx4sW1UmpcT/hbLDRt0YLwyEgCg0OICA9HXC5ycnKoqKgAd/2Ljm5FYFAkAUFhhISEExDoT3V1FeXl5YiiEN2kKb9v3YoHW7UhMiSYCrM/p7POaApLox4C7DtuY+NOO4UlwmMPqYz5o6Mm5ip1FtQk75wE9hyVpZvsLF5n5XjWj8+vXqv8Z9/w3yi33HILN9xwQ52wQ4cO8dFHH9UJ+ymOHj3K+fPn64SFh4f/bC9EjYaB0WQiLrolT7XvwIrOnZkZ1574RiFcunzJq7AA9AYD0U3CeP9pM2vfUpn9pJke8aEoOjMigrhcdPUz83hUY8ZERPDPZs1oYTRguwrPQo3rl4vFTiICnPzuTidYXOAC1J+x/soFJj8nw0a7yC8WCksbplPZNam0EhISaNasWZ2w7OxsTp06VSfspzh+/DgnT56sE+bv709ERESdMI3rA7PZRO+oKJKDAogPsDAqPIwRwYEYVR1KrWFoEUGnc9HvpmI6DyykT48imoRU43S3ESaDgZZGE410KuCikdFIkE7B7B5y1NDw8MiIQN4aF8jjI/2ICtHTuSPEtgGqAcvTYMkCy2LQ1V5g7EaXCIG7IXAbGJNqwgTi41WGdjXSpbWBZ+7y572JwcRFN5yO+DWptH6pj//ChQucPn26TphOp9MsresWBQWlZkTGVSMOV/0RmppU7nEdFyiKeHcoACivquS7sjKOVlRRVWXjcHEZ5602SktLUVUVs58fJn8/zG4xGo3aLu/XKYu3lvPu6mqaNQvgxhh//JsCEU7QJ4L6MFQPBtUBxjl1L1T9wfI3cH4LjvfAvBx0N4IdItq5GJzspHOHAEyWQF5ZUsGp8z9sA3Wtc00qrV8Ks9lMSEhInTCt8bh+sVqt7MzNZVVRMUeKS1idf5Gv8i9SXlWF1Fq/JwiCy+vQJJ4/3ZSXlrMrO5snT59g8tlTTDp9in3nzmKtrMTf35/4tu3p26ErQ+J60rNDZ5pERaH7kfWDGg2bskrh5AUbT75XwPp95UQ0crc/hj+A4gBbBlRMB31LMI6qVc/Ca3pMtpehYgk4F4PlA8AEqpOQEBcL1hczdX4+Zy86sDl8u17XLtek0ioqKvINwmAw+Ab9JB06dKB9+/Z1wqqrqykrK6sTpnF9YKuu5lj2Od46cZxHjx7l2RMn+Pr0aSpqeQx68XRuxP1PrTbB6XRw8eJFtp84xcdHj7Hr1AnycnNBBL3RQMewaCa1uZNXO47jwZZDCA0IRqf7GXMXGg0bBbAvBKkA81RQ9WBfC7q4WttBBIKjFbgKwdwflCZA1g+9J7XhKClfrkmllZaWxrFjx+qEdenS5Yo7Y/wnWrRoQfPmzeuEWa1WLl++XCdM4/qhqqKSM+ey2XMqk6NZZygpKvrJXVIU8VjnPzQUTqeT8rIySi5dpqK07Id7iNBItdA5OJ4OkUkkWmLRi66uqaZx3ZDUzo/3nw9n4RtB3NpFT2ERNU7d1YfB+ihgAf+lYPgLGO4Dv0/BfwGYZ4CuE/itAfN74CiFqvGADURPaYmROwYY+eK9UGY+EU54SMOx5K9JpXXgwAGOHDlSJywqKoo//OEPVz3fFRAQwKhRowgKCqoTnp2d/R+34dFo+DgdDnRAcFAQEeHhREaEExkZQUBAQE2CmlHBH1CUmu7xVegdEXC5BJc4AAdOcfKfVaJGQ0bEwalTNrbudpJ+zkV5rkCBezGSbQ9Yp0DFQ2B9HFyloHeCLg2UIyAXofodqLgPrP8AWy7oofAEbFolHD7tZOsOB+dzrBiuyZb+ylyzWVmxYgXFxcV1wv7whz/w4IMP1gm7EiaTifHjx9dLW1VVxYYNG+qEaVx/qKpKcFAQMd170/GecXS851Ha9+pHVFQUeBYV41ZUHscNz39/CsU9dOP58pSru0yjYbLvlJ3XFpby0RcV5Fx2cCJDIfsMYPTUp2pw7gZbCjjPAMeg8t9gnQ9yDuyp4NwLVLnrlsqx4wrrvrVzIsvBvxeW8dbScvKLGk5H/JpVWl988UW9IUKAf//738yZM4fWrVv7RqGqKm3btuXTTz9l+vTpvtGUlpayefNm32CN6xAFIbBrX1qP/wdtHnuaoKQB6A0er9JaJpVHCSlXYWbhNrU8asrlOYXkKq/VaHC4fLxTtx11svprFVxq/d6MHAUlAsTgvshn3Z8KUqWydwNu99caXICrAVWxa1Zp2Ww2XnzxRUpLS32jGDduHLt37+bBBx9kyJAhDBo0iGHDhjFx4kT279/PXXfd5XsJABaLhe7du/sGa1yXCLqgEMzhFowRZggK8TpfiIDID3NUiHL1jYLHSvPxONTQqEH457Mu0lKMYPbRWq5PaywqPGu2asUrgEHHms8MPPNew7GqrsQ1q7QAUlJSeP7557HZ6q9BaNy4MR988AGpqals3LiR9evXM3PmzB/mJa5AQEAAM2fOZMCAAb5RGtcbXsXk9gx0SV0do6ggNWOCCoLCD/E6nQ6j0YjJZMJkMmIy1VqHJYILV82l1DQ2ArWu1rjeKa12Mu11F0e3GsBzmKMCOPNBeoIS4Laf3B6nCqDTk7pczz0Tq3FcdQ/q2uSaVloA//rXv3jmmWd+MeeJZs2a8f7779O7d2/fKI3rCUVB0Slu5aKgqO4Fxd54zx8167QUcc9yKQpRUVHExsYSExNDm5gYYtu1Iyi4xuFHUVRURVdjbak1xluN7eU7FqRxPbNyt437x7s4uNmvZn5LcHsGhv+grNDV1EOTypIP9DzwmIPy6obv1nPNKy0RYdasWYwZM+Ynd3e/WmJiYvj888/p2bOnb5TG9YII4t0OQxBx1hnPUxQXKE5QQNHVKDkPAZZA+sfexoQeLzKx50t0aZGE0Wh039aFy+VCXDUWnDhr6rBmaWn48l2mg/HP2Cg5qge9eygap7vHpAJ6MMOuVXqenmYnt/j62NvymldaAA6Hg9WrV9O3b1/GjRtHfn5+TcPgcwqsiOByucjNzWX48OH079+fw4cP10njoUmTJmzYsIG+ffv6RmlcDygK6Nyn5ymAqq+z/6DLifvzEcSl4lJqlJBnGDDUEE5rSxztAhKx6AJxSk2DoigKOlRU97hgjaVVY21paPjyfaaTdRsU8O4sV8uSUgygg89SXJwruD4UFg1FaeFWSBUVFbz33nu0aNGCnj178uKLLzJz5kyvTJs2jYEDB9KiRQvWr1/Ptm3buO+++0hLS/O9HQCBgYGkpqbSp08f3yiNho4IuKRGqUiNm5dnKydFUWptvq2gKC5UqRlKFKlRXi4RXC4HDpcNqTWaKIBTXLhw71eoGVga/4Gyatj2vVpjzqvUKC2dAnoVVAVyoeDc9dXhaTBKqzZ2u53vvvuOqVOnMmnSJK88++yzbNu2DWetIyIOHjzI2LFjf3Ro0Ww289VXXzFw4EDfKI0GSs3clIqiUwEFVVFQVRVFrWkcRAQR1atwavw1xMdakh8sKI+noWdgR+e+l3tOq/bQooZGXYRD6U42va+S8jGsX53C+oVVrP+0nI0rN/DRbNh3tOHPY9WmQSqtn8upU6d4+OGHf3RhcXBwMEuXLmX06NG+URoNFsHlrPEe9Awr19nNSdxjeyg1PV6lrtkkqD86TyVOp9uSqzPYo6FxRfYegd+/0JKJs7sz4allTHijMRPeaMT4p1fwzLw2nLhwfdUiTWm52bdvH4888gh79+71jQL34ZD//Oc/iY2N9Y3SaGBIjaqqcWYXt82kKD4GkcfMqrGoxK2zFOUH5/ea+7jjauG9z5V1moZGHXSq0KxxAB3jWtAxoT0d41vRMb4VCfHtaBIZcN1VJE1p1SIrK4v777+fdevW+UYB0L17d/r16+cbrNEQcU9EeRRM/QG8GicM3Cu0ajZzqklVs83TD84Viu9n5jbQrnBTDY16OJ1O8vLycDqd+Pv7Yzab8ff3p7q6mjNnzvgmb/BoSsuHjIwM/vKXv5CSkuIbRWVlJSUlJb7BGg0Mxa14VIcdrC6wucBh99mpScFmNYLNiMNmwO5Uag6DBEBwumzYXNXYpMYRo7aGcgIOlwPEihMHSgM+RkLjl6GiooLLly9TXFxMaWkpRUVF5OfnU1FR4Zu0waMDpvoGXu+Ul5ezY8cO2rRpQ3R0NAaDgaqqKmbNmsWsWbN8k2s0MBTAz88Pk8tOeeYpLn2zk7KDuynOOUtxcRE6nUpwcCMKCnSkp5nY/I2J7zJd5OZfxmG3ExgUiENvI6voBEcu7SO7LJPci+epqrJiNBkxB/lztvwC+y4dYlvx9xy/fI7LxcU/eQSKxvWLzWajadOmxMXFERoaitlsJiMj47o8Rsk9Eq/xY4wdO5ZRo0axdOlSVq9e7Rut0YBQFAWj0YhOp8NgMOBnNnvXXSkKWK3VVFmtqKqKv8WCTtV7BwidTgdVVVW4XC7MZjMmk+mHMUZ3R8jhcKDX67FYLCiqgoigKArV1mqqq6txOp04HI5fbHcXjYZFcHAwXbp0ITg4mMLCQg4cOEBVVZVvsgaPprQ0NNyYzWZatWqFv7//Fa0ez2J17z6CtagddqVF7aqq1glXlBqlVfv/TqeTCxcuUFhY6A3X0NCoi6a0NDTc6PV6QkJCMBgMvlFePNbRr4HL5aKsrIzKykrfKA0NDTea0tLQ0NDQuGbQvAc1NDQ0NK4ZNKWloaGhoXHNoCktDQ0NDY1rBk1paWhoaGhcM2hKS0NDQ0PjmkFTWhoaGhoa1ww/2+Xdz88Pl8tFdXW1b1Q99Ho9uE8W/r9AURT0ej0OhwODwYDJZMJut2O1Wn2T/teoqorJZPLmzel0YrPZfpU8+vn5odfrsdlsV1Xe1wqeMlQUBZ2u5jRFp9OJ0+n8n/Kp1+u99bOysrLeIt//K0wmE0aj8arem6qq6HQ67Ha7b1Qd9Ho9RqMRq9WKwWBAURQcDod3B4/Kyso658Rp1EVRFG+du9IuEp5ydDgcP/kufgzPPaxWa726ZzabMRgMv1h75Nm9RVEUbDbbFRfD/xoEBgbicrn+v+95KFcrer1e7Ha7bN26tV6crwQHB8uSJUvkmWeeqRf3a8nw4cNlw4YNEhcXJw888ICcOHFCpk6dWi/dfyt6vV6mTJkiZWVlcvr0aTlx4oRUVFTI3LlzxWw210v/v8o777wjR48elXHjxtWLu5ZlwIABUlZWJhUVFXL06FE5evSoFBcXS3Z2tsTFxdVLf7XSv39/2bdvn6xatUqCg4Prxf9fycSJEyUzM1OeeOKJenG1xWg0ytNPPy1ffPFFvThfmTRpkoiIdOvWTdLT0yUnJ0dGjRol8+fPl/T09P+p3K4HadeunaSnp4vL5ZLY2Ng6cXq9XjZt2iQiIp988km9a69Wli5dKiIioaGh9eKmTJkix44dkxdeeKFe3H8jERERcujQISksLJTBgwfXi/+15NChQ1dVX39lqRfwo6LX60VEZMeOHfXifGXOnDkiIvLUU0/Vi/s1pGXLlrJjxw6pqqqSxMTEevH/q+j1ennjjTdERGTBggUSFBQkqqrK008/LU6nU3bt2iWtWrWqd50m9WXgwIFit9tl9+7d3rCJEydKdXW1ZGZm1kvfUGXkyJFy6dIlOXDgQL04X3nyySdFRKR79+5y9OhRKSwslKSkpHrpNLmytGvXTo4ePSoiIjk5OWI0Gr1xf/3rX6WqqkpERBYuXFjv2quV5cuX/6jS+qUlMjJSDh8+LMXFxTJkyJB68Q1ZftbwoF6vx263s3PnTm6++Wb69u1Lz549cTqdBAQEYLfbOXToEJcvX+att96iR48ebNu2jVmzZvHll18ybNgwevbsiaIoXLp0ibVr11JQUMDw4cNp0qQJZrMZVVXZsmULrVq1IiYmBoPBQEVFBWVlZcyZMweAG2+8kcGDB2MymaiuriYnJweHw8Hbb79NeHg4H330EYsXLyYxMZHS0lKCg4PJyspi48aNWK1W4uLiSE5OZteuXXzzzTeMHTuWtm3bAnDu3DnWrVtHbm5unbz37t2bXbt2MXfuXP72t795TXyj0chzzz3H5MmT+ctf/sLevXsZNGgQmZmZrFu3jqZNmzJs2DBUVWXevHn4+/szevRoWrVqhaIoVFRUMGvWLMxmM7fffjthYWE1O4ybTFy4cAGTycSePXv49ttvGTp0KDfddBMiQlFRETt37iQtLY2AgADuuOMOYmJicLlcFBQUsGXLFjIyMurk4bfCwIEDSUlJ4bvvvqN3794AxMbGsnHjRsLDwwkPD2fIkCHExsaycuVKzpw5Q1JSEjfddBP79u1j//79JCcn07ZtWxRFIS8vjzVr1qDT6RgxYgQlJSWsXLmSP//5z+h0Ou8wa1VVFStXruTkyZOEhoaSnJxMy5YtERFKS0t55513cDqd3vrhqV95eXnMnz+foKAghg4dSnx8PKqqUlhYSEpKCpmZmXXy17t3b3r27MnOnTtxOp0MGjQIu91OYGAgdrudY8eOceDAASZNmsTDDz9MSUkJzz33HHPnzmXQoEH06dMHRVEoKioiJSWFjIwMnnzySV577TWSkpJYsGAB4eHh/P73vycwMJCWLVuyZMkSCgoKmDhxIgEBAYgIFRUV6PV63nvvPWw2G3fccQexsbGoqorVamXu3LmUl5czePBg2rdvj6IohISEUFVVxcWLF5k/fz4AvXr1om/fvpjNZqqrq8nMzGTFihWYzWaSk5OJj48H4Pz586xbt46cnJw65fFboF27dqxcuZK4uDisViuTJk1i9uzZGAwGvvjiC297smjRIu6991769OnDgAEDUFUVu91OSUkJO3bs4NChQ7Rs2ZJbb72Vpk2bIiKcPHmSpUuXsnDhQu6++26ee+45FEXB5XKxadMm9uzZQ79+/UhMTOTkyZOICG3btkVVVYKDg6mqqiI7O5slS5YA0KNHD2655Rb8/f2x2WwcOnSItWvX1slPZGQkW7ZsoXnz5vzud79jw4YNjB49mvj4eAwGA9XV1Xz11VccPnwYVVUZP348wcHB3nd/9uxZVq9eTZcuXUhKSkJVVYKCgrh48SKqquJwOAgLC0NRFKxWKytWrODMmTM89thj5Ofns3fvXu666y5sNhvBwcEA5Ofns379erKzs2nevDm33norzZo1o7q6GqvVisPh4KuvvvpFzgCrp8l+THwtrZkzZ4qIiM1mk6lTp8qJEyeksLBQpkyZIhs2bBARkfXr18uYMWNk4sSJUlpaKp9++qlMmDBBrFarrFu3TkaPHi179+4VEZFNmzbJk08+KZ9++qmIiGzcuFEeeughycrKEpfLJQ8++KC0adNGDh48KCIir7/+upw9e1asVqts3rxZTpw4IXa7Xd544w2ZMWOGOBwOOXTokBw7dkyKi4u9Fti8efNERGTu3Lny0ksvSXV1tUybNk1efvllERH56KOPJCIiwptvnU4nU6ZMERGRBx54oF65DB48WCoqKiQ1NVVeeeUVcTqdsnr1agGkX79+kp2dLQUFBRIWFibvvvuu2O12+fzzz+Wtt96S8vJyeffddyU6OlrOnDkj4u7tjR8/Xg4ePCgOh0Nef/11ueOOOyQvL09mz54t//jHP0REJC0tTdq1aycTJkwQp9MpL7zwgkyfPl1ERJYuXSp+fn71futvQa5kaT344INSWVkpb7/9toSGhsratWtFRGT06NECyIsvvigiIp9++qlMnDhRRETeffddeeqpp0REZM6cOTJ48GCprKyUjIwMadasmVitVhF3vfrggw/EarXKpk2bJDg4WObNmycOh0MWLlwo77zzjlRWVsprr70m4eHhsnnzZrl48aK89NJLcuLECamsrJQ//vGP8uijj4qIyPz582XixInicDhkzZo19fL32muviYjISy+95B3W87yfo0ePSklJiUyYMEFeeuklsVqtcuHCBXnkkUfk0UcflaKiIvnss8/kr3/9q5SXl8uOHTukZcuW8re//U2klqWVm5srv/vd72T79u0iInLDDTfI888/L3a7XZYtWyafffaZeGjVqpW88sorYrVaJSUlRWbMmCFFRUWyZMkSCQoKkiVLloiIyIULF+Tll1+W8+fPS2VlpQwfPlwSEhLk2LFj4nQ6Zfr06XLx4kUpKCiQRx55RKZOnSpWq1XefPNNefbZZ0VEZPHixdK0adN6ZfL/WzyWVnV1tZSVlcmmTZsEkBEjRkhBQYHs3LlTnE6nfPjhh5KQkCDZ2dmSlpYmzzzzjKxcuVLE/U3Fx8fLsmXLxOVyyTPPPCNvv/22iIg8++yzsmbNGhERKSkpkalTp8r58+fl6NGjEhMTI++88444nU5Zs2aN1yI7e/asvPDCC1JUVCSXL1+Wvn37SlJSkpw9e1ZOnjwpzz77rKSnp8vFixdlxIgRdfJT29Lq27ev3H///VJZWSlbt26Vl19+WQoKCiQtLU2aN28uM2bMkKqqKnn//fflxRdflDNnzojL5ZLbbrtN3nzzTRERyc7OlmnTpsns2bOloqJCXC6XrFy5UubPny/irvMBAQFSUVEh27dvl5EjR4qHN99805un1157TQD54IMPRETkhRdekNTUVG9az/f8P0q9gB+VH1Na06ZNE9zDHSIi48aN8yqAxx9/XNq2bSuXL1+W7du3S4sWLQSQyZMni4jIV199JRs3bhQR8Q53tG3bVvr27SuRkZECyN///ndxOByyefNm7zCJZ74gNjZWevfuLQMHDpTNmzdLVVWVxMfHexuLWbNmyeOPPy4iIhMmTBCTySSXLl2S9PR0mTZtmlRWVsq8efPEbDaL2WyWjz/+WERE7rvvPm++LRaLLFu2TERE7rnnnnrl0q9fP7l06ZIcO3ZMZsyYITabTZYuXSqA3HTTTZKVlSVZWVkSHR0tIiKrVq0SnU4ngCxcuFCqqqrk7bfflvT0dBERGTlypACyYsUKqaiokKVLl8rhw4dl37590rx5cwFk1KhRIm7F+/nnn4uISOPGjUWv10ufPn2kS5cuYjKZ6v3W34IMHDhQqqqqpLy8XHbv3i27du2SwsJCERF57LHHJDg42NtQDB8+XHDPCXg6A1999ZVIrfrSp08fadu2rdx6661SWloqBw8elKZNm4rL5ZKsrCzp2bOnALJ7925xOp3Stm1bEbcCVGpObpSVK1dKcXFxnQ5TkyZNpEmTJtKrVy/p27evt1EaNmyYANKrVy/p1q1bvfx56v4///lPeeKJJ0TcHzbu+TxPXK9evaSwsFD27t0r0dHRkp+fL3v37pU2bdoIteax3njjDRk3bpyIj9K68847ZfPmzVJeXi5PPfWU914Gg0ESEhLk0KFDIiLStm1bcTgcsmvXLu/c66xZs8TpdMrrr7/urfNTpkwRQJ599llxuVyyfPlymTp1qoiIPPLIIwJI+/btpUePHjJ+/HipqKiQZcuWSWBgoOh0OnnnnXdEROSvf/1rvTL5/y0epVVVVSXLli2TrKwsadOmjbcdmjt3rthsNlmwYIEEBwfLsGHDvO1P06ZNRdydn5dfflmsVqusXr1aDAaDWCwWGTx4sERHR3vr7KRJkwSQhx56SMTdUE+fPt3boVi8eLGIiDz66KMCyOuvvy7i7ix7lGC/fv0EkM6dO0t1dXWdtpNaSquwsFAeeOAB2bt3r1y4cEHCw8MFkIcfflhERN566y0ZNGiQJCUledscz/Mef/xxmTFjhvfZgNx+++1SWloqubm5YjabpVOnTnLs2DEpKyuTmJgYKS0tlR07dsjQoUNFRGTnzp0SFRUlkZGRIiKSmpoq48ePl7KyMlm/fr0YjUbp0KGD5OTkiMPh8H7P/4v8Ii7vCxcuBKhzIJlnJ2yDwYDFYiE0NJTExES2bNlCZmYmDz/8MHa7veZsIbdHT3FxMQCZmZmkp6czY8YM8vLyeOKJJ7yegTfccAMAx44dA+DkyZPs3r2bkydPYnaff+R5NoDdbuf777+noqKCe+65hzFjxtCoUSO+//57jh07hp+fH8OHDyc9PZ309HSGDh0Kbg8wDy6Xy+txVPveHjzPdDgc9byGajNw4EAAbr75ZtLT08nIyGDw4MHY7XZiYmLAXYaeclBVFZfLRXh4OE2aNKFdu3Z8/fXXnDhxgtdffx2A3NxcvvvuO6qrq0lLS+PMmTN0796dgwcPYrPZaj39t4VOpyMzM5MxY8YwduxYnnzySS5fvszzzz9P//7963ljeo73OHHiBGvWrAFg1apV5OTk0K5dOzIzM+vtzq4oCidPnmTPnj0AWN1nYQ0YMACAYcOGceTIETIyMrzDlIqisGbNGnr37s2BAwfYsmULBw8eZPv27XzxxRcAzJ8/n9zcXLp160ZaWhqq+tOf0eLFiwG4dOmSN8xgMKCqKoqi4OfnR2RkJHFxcaSmppKZmcljjz2GiGCxWP5jvbLb7QwaNAiLxcLx48ex2+0cOXKE3bt3AzBgwACcTiedOnVi3759ZGRkMGbMGKxWKzExMd46ffbsWQCKiopwOp2EhobSqVMnRMT7vR0/fpy9e/dSUFCAv78/AwYMYP/+/WRkZDB69Ghwe73+VnE4HEybNo3o6GgmTJjADTfcQGZmJkVFRd42pqSkhJSUFP72t7+Rm5vL9u3bvddGRUVhMpnYtm0bDoeDiooKNm7cyNmzZ71eh5988gm4y/FKeOpLdnY2uL95l8tFVFQU7dq1A+Djjz/m+PHjfP755+D2PgwKCqp1lxocDgcJCQmEhYURGRnJzp07OX78OJMnT8bpdBIeHs7u3bs5deoU+/btIysri/vvv997refde6ZDPF7R2dnZWK1WrFar11PwSnVw//79FBUVeT0mjUYjnTp1IiAggG3btmGz2cjLy2P//v1eT+H/lZ/+2q4C3waGWo27y+Xy/tgtW7Zw880306FDB6KjozEajTz88MMEBwfjcrlwuVwoisKCBQsoKCjgzjvv5E9/+hNTpkzxFrCn4HyVh0dx+Bas0Whk9+7d7Nmzh6SkJB5//HGKiop4//338ff3B+Cjjz6iS5cuxMfH06xZMxRF4cMPP/Teo6qqinnz5gEQFRXlDY+Pj6dRo0aEhoYSGhrKnj17KCsr8yob3I2zp5J6xv5XrVpFfHw8Xbp0oXHjxgQFBTF+/HjMZjMiUicPIoK/vz+NGjXim2++oU+fPsTFxREXF4eiKLzwwgu8+uqrmM1mxo0bh91u57nnnqOoqIghQ4Z47/NbQ3F3VC5cuEB2djbz5s1j8+bNBAUF0blzZ9/kXoVkNpt57733UBSFxx9/nLKyMt5++20yMzMZOnRoPXdm3/pArfewcOFC73uIiooiJCSEe++9l1GjRmGxWPjyyy+xWCxUVFSwefNm5s2bh6IoPPjggxQUFPDSSy9RWFjInXfe6fuIevh+Ix4l7Pnb843s3LmTfv360aFDB1q3bo2qqjz66KNXbLBqc6V81q53RqORHTt2kJCQQJcuXWjevDkWi4V7773XW7aee3h+y499a9R6H4sXL6Zr167Ex8fTvHlzFEXhjTfe8E3+m+Ly5ctkZWXxu9/9jr59+7Jw4UIKCwtRVZWqqiruvvtuRIQHHniArVu30q9fP99bXLFMPPi+6x+jdhvhcrkIDQ2ldevWVFdXc/vtt9O+fXsSEhIwmUwkJSVx5MgR31vgdDpp1aoVoaGhZGVl0alTJxITE4mJiUGv1/PHP/6RvXv3kp+fj9FoZOLEiVc8fd3XZd6zfMLTqbpS/eIK14mIN8xTRp62+ZfiF1FaV8KT6YCAACorK7FarSQmJhIVFYXT6SQxMZFhw4bRuXPnOi/ZM7l7/vx5hg8fzsaNGxkxYgRGo5GioiL2798PQOvWrcF9muewYcNISkqivLwco9GIqqre5+v1eqxWK7t27QKgW7du5Ofn8/XXX1NeXg5uy8dgMOB0OunRowfJyclER0d7fxNAVlYWBw4cYPz48SQnJ6PT6Vi4cCH79+/nT3/6E06nk48++ojs7GxU9wQr7gajWbNmOJ1Ob883OjqakJAQrFYrSUlJDB8+nDZt2tSrALgrdH5+PidPnqRr167ee7Vu3Zrk5GSSkpLo1asXt912G6mpqcTHx7NkyRJCQkKIjIz0vd1vmqCgIFwuFydPnvSub/KU4y233AKAxWKhS5cujBw5kvXr15OQkMDKlStp0qQJMTExV7VWyfMe2rRpQ0BAAFarld69ezNixAi6devGHXfcwQ033MDEiROJjY2lrKyMmJgY7r77bm699Vb27NlDYmIiixYtIiwsjPbt2/s+4idRFIXq6mpc7pOOq6qqKCkpISEhwfuOExISuO2224iNjf2PDaHBYCAlJYXy8nLi4uIwm80kJiZy0003gTu/IkKzZs2IiorCarXSuXNnRo0aRYcOHa7YIKmqyqVLlzh48CDU+t4aNWrE4MGDadu2LQ6Hg169euHv74/dbqd79+4kJyd7Rw1+i6iqSnl5OampqTRp0oSIiAg2b95MWVkZIkJERAR9+vQB4IEHHuAPf/gD3bp1815/7tw5rFYr/fv3x2Aw4O/vz5AhQ7jhhhsICAio9aSfh06nIysriz179mAymUhMTPSGJycn06dPH8xms+9lGAwGdu/eTU5ODi1btiQuLo7q6moaN25McnIyjzzyCC1btuTs2bPEx8ezbds2unbtCm4L/X/FVxnpdDpOnTpFcXExgwYNwmQy0bRpU7p163ZV3+bV8KsoLb1ez/79+6moqODhhx+mT58+PP3007Ro0YIpU6YwefJktm/fzrx584iNjYVaC2mrqqr45JNPaNmyJU8++SSfffYZI0eOBLeVs3jxYtLS0nj++eeZOXMmixYtYvny5YSEhHiHaiZOnOh9MR5r6sMPP+To0aMAfPPNNwCkpqYyZ84cbrrpJqZOncprr73Gnj17eOWVVwgNDXXnpoazZ89y//33U1hYyIoVK5g5cyanTp0iOjqaUaNGce7cOVq0aMF3333HgQMH6Nu3L3PmzGHs2LGoqoqfnx/btm3jrbfeon///nz55Zc88cQTrF69mjfffJPo6GhMJhMGg8Hbi/X398dsNpORkcFLL72EwWDg3Xff5ZVXXiElJYW5c+fSunVr7rvvPlavXs306dOZPn06jzzyCFu3buXrr7+uk4ffCnq9HpfLRUxMDJMnT+a5555j/vz53HzzzfzrX/9i0aJFpKamUlFRwZQpU3jllVe8DUdAQAAPPvgga9as4a233mLq1Kncd999bN26lbVr1xIYGIifn1+9j4laH1hKSgrvv/8+o0aNYvny5Tz11FOsXbuWl19+mZiYGCZNmsTWrVt58803Wbx4MaqqMnPmTG688UbWrVvHv//9b6ZMmcJDDz1EWlqad+jPg9FoBHedvpJCwN3YfPvttxQWFtKpUyfuvvtu5syZQ1hYGJMnT+aZZ55h69atLFq0yKsgcPdkPUPqnkXuFouFbdu28eqrr9KlSxeWL1/Oyy+/TEJCAgB79+5l6tSpdO7cmbVr1/L3v/+dFStWMHv2bG+PnFq/22Qyea20Tz75hMOHD/Pqq6/y+uuvs3TpUpYtW0ZeXh4zZsyga9euTJ06lenTp/PNN98wc+bM32RnSafToSgK/v7+VFZWetuAvXv3cu7cOfz9/b0WZlpaGg6Hg/vvv58pU6awbNkycHdyMjIyWLRoEbfeeitTp07lX//6F6mpqdx99931hqc9iAh+fn6oqorFYvGm85S3Z5FwSUkJr776KpmZmcyfP99b5itWrGDEiBF1htc8bYrFYiE9PZ1p06bhcDhISUnhH//4Bx9++CEff/wxgYGB7N+/n4iICJ5++mkWLlxIcnIyuDvwnvbRM6Tr6fRbLBZwl5tn0X5tC9yTB0+5esTf35+UlBQWLFjAgAEDeOWVV5g9ezaNGzf2jqT9r/wsl3dVVfnzn/9MXl4eX331FT179qR79+588sknlJSUEBUVxdixY9m8eTOnT58mOTmZ8PBw8vLyWLVqFYMGDaJDhw7odDrKy8s5cuQIaWlpDBkyhODgYFauXElJSQmhoaGMGTMGf39/VFUlPz8fi8VCcXExy5cvp2PHjvTr1w+TyYTL5eL06dOsWrWKhIQE+vTpg8Vi4ezZs4SGhnLs2DGvlTVy5EiaNm3K9u3bve7gkZGR9O/fnxYtWgBQWlrKnj17+P777+vk3UNMTAx9+/YlLCwMm81GZWUlVVVV3HfffSQmJtKjRw8CAgLo27cvAQEBlJWVYbPZqKqqYvny5QQGBnLbbbcRFhaG0WikvLycbdu2ce7cOa9FuXHjRvLz8xk8eDAtW7YkLS2N77//nmHDhtG+fXv07l0y0tPT2bp1K1FRUQwYMIBmzZohIpSVlbF7924OHz7s+/N/EzRt2pQhQ4ZgNpsJDAz0DikUFxezaNEiqqur8ff35+abb6Z9+/YYjUby8/MxmUx8//33nDt3jkGDBhEZGYlOp6OoqIhvvvmGoqIiBg8eTFlZGSkpKdxzzz3k5OSwfv16AEaMGEHTpk354IMPCAsLY8SIETRq1AiDwUBpaSnbtm3j+PHjtG/fnqFDh6LX6xER8vPzWbx4sbecGzdu7J372L9/P2lpaXXy17VrV2688Ua+/fZbRIR+/fqxcOFCLl++TKNGjbj33nvZtWsX+/btY8SIEURHR2O321m3bh3x8fF06tQJnU5HRUUFJ06cYNOmTSQmJtK/f38WL17MLbfcgslkYvfu3cTFxREVFcXq1au5dOkSY8eOpXHjxly+fJl7773XW4fy8vK48847iYyMxGw2U1FRwa5duzh8+DB9+vShbdu2bN26lZMnT5KQkECvXr04efIk27Zt48Ybb+Smm27CaDTicrk4fvw469ato1GjRgwYMIBWrVoBUFZWxr59++qVx2+B4OBgBg8eTGBgIPPmzSMyMpIxY8aQnp7Orl276NChA7179+bEiRN8++23DBw4kA4dOqCqKkVFRVRWVmI2m9m6dSsVFRUMHTqUxo0bIyJkZWWxfv16kpKS6NChAx9//DHV1dXe0ZAvv/ySyMhIEhMTve7ebdq0ITU1lezsbLp06UL37t2985C9e/emS5cuXkV34sQJUlNTsdbaScMzF2+xWNiyZQs5OTnceeedNG7cGH9/f+/Izp49e4iNjaV///6EhIRgs9koLCzEYDBQUlJCbm4unTp1Yv/+/ezbt4/WrVvTt29fioqKWL16NcHBwfTv35/g4GC++OIL7rjjDq8FPnr0aPbt28fevXvR6XT86U9/orCwkI0bN6LT6ejfv7+3U3TXXXfRsWNHRo0axcaNG2u9mf8Or1eGJv+9NG3aVHr37v2bdTPXpGHL8OHDZdu2bTJnzhzB7dmYlZUlZ8+e9XrBaaLJ/4Xcfvvtsn37dnnzzTdFp9NJTEyMWK1W2b59u7Rs2bJe+v9C6gVoookm15j4+fnJypUrpbq6WjIyMqSgoEBOnTolvXr1qpdWE01+TVEURZYvXy4ul0tOnjwpubm5cujQoV9sp6KfNTyooaHx20VRFFT3BrwigtPpvKJzj4bGr42qql7B7VH5S9VFTWlpaGhoaFwz/CregxoaGhoaGr8GmtLS0NDQ0Lhm+H/8JWHddgBBWwAAAABJRU5ErkJggg==;" parent="1" vertex="1">
          <mxGeometry x="592.75" y="70" width="429" height="63" as="geometry" />
        </mxCell>
        <mxCell id="mHcwm586ggzmoPCYp2Yr-19" value="" style="shape=flexArrow;endArrow=classic;html=1;rounded=0;fillColor=#d5e8d4;strokeColor=#82b366;" parent="1" edge="1">
          <mxGeometry width="50" height="50" relative="1" as="geometry">
            <mxPoint x="806.5" y="193.5" as="sourcePoint" />
            <mxPoint x="806.5" y="143.5" as="targetPoint" />
          </mxGeometry>
        </mxCell>
        <mxCell id="EHseI85RQIlLHPia8TzY-1" value="" style="shape=image;verticalLabelPosition=bottom;labelBackgroundColor=default;verticalAlign=top;aspect=fixed;imageAspect=0;image=data:image/png,iVBORw0KGgoAAAANSUhEUgAAAgAAAAIACAYAAAD0eNT6AAAAAXNSR0IArs4c6QAAIABJREFUeAHtnQfYNUV59/90VMAuIFhQsCBqjIForBErBo0iGhUxGsUSY/tssZd8iom9RSBiQ0Vj7z2Chc+oWAgqBCsKIkWqoCB+5/Y9533Pc56zc2Z2ZndnZn97Xc/1nLM7O3PP777PzH/LzEhsEBiewO6SHijp+ZLeI+nrkn4k6QxJF0r6I38wIAZGGQO/k/RTSe+UdM/hmyosgAAEYglsJ+nBko6U9DMa9lE27Ig6hG2bGPgvSbvGNkCcDwEI9EtgM0l3lvQ2SRfQ6dPpEwPEQMsYOE3SzfttvigNAhBoQ2BzSftL+mbLH3ubqwTO4eqSGKg7Bn4t6WZtGiTOgQAE+iFwP0kn0vFzpUcMEAMdxMDpk3eGbtxPU0YpEICAL4FdJL2/gx88V3V1X9XhX/wbGgO/knQT34aJdBCAQLcEniDpIjp/rviIAWKgpxj4uaTdum3WyB0CEHAR2H6ixI/u6QcfepVAeq4siYG6Y8BGEyECXC00xyDQEYGbSjqZzp8rPmKAGBgwBk5hiGBHLTzZQqCBwK0l2Ru5XGHBgBggBoaOAbsQuXZDW8VuCEAgIYE7STqPzh/xQwwQAxnFwEmSdk7YzpEVBCCwQGAfpuml0c+o0R/6ypPy87r78QNJOy60WXyFAAQSENiD2/50/nT+xEDmMfBdSVdP0N6RBQQgMCWwE/P30/Bn3vBzNZ7X1fiQ/rAZSK9C6w0BCMQTsGl9P0vjjwAgBoiBgmLgW5KuGt/8kQMExk3g2QX96Ie86qBsrkCJgbxi4GuSbK4SNghAoAWBvSVd2qEAuFzS9yS9erpU8J9LuoakK7SwlVMgAIEyCPS5SNixkq5UBhashEA+BOzWf1c/1LMkvVTSjfKpLpZAAAI9EeiqXWm6A/NFLip68izFVEPgsR1c+Z8v6VmStquGEhWBAARCCfQtAEwY2HtM24YaSnoIjJGAvTxzdmIB8AlJ1xkjTOoMAQisITCEADAR8ElJ26yxhC8QgMA6As9L2PlfNr3q32xdKeyAAATGSGAoAWAi4COTx49bjxE6dYaAD4ErJpzw53eSDvQplDQQgMBoCAwpAEwEfFDSVqOhTUUhEEDgSYmu/m30wP4B5ZIUAhAYB4GhBYCJgPdK2mIcuKklBPwJnJhIADzav0hSQgACIyKQgwAwEXAUImBEUUdVVxKwZX7thxH7d+TKkkgAAQiMlUAuAsDaubdJsiHPbBAYPQGbkCe28/8xw/xGH0cAgICLQE4CwNq7IyTxkrLLYxwbBYFfJBAAfzsKUlQSAhBoSyA3AWAi4E2IgLbu5LwaCNw4Qedv026yQQACEHARiBUAFyZoq5bd6Xyty2iOQaBmAilm/tuvZkDUDQIQSEIgVgA8UtIJHYkAewzKBoHRETg68gdlz/55jja6sKHCEAgmECsAbHjxTpJ+ENlmLbsLYPtsnRI2CIyKwEmRP6aXjIoWlYUABNoSSCEArOwdJX0/st1qEgEvbFs5zoNAaQRsVqzfR/6Q9imt0tgLAQgMQiCVADDjd5V0SmTb1SQCnjMIHQqFQM8EYl8AtFX+tuzZZoqDAATKJJBSABgBW2TsRx2JgH8uEzFWQ8CfgL2816SCffYf418UKSEAgZETSC0ADOdukn4W2Y41tXVPGbm/qH7lBA6K/OEcXjkfqgcBCKQj0IUAMOuuJ+mnkW3ZMhFwuaQnpKs+OUEgLwKxQwCfn1d1sAYCEMiYQFcCwKp8I0mndSQCHpMxU0yDQGsCT4/8wTy5dcmcCAEIjI1AlwLAWCICxhZR1DeKwAsiBQDKOAo/J0NgVAS6FgAG82aSfh3Zri17HPCHyQuHDxuVt6hs9QRszOuyYPfdd0j1hKggBCCQikAfAsBsvYWkMyPbtmVt4GWSHpoKBvlAYGgCCIChPUD5EBgPgb4EgBG95eQFvrM6EgF/Nx6XUdOaCSAAavYudYNAXgT6FABW81tJOrsDEWCTp7H6aV6xhTUtCCAAWkDjFAhAoBWBvgWAGfnnks7pQAT8TpKtTcAGgWIJIACKdR2GQ6A4AkMIAIN0W0k2a+my5/ox+0wE3Ls4L2AwBKYEEACEAgQg0BeBoQSA1e92ki7oQARcIulefQGkHAikJIAASEmTvCAAAReBIQWA2XV7SRd2IAIukvTXropzDAI5EkAA5OgVbIJAnQSGFgBG9a6SLu5IBNypTrdRq1oJIABq9Sz1gkB+BHIQAEbl7h2JALu7cIf8sGMRBJYTQAAs58JeCEAgPYFcBIDV7J6S7Pl9zEuAy849V9I+6dGRIwSWE9hsuiSmBbQtX/kGSe+T9AlJX5JkP7qmv9jFM2wFrqa82Q8bYmDYGPiapA9IsjU7dlnefPS61+JhWafpuy/1sDsby29j+n3L901nww5tDgI2CHRC4IaSbB5+6+i7mPLSN9BJl77xgClMu4gBu9p9haRtO2mR/DLNTQCY1Q+QdGkHIsDa5Zv7YSEVBFYTuKqkx0k6roNg7aLBIU86MmIgvxiw9uMaq5ubTlLkKACsoja1r83znzpez5hcpO3ZCUkyHQ2BG0g6vKOXVlIHPPmlb0RgCtPUMfBtSVcboAXNVQAYioM6EgGnS7rxAKwpsnAC1vG/vaPbU6kbFPKjkyIGyooB64yv0nMbmbMAMBR/L8mW/U0dy7+QtHvPrCmuUAJbSXpSRxNWpA5s8kvfWMAUpn3FwLck2aPFvrbcBYBxeERHIuBUSXZRxwaBRgJ/JekHHSjQvhoUyqHzIgbKioGvStq+sUVKe8BGJcTExwFpzWnM7bGSLo+0dVk9fyLpuo2lcmC0BGwon1312+ISywKHfXAhBoiBrmLgK5MRAtv10Pp+NrJ9e3gPNs6KeHRHIsCGTl9vVgj/IXBlSR+O/GF01TCQL50OMTCOGPiipCt23BzbnAQx8fS0ju1bzN7mVYmxt+nckyTtvFgY38dHYEdJx3cUZE3Bx/5uftRwhWvpMWBX6F3OE/C2yLbusAG6iGdE2twUE9+XZO0/20gJXF/SyR0FV1PQsZ9OihggBlwx8ElJ23TUJr84sr2z9xWG2J4TaXcT7xMkXXOIClHmsAR2lfTzjoKqKdjYT8NPDBADPjHwUUlbd9BEPjSyzbN3pLp+TNFU7RdE2t7E/TuSrt5UKPvrI2DDbv6no2BqCjL20/ATA8RASAx8UJINSU657Z2g3btXSoMC8/qXBPYv84ENx+x7TobAqpM8BQF7vvbljoJoWWCxj0afGCAG2saArTWyZYqGb5rHDgnG2L8zoT1tsnp5R+331yXZC+FsFRN4Y0fB0/YHznl0DsQAMeCKgXdL2iJhm2xXu67yVh27oOfJi5ZV/ZWRdWiqY59zMiyrF/s6JHD/joKmKZjYH9fQwA9+xMCGGDg6oQhI0XnaS3lDb//aUXtuIqCPORmG5jeq8q8jydaI7rJBsdWs7DbSayXZTFb3lHQHSbfmDwbEQJUxcGzHbcp8e/UWSZsnaLX/JoHNttTuEIsZzVffJm97U4K6zDOefe5jTob5uvC5YwL2Qs3Muan/2zsFNn81L5F07ESyh0BmBOxt/dTtiSu/N0uyji9mu1KidU7eEGNEonONxREd+aDrORkSISCbVQTsStz1o2p77NOSbruqcI5DAALVEuhbAFhbZR1vrAiwF/natnuz82zVvjtn4Fm7K/LWBPWZ1Wv+f5dzMmSArn4TbCxt6sl+TpPU16IY9XuIGkKgXAJDCADroF4dieweiTpMW2b3WpG2pDjdXpJMIWrmO//Z567mZEhRb/JYQeBRiQJ9FgyfzyTgV1SbwxCAQA8EhhIA1h7ZS3BtN+swbXncWbsW8/+/JdljhaE3q9N7EtVpkYetoZB6ToaheVVfvgVEyqt/e9ZkebJBAAIQMAJDCgDrpP5vhBuemrCztJfm+lrS2FVlmzPhPxPWa14IvJf234U+v2MPTBgIr0/w3C0/QlgEAQjEEBhaAFgH9cKWFbChbmclbCNtBFQOK+zZlfqHEtZrXgQchQhoGW0DnJZqxj9TfimG3wyAgCIhAIEOCeQgAKyDajsuP/X8+qdLukuHvH2ztne/PtaRCLAVFekPfD0xULrdJF2eIABszYArDFQHioUABPImkIsAMBFgy+aGbnYXINW7ALMrZWt3bc6Ca4Qakzi9rahob/HP7Er53x4Hx47ESFxdspsn8LwEjreVr24+nymfIQABCMwRyEkAWAf3lDnbfD8+KEFbuaxztSmDbd5+W3l1qM3WfrHx/Mvsi91nkxAhAoby7IpyT0zg9ENXlMFhCEBg3ARyEwB29f2EFi75QoL2sqlDtRlSbc6Ux0nao4VtsafYHdyu6mezvrJlRuDaCYL5DOaDzsyrmAOB/AjECoAUjykXO17L06YiD9mu38NU6TM7z5tOmW6zs75j8uLgYT382ct7XbC2Or0iBDRpuyfw0AQC4Lndm0kJEIBA4QRiBYCtb/+TBO3VrHOd/W8jAlgsrf2jAkRARj/k2Lmh7dn/1TOqD6ZAAAJ5EogVAIdMZrC7oSSbUW/Weaf6b1P1PjwQG8ult/dD2+GYgS4i+SoC3438MX14VQEchwAEIJBgIiATALbdSJJNMZ6q85/lY8/fHzItw+efjaH/VAd2zOyp/X+o4PLxCWkCCNj4zIsiA/hhAeWRFAIQGC+BFHcAZvRuOnl2/6vItmtZB3upJJsUzXezoYE2ve+yvNjn5nKhpB19QZMuPYHrJgjc66Q3ixwhAIEKCaQUAIZnL0m/TtCGLXbUv5dkz/h9N1vg54QO7Fi0q8bvMdMz+/qHdA0E7hoZtDYpBhsEIAABHwKpBYCVecvEU/TOOll7t+k+PpWaprmapOMi29NZ2WP6/50AxiRNTODBkQFr40XZIAABCPgQ6EIAWLm36mhY3iWT2/v7+VRsmsZW+eOdAPdt/0Vxc34AX5ImJvDoSAFgIwjYIAABCPgQ6EoAWNl/IencyPZssXOy7xdLurtP5aZpbAVUu63d1Tj6ZTaWvM84sQ1EIHaJS8ZzDuQ4ioVAgQS6FACG4zaT6X1t4pzUHeJvWyzas+9kNj+bIC21LTXmV2Ao12Fy7BoAL64DA7WAAAR6INC1ALAq3E6SzaufuqO0N9bvFMjIlvt9Twe2pK7b0PkFYiV5KgI2GUOM85nMIZUnyAcC9RPoQwAYxTtKsg47pm1bdq4JCxMYoZs9Qji5A3uW2VjivlCepE9EAAGQCCTZQAACKwn0JQDMkDt0JAJMWFjeoZvNuXKgpB8iBNYJs1CWpE9EAAGQCCTZQAACKwn0KQDMmLtNX+JLfVVsLxvaS4dtNntJ0GYbPIYXBTcKgTYcOScBAQRAAohkAQEIeBHoWwCYUfeSZMP5UouAc6bDD70q3pDoBpP91gZ/b+RioAEPu7smgADomjD5QwACMwJDCAAre39JNrFPahFwlqRbzCoX+d+mxLV5WWy5X5tQyARGantzzS8SHae3JYAAaEuO8yAAgVACQwkAs/NvJdkUv6k7QZuK+GahIDzT2xTD+0iyGVsPmK5WaAsi5fYXy9QTB8lSE0AApCZKfhCAQBOBIQWA2WTz+9tiP7Ed1uL5Nt5/z6ZKj2D/Io/Q7yNAlGcVEQB5+gWrIFAjgaEFgDF9QEciwFYmtBUKx7iFdviL6cfILIs6IwCycANGQGAUBHIQAAbalvu9rIM7AbY42g1H4cm1lVzs0EO/r82Nb70RQAD0hpqCIDB6ArkIAHPEwyX9oQMR8HNJu43M06Ed/mL6keHKp7oIgHx8gSUQqJ1ATgLAWD+yIxHwM0nXr92Zc/Vb7NBDv89lxcc+CSAA+qRNWRAYN4HcBIB541EdjcH/X0m7jMTdoR3+YvqRYMqvmgiA/HyCRRColUCOAsBYP7GDRwHWydn8/9eu1Zlz9Vrs0EO/z2XFxz4JIAD6pE1ZEBg3gVwFgHnlyR2JAJv731YFrHkL7fAX09fMJuu6IQCydg/GQaAqAjkLAAP91I5EwA8k2Ux/tW6LHXro91q5ZF8vBED2LsJACFRDIHcBYKCf1pEI+K6kq1fjybUVCe3wF9OvzY1vvRFAAPSGmoIgMHoCH4zsXB/fE8EXRdq52MHNvn9T0lV6qkOfxczq1/Z/n7ZS1hwBBMAcDD5CAAKdEnhHZMf69E6tW5v5v0Ta2tQZHi/pqmuLKv5bU1199xcPoNQKIABK9Rx2Q6A8Am+M7FRf1nOV/zXS3qYO8GuStu+5Ll0W11RP3/1d2kbeDgIIAAccDkEAAkkJvDyyQ31fUmv8Mjs00uamTvCrkrbzMyH7VE119N2ffQVrNRABUKtnqRcE8iMQO9TuhAGqtNnk5b3XdyQC/kvSFQeoU+oifTv6pnSp7SE/TwIIAE9QJIMABKIJ7BfZkdrc/UO8SW8iIPbxRVPn9zlJV4gmO2wGTXXz3T+s9SMuHQEwYudTdQj0TMBWyvPtFJrS3b9nm2fFmQj4jwT2L6vXpyRtMyuowP/L6hSyr8Aq12EyAqAOP1ILCJRAYAtJF0d2ou8dsKKbTxb5eVuk/U0d48ckbT1g3WKKbqqT7/6Ysjk3ggACIAIep0IAAsEEvhTZgf5W0tWCS013gomYoyLr0NQxfkjSVulM7S2npvr47u/NUApaSwABsJYH3yAAgW4JxLY51qk8t1sTV+ZuIuBdHYmAD0jacqUFeSXw7eib0uVVmxFZE/tjtPPZIAABCPgSuFOCjvPXkq7sW2BH6ayTfn+CuizrFN8jyURGKduyOoTsK6We1dmJAKjOpVQIAlkTsJfdzk3Qcb4qg1ra7foPJ6jLss7ynZLsnYMStmX2h+wroY5V2ogAqNKtVAoCWRM4IkGn+XtJ+2RQS3tx7+MJ6rOswzyyEBGwzPaQfRm4cZwmIADG6XdqDYEhCdw5UYd5SgaPAoyj3dX4dKI6LXach0uyIYg5b4s2h37PuW5V24YAqNq9VA4CWRKwW9s/TdRh2kQ6OQyfs8l8zJbQzs8nvU1ClLMI8KmDK02WQToGoxAAY/AydYRAfgRipwWe71BsboAchs/ZtL42ve+8bak+vyY/F260KLaOGzPiQ78EEAD98qY0CEBgA4ErSTozYWdpz+Etz6E3s+HYhPWa71xfMXTlGsqft7HN54Zs2d01AQRA14TJHwIQaCLw/MQd5YmSbtJUWI/7balfW+2vTWe46py+l0T2wbbK5lXHfcogTQcEEAAdQCVLCEDAi4B1lL9M3FHaTIHWrg09t/4Okv5f4rrNOtIXedHtL9HMrrb/+7OUktYQQACswcEXCECgZwIP7aiTtBECjxj43YCrSPpmR/UbejbE+TBp2/HPzpvPi889EkAA9AiboiAAgXUE7O32YzrqJK2DOUOSTRp0+4HEgK1b8O2O6vfMdTSH2THryNv+H8ZqSv3TrbK2TrPzTECwQQACEIghcCNJF3TUSc63b1aGiY3DpusJPEnSIT38PVuSTVw0b0uqz0+NAZ/o3Ni6JDKDbEIJcAcglBjpIQCBLgg8vKMOMrZzKuH8p3fhkIA8YxkFFEXSlAQQAClpkhcEIBBD4O2IgFZ3CS6fPOp4XAz4yHMRAJEAhzodATAUecqFAAQWCdhsel9GBLQWAQcuAu3pOwKgJ9Cpi0EApCZKfhCAQAyBq0v6ASKglQg4T9K1YuC3PBcB0BLc0KchAIb2AOVDAAKLBK4n6eeIgFYiYIjZAhEAixFcyHcEQCGOwkwIjIzAtSWdgAgIFgEmnPpeOAgBUOiPEwFQqOMwGwIjIHBNSd9ABASLgB17jg0EQM/AUxWHAEhFknwgAIEuCGwn6ShEQJAIuEUXjnDkiQBwwMn5EAIgZ+9gGwQgMCNwsCSb5z+2sxnD+beeQevpfyzTnsykmEUCCIBFInyHAARyJWBXtl0tsBPbieV0PgIg1wjOzC4EQGYOwRwIQMBJwF5ws7sBZ3E3oPFuCALAGUIcnBFAAMxI8B8CECiJgL0g+DJJ5yME1gkBBEBJkTygrQiAAeFTNAQgEE3AJg56saTTEQIbhQACIDqsxpEBAmAcfqaWEKidwJaTIYP3lvQ+SRePXAwgAGqP9kT1QwAkAkk2EIBANgS2nawpsK+kl05fGrxoZIIAAZBNKOZtCAIgb/9gHQQgEE/AXhy06YXvPnlU8JjJHYJnTsXB6yQdluHfmZGCBQEQHzOjyAEBMAo3U0kIQKAgAt9EABTkrYJNRQAU7DxMhwAEqiSAAKjSrflVCgGQn0+wCAIQGDcBBMC4/d9b7REAvaGmIAhAAAJeBBAAXphIFEsAARBLkPMhAAEIpCWAAEjLk9waCCAAGsCwGwIQgMBABBAAA4EfW7EIgLF5nPpCAAK5E0AA5O6hSuxDAFTiSKoBAQhUQwABUI0r864IAiBv/2AdBCAwPgIIgPH5fJAaIwAGwU6hEIAABBoJIAAa0XAgJQEEQEqa5AUBCEAgngACIJ4hOXgQQAB4QCIJBCAAgR4JIAB6hD3mohAAY/Y+dYcABHIkgADI0SsV2oQAqNCpVAkCECiaAAKgaPeVYzwCoBxfYSkEIDAOAgiAcfh58FoiAAZ3AQZAAAIQWEMAAbAGB1+6IoAA6Ios+UIAAhBoRwAB0I4bZwUSQAAEAiM5BCAAgY4JIAA6Bkz2GwggAIgECEAAAnkRQADk5Y9qrUEAVOtaKgYBCBRKAAFQqONKMxsBUJrHsBcCEKidAAKgdg9nUj8EQCaOwAwIQAACUwIIAEKhFwIIgF4wUwgEIAABbwIIAG9UJIwhgACIoce5EIAABNITQACkZ0qOSwggAJZAYRcEIACBAQkgAAaEP6aiEQBj8jZ1hQAESiCAACjBSxXYiACowIlUAQIQqIoAAqAqd+ZbGQRAvr7BMghAYJwEEADj9HvvtUYA9I6cAiEAAQg4CSAAnHg4mIoAAiAVSfKBAAQgkIYAAiANR3JZQQABsAIQhyEAAQj0TAAB0DPwsRaHABir56k3BCCQKwEEQK6eqcwuBEBlDqU6EIBA8QQQAMW7sIwKIADK8BNWQgAC4yGAABiPrwetKQJgUPwUDgEIQGAdAQTAOiTs6IIAAqALquQJAQhAoD0BBEB7dpwZQAABEACLpBCAAAR6IIAA6AEyRUgIAKIAAhCAQF4EEAB5+aNaaxAA1bqWikEAAoUSQAAU6rjSzEYAlOYx7IUABGongACo3cOZ1A8BkIkjMAMCEIDAlAACgFDohQACoBfMFAIBCEDAmwACwBsVCWMIIABi6HEuBCAAgfQEEADpmZLjEgIIgCVQ2AUBCEBgQAIIgAHhj6loBMCYvE1dIQCBEgggAErwUgU2IgAqcCJVgAAEqiKAAKjKnflWBgGQr2+wDAIQGCcBBMA4/d57rREAvSOnQAhAAAJOAggAJx4OpiKAAEhFknwgAAEIpCGAAEjDkVxWEEAArADEYQhAAAI9E0AA9Ax8rMUhAMbqeeoNAQjkSgABkKtnKrMLAVCZQ6kOBCBQPAEEQPEuLKMCCIAy/ISVEIDAeAggAMbj60FrigAYFD+FQwACEFhHAAGwDgk7uiCAAOiCKnlCAAIQaE8AAdCeHWcGEEAABMAiKQQgAIEeCCAAeoB8RUl3lvRYSa+W9FZJ7xvZ34mS/hjxZ4F6GH8wIAaSxcDrJL1M0pMl7Sdptx7aQorIiwACoCN/XEPSEyUdI+l3ER1fTKfJuXGiA37wG1sM/Hx6gWKCYIuO2kayzYcAAiCxL24yUdJvp9OPutofW6NLfREaOcbAaZKeLWmHxG0k2eVDAAGQyBdXk3SEpD9wtU/nTwwQAxXFwDmSniRpy0RtJdnkQwABkMAX95V0ZkU/+ByvRrCJq2RiYNgY+PbkvaU9E7SXZJEPAQRAhC/sGdkrJF1O588VHzFADIwgBi6UdFBEm8mpeRFAALT0x9aSjh7BD56rrmGvuuAP/9xiwC54bFgvW/kEEAAtfGjPwj5C588VHzFADIw4Bl7cou3klLwIIABa+OM/Rvyjz+1qBHu4QiYGhouBx7doPzklHwIIgEBfWMDT4MCAGCAGiAHpMkl3CWxDSZ4PAQRAgC/2knQxAgABRAwQA8TAxhg4VZINg2YrjwACwNNnm02m8/0SP/qNP3qufrgCJgaIgVkMvNmzHSVZXgQQAJ7+sKEvs2DnPyyIAWKAGNgUAzYB2q0921KS5UMAAeDhi80lxS5mQ2OxqbGABSyIgfpi4KMebSlJ8iKAAPDwx/25+ufuBzFADBADzhiw+QFu7tGekiQfAggAD198gh++84fP1Vx9V3P4FJ+2iYHXeLSnJMmHAAJghS+uJenShALgBEk2gcbDJo8VDuQPBsQAMTBQDBws6VBJJyds337FokErepS8DiMAVvjjIYl+HGdJeqAkG03ABgEIQCAXAvaO099LOj9RW3ebXCqGHSsJIABWILIlftvcCps/53RJN1pRDochAAEIDEnglpNlf3+ToL375yErQdlBBBAAK3AdH/mDsOExd1hRBochAAEI5EDgfpHtnV34fCiHimCDFwEEgAOT3a635S/nr+ZDP7/XkT+HIAABCORGIHbCs+/nViHsaSSAAGhEI9kLgKEd/mL6uzvy5xAEIACB3AjY+wCL7VjI90tyqxD2NBJAADSikXaP/CHYuNhtHflzCAIQgEBuBG4Q2e6ZWLhCbpXCnqUEEABLsWzY+WeRP4SzHXlzCAIQgECOBOyiJeSKf1lau3vKlj8BBIDDRza39bLg9t33S0feHIIABCCQKwHfNq4p3bVzrRh2rSGAAFiDY+0XBMBaHnyDAATGQaCpY/fdjwAoI04QAA4/IQAccDgEAQhUS8C3o29KhwAoIzQQAA4/IQAccDgEAQhUS6CpY/fdjwAoIzQQAA4/IQAccDgEAQhUS8C3o29KhwAoIzQQAA4/IQAccDgEAQhUS6CpY/fdjwAoIzQQAA4/IQAccDgEAQhUS8C3o29KhwAoIzQQAA4/IQBFkO2vAAAgAElEQVQccDgEAQhUS6CpY/fdjwAoIzQQAA4/IQAccDgEAQhUS8C3o29KhwAoIzQQAA4/IQAccDgEAQhUS6CpY/fdjwAoIzQQAA4/IQAccDgEAQhUS8C3o29KhwAoIzQQAA4/IQAccDgEAQhUS6CpY/fdjwAoIzQQAA4/IQAccDgEAQhUS8C3o29KhwAoIzQQAA4/IQAccDgEAQhUS6CpY/fdjwAoIzQQAA4/IQAccDgEAQhUS8C3o29KhwAoIzQQAA4/IQAccDgEAQhUS6CpY/fdjwAoIzQQAA4/IQAccDgEAQhUS8C3o29KhwAoIzQQAA4/IQAccDgEAQhUS6CpY/fdjwAoIzQQAA4/IQAccDgEAQhUS8C3o29KhwAoIzQQAA4/IQAccDgEAQhUS6CpY/fdjwAoIzQQAA4/IQAccDgEAQhUS8C3o29KhwAoIzQQAA4/IQAccDgEAQhUS6CpY/fdjwAoIzQQAA4/IQAccDgEAQhUS8C3o29KhwAoIzQQAA4/IQAccDo6tJmkm0q6n6RnSPoPSZ+RdNxk33cl/Wj6d6Kkb0j6nKSPSHq9pCdN9t1b0k0kbdGRfX1ku62kvSUdKOkpkg6V9CpJh0l67fT7c6b1va+kW0q6Sh+GUcZoCDR17L77EQBlhAoCwOEnBIADTsJD15P0eEnvm/z/tSTfRsaV7mxJ75f0OEm7J7S1i6xMrNxZ0r9K+rak37dk8LMpw/8zFRAmprrczG4TXiZMQv4O7tKohHmbuAqpl6V9ZsLyh8zK9dvyOYYAGNJ7/mUjABysEAAOOJGHtpNkHcEXJf2hZYfn0xDN0vy3pH+SdI1Iu1OevuvkTsVLJP2io/qfKumNU3HRlRh4TwvbT5e0ZUqQHeVld5xm8eP738RXDZtvfZvSIQDKiAIEgMNPCAAHnJaHrizp+ZPb179p0bg2NTYh+383uSNwlKQ9Wtqf4rQdJ0LkDZIu6ZHBDyQ9UZLxT7nZnYsQ/rO090lpRAd5/UWLepk/cxKYMVhmfmr7HwEQQ7+/cxEADtYIAAecwEP2XPvZk6twuzXftlFJed6l0/cLrhtYj5jkdhX+6ElHfM6ADM6dCrDtYyoyd67VycRFqG8+PJdHjh/tzklonUxY1rKF1n0xPQKgjEhAADj8hABwwAk49NeSTmrRoC42Kl18v3D6ol3XLw3uMH0noYs6tMnzzOlLhCnqbS8qhtpgAmyngBjqM6mJ1TYi7Q59GtlxWaH+XEyPAOjYQYmyRwA4QCIAHHA8Dl1J0lsmV5yXt+ggFhuUrr/biIKbe9SpTZKdJX0vUwbWANyqTaXmzrnaZMTGb1vUz0Z55Lg9uEVd/ifHikTYFPt7QwBEwO/xVASAAzYCwAFnxaEbSzqhRUMa2/DEnH+RpINW1Cv0sHX+/5s5B7saf1Hk0Mm3t6ijPTrIcbOhpaFxZC+Y1rSF1n8xPQKgjGhAADj8hABwwHEc2n9yW/28Fo3oYiMy1PfXSdrKUT/fQ1eQZKMPhqpHaLmfl3Qt38otpPurlvW83UI+Q3+1Iamho1JMONY2D0No7CymRwAMHcl+5SMAHJwQAA44DYceIsmuKBcbhNK+f2IyLv+KDXX03f3vBXL4im/llqRr85jDJnrKaXtBC58dmVMFEtkS+3tFACRyRMfZIAAcgBEADjhLDv2DpMtaNKCxjU1X5391MvPeVZfU02fXvoW8+zDPzq587+hTuYY0/9jC9xdIsjkhctg2l/STFnX4yxyMT2zDfFy0+YwASOyQjrJDADjAIgAccBYO/V2HHZ7NDnjs5CW9D0iyZ812xWWz/Nmz2h92KDrs5UWbDS50s47kOy06ksWG1u6k2GQ0n5RkE+7YTHNHS/rodMZAG8GweE7Md5uJMGazOQba2PTImEITnmuiLZSfzdxY4xbKYTE9AqCMqEAAOPyEAHDAmTt0p8ST2pwx7eweMJnJ7ppz5TR9tGftNnGLTcNqt7BT3YWw28Fttge26EhmDahNJvOuST3u6vkIwqY5tg7UzrGr6Vk+of9NaGzTprIL5xzRwoaYxw4LxUd9tXH8odweE1VivieHclhMjwDI17fzliEA5mksfEYALABZ8vVGLcdMLzYY9t2u8g+QtPWSckJ27TLJ46WRkw5ZZ9B2+lzr0JbVb9W+YyTdIKSiC2ntnYWHSrJ8VpU1f9xER6ohkG1m0LM7LTZqZMjNXuILHcp4vqRUEyoNWfdlZc/HR5vPCIBlVPPbhwBw+AQB4IAz7ahjA8gaF7v6vIe7qFZHbR4Cm3Y49La0deBtr4b3DOx8Z42rzTxnjw5SbTa23+4K+LzR/rRUhU7zaRMTL09sQ2h2j23htzeHFlJQ+llctv2PACjD2W1+q/MxYX1kn9t82W0+B9mKAHDjska7jRNm59i8/NZBpxhy57LUGiN7dj4r1/Xflhv2eezQVN7TPcuZt+FtEXcbmuyY7d9r+s7AfHnzn7+UWHhYuY9qweC0gRcIajNcM3YCpZmPcvw/HyNtPiMAcvTqepsQAOuZbNyDANiIYt0HG7/tc3XZ1Hj8avISX99jwO8nycptsskWKLrpupqG7fi0I/9l5dpKgKkX6Flm8X6STNzM22DrAti499SbvdXfZh6IoRYIsscf81x8Pn89NbTM8vNh4EqDAMjMoQ3mIAAawNhuBMByOHarOiZwTp68yd/nIjzztbD55+2qd7Hx+v30xbv5tG0+/3JJ3otlzX9v+6JhG9vsZclXz43WsOWYu9raLKYz1AJBrwr0mfnvEV2ByyTf+Rht8xkBkIkjV5gR045bXPAIwNF4WGdQ42ZvnbdpFOycH0/WB7jOwFBsLfpXLNThkAQ22QthoVyGuI18t+lyxAmq3JjFLVqwMBFmSyX3udkLpzbMNMRvdqcodpKoPuvYpqwQHsvSIgDaUO//HASAgzl3ANbDsavI0wMbzFkDYSus2aiBXDabv90eY5gYSLFdvwWXthMNpbC36zy+1oKHvUPR53b/FjbaVNG1b7PfbNv/CIAyIgQB4PATAmA9HBv33KZRsLH5duWZ23b7hC/BtXmWHDvkMTee8/bYI4bQWPn+fAY9fP54Cxtv1oNdQxcR6rfF9AiAoT3oVz4CwMEJAbAWjj37t5n3Fn/sPt9jZ5lba0me327Zgk0XL+HlQsfuFp3dgoktLNTHZp1U6LoVX+7DsAzK8PlNu9IgADJwoocJCAAHJATAWji2yp/rR9907CRJ267NqspvNitfE4Om/fesksSmStlLh011b9rf1wJBz2phW+rlojeRyutTk2989yMA8vJnkzUIgCYyjAJYR8bm4vdtAObT/e26nOrcYS+wzdfb5/Mb6kSxsVY3mRt14MPD0tgMe10vEGSzPJow9bXJ0p01EiFrzgvhsiwtAmDjTyDrDwgAh3u4A7AJjk2VenGLhsFeBBvLZp1K6KyDtpb8HpUDWjbsclmnMb+v62F29u7HfHk+n1O9LFqCu314uNIgAErwctxwbvO/9ZF9bq6Y8zkWZCsCYBOutkP/bG7/MW22OpxPIM6nsVnoah4NYCtFztfX53PXz9rfEmiTrVeQ0wiWrn9TPj5ypUEAdO2hNPlzB8DBEQGwCY5N0uL6wS87durA07tusr6/TzY//DIWq/bZ2+8xCwH1V8PwkmxdhdCx9l12uPZ4IXTlxC+EV7voM1bF66rjCIAy3I8AcPgJAbABjt3atuefq370i8fH8Ob/Yvg8qAWnGTdbje5fenj+vWhzH9/brBtxaEeG2eOFGXPf/7bE85g2Xy5N6RAAZUQLAsDhJwTABjg27rnph+7a39dwLocLez9kswGGvgewyNDElk1PG7suQe+VdxR4wxZrR3S1QJA9Xlhk7vpu60fUPF/DMre5ePgcQwAso5rfPgSAwycIgA1wbJpcnx/9fBob/51yeVuHm7I79PYWvObZzX+2lyhtuV4bYlj69tkWXGzoacrNnuPb44V5xqs+vzSlAYXktYrJquMIgDIcjQBw+AkBsAFOm8VSPuHgWvuhPVtc7a5qUO34CZNhaHZbfN9Ch6O1mXb3Q4mD5WWBnb9NFb1bYhtKyM4nHl1pEAAleJlRAE4vIQA24PloYKNpDcPznGTrP3hkC2auBnXxmA0ftKWH/48kExwlbFtJstv6i3VxfU+5QJAtAhW6WuOnSgDbgY0un/gcQwB04JQOsuQOgAMqAmADnBMDG21rIA50cB3DIZs34RctuPk0rsvS2CqLNqmQzSyY86yLL2nBxB6BpNju3aLssUxitch3WYyF7EMALBLN8zsCwOEXBMAGOOe1aDiN3dg3YxA63CykkW1Ka3cH3iPJOjy76s1pu64kWxiqyfZl+02ApthCZ7I0AZcbvxQcfPJY5oeQfQgAH8rDp0EAOHyAAJBsCKA9Bw358VvanR1cx3ToLtOpbUP5pUpvb7C/RpItVJTL1mYFvttGGn9NSb8LjOMXRpZZ8umx8YcAKMP7CACHnxAAkq3o1qYx2MHBdWyHbiXpZy05tmG/7Bx7893e5cjhzszftGBxRGTQPCWwTLtLsWtkmSWfviyGQvYhAMrwPgLA4ScEgHSNwIZz1khs4eA6xkNXl9RmNsUZz1T/Z0JgyDsCFhuhgsgWCLpSROB8LzCOPxJRVg2nxsYbAqCMKEAAOPyEAJCuFdhwzhoOe+ObbT0BGwr305ZMZ2xT/L9Uks3ON9QLgzZKJLQef78ep9eevVuUtZ9XzvUmCvXNYnoEQBmxgQBw+AkBsOGqa/HH7fPd3oJnW07AZpV7vKSftOiYfNiHpDleks3S1/dmHYSJkBBbj21p5JsCyzG/jHUSqxniEL8sS4sAmJHM+z8CwOEfBMCGhjB05jRrEMb8/NQRUmsO2a3w+06ey39M0iWBndSyRrftPluoZ681lvXz5YOBdbY4DF2Rz95h+U1gOc/up/pZl9I2lmbnIQCydu9G4xAAG1Gs/4AA2MCkzdz2Y1wHYH0E+e+xOyYHS7I35EPfVp81ujH/bbRA3zPe3T2wY7b62Ux+IdtDAsuwiYd2Cimg0rQxsWTnIgDKCAwEgMNPCIANcE4JbEStATjIwZVDbgImBmwipcN7fkxgL8rFvGjnrtX6o3abPTS2bCa/kLH5nw+M3f9cb+Yo9yAAxuF2BIDDzwiADXA+E9iIWuPR1VKuDndVe2gPSY+b3KZ//+TdAbtdH9s4u85/Y88Un9miPjaM0Ge7fos5LO7qk/EI0rhixOcYdwDKCBIEgMNPCIANcKxT8PnRz6c5xsGVQ+0J2MRMNve/CYKjJZ3Twjfzflr8bM/Z/7K9ecFn2iiT0Ece9u6Az2YT+SzWz/X9ZG2Y+Mon79rTuDj5HEMAlBEhCACHnxAAG+A8ObAhtQbCpqMdaoiZw6XVHbLhlnbVaiLNnuP7NM6r0tht8z43m7Z4lU3zx+05vQkH12aPF0KHW6Zac8BlVynH5nm3+YwAKMPTCACHnxAAG+DYNKxtGgGbi56tPwI2vNBeJAyd9GaZb2/Sn9n66xbxZasgura7BeZpdyFsumC2DQSWxUTIPgRAGZGEAHD4CQGwAY51LHZFH9IAWNrY6VsdruGQg4A9JrBJc85s4bOZj23Vvr42s/cHgbauWiDo3YH5vauvyhZSziwO2v5HAJThaASAw08IgE1wvhjYoFrDcW7Pb5VvspZPRsCmH/5cC7+Z777cM8LQufrNxts02HhVSRcH1vuODXmNdXfbjn92HgKgjMhBADj8hADYBOdZgQ3qrCF41KYs+DQAAbt7EzrhjvnOOtA+Z8O7mqTfBsaYDZNcttksi7P48/m/6m7CsjJq3+fDzZUGAVBGhCAAHH5CAGyCY5PEtJkR0G7tsjDQJo5DfLIr4jYvCPY9m+M7Ajvu8xruMH0jMJ8nDuGUzMt0de4+xxAAmTt4ah4CwOEnBMBaOMcFNqyzhuIRa7Ph2wAE2oy373M4oCGx2SNnMeP7/+ELLG8RmIfddTCBxLaWgC//pnQIgLU8c/2GAHB4BgGwFs4TAhvXWePwC0ksDrSWZd/fbMGfmT98/+/bt5EtRjAszjfx6sB6vnWAOpZQpG+MNKVDAJTgZQkB4PATAmAtnO1bLKwyayDesjYrvvVMwJ7n2/j5mT98/g8xjPMfA220x1I2U6Jt9r5D6MiHphcJp1mO9p9PfLjSIADKCB0EgMNPCID1cGwNedcPv+mYNdQPXp/d4Hts3LwNGevqPQUbT2/D3HLYzgj03RB3AK4sKXTxqZdO4R4QWL/v5OCUTG1o+h377kcAZOrYBbMQAAtA5r8iAOZpbPi8S4upW2eNhj1v3Xt9loPtefrci432Alrqt97tefQFU4Fhy9IOuVndQqfc3Wcgg23+iFnM+Py3R0wm4D4ReN5jB6pfCcX6cHelQQCU4GUeATi9hABYjueVgQ3tfENht2itYxxy20bSYUvqYMPKUl2t26xy81PRfn0yMZKJp6E2K3veDz6fbTGdIba/aGHrIZIuCzjPhJk90mJbTsAnPlxpEADLuea2lzsADo8gAJbDsRf6YlalMxFgjfwQm3WEX3N0FK9LYJQ9iz52SRlW7/skyL9NFo9ZYo+rAb+kw8ciPvaHNkyhcwiYAGRrJuCKDZ9jCIBmtjkdCf2dLfre+sg+t8XyQ78H2YoAaMYV2qEsOsoa7L7fCThQ0lkeHaG95xCz2Z2ExfrOvtu7ELZwT59Xn3b7P3Rs/NDPxx/tYDhjGfP/z2McPIJzY9jauQiAMoIEAeDwEwKgGY51KrZqXGxDYcOwuh4iuNPkTXGb6z3EVltKts32T57lnDoZ8nb/NgW0OKfNao6vbVFOylO2k2QT/YT4zDftf6c0tNK8fFk2pUMAlBEYCACHnxAADjjTZ9o+V9RNjcRs/y8l/YOkLd3FBR+1Z/3W+dmaBLOyQv4/I7BEW5b30sCybK7+LifcuW+Ll/+M0f6Bde8iud0pCfGXb9pHdmFsZXn6smxKhwAoIyAQAA4/IQAccKaH7jf3Jn1TY+C7/4eTcdw2Djz2joDNK29rF5yWoAOxK3qfbXdJZ0eU9zFJJiBSjUSwt+JtitvQsf/mKxN19h7D0FvorH4+ccYCVX5e9WHpSoMA8OM8dCoEgMMDCAAHnLlDz47o+JY1Irb08IcnLxraoi57eXRGNpWrTSNra8TbqoWhV+HLbJjt+5JHp7yDpO8nYvDjCVd7/GB3BdrMTbDtxJYHSrJn+LM6hP4f+vb/XGg5X9gMrZelf/185nxuJNCG7fw5CIBGtFkdQAA43IEAcMBZOLRsWN18gxDz2Tr0kyTZUDq7Zf5ZSV+ddnJtFrnxtcWWxLVn0au2V0V0ti5b7GrVxra/YnI3w4a53V2SxaRNLnSD6Qx49n2/yep9Ntf/0REzNc7ssLf/r7Oqwj0et7n+Z7al+G+Ckm01gVjWCIDVjHNIgQBweAEB4ICzcMie3783cWMd2wjFnP+VgDf1TSTYHYuY8nI51+bSz2mzCZTOScTWfMrmRyA2HhEAfpyHToUAcHgAAeCAs+SQ3bLu8k5AbKPke/4nAzr/GQabQMhu3fuWkWO6n7So96z+Xf5/TSKuB3VpZGV5x8YnAqCMgEAAOPyEAHDAaThkHaHNzW7j3WMbkSHO/zePZ/4NVf/T7od1OHytSx526/92rooNeOymCeLJXmy09yPY/AjExhoCwI/z0KkQAA4PIAAccFYcsjHubYffxTY+bc63qWEfsaJOvodtCl17ebCNHUOcY2It96vjWJ42fTWbP4HYOEQA+LMeMiUCwEEfAeCA43HIhsbFBlhsQ+Rz/nGSzNaUmw3ne+p0MSAfG4ZKY/PnlzAu3maNbMvIBM6NUzp3BHm1ZT07DwFQRpDEts/WR/a5zeKr7f8gWxEAQbiWJraXA5+SaUdoww2f08EERPMgbBZCmxo4ZKGatsEdet5vMpnwZ55X02eb1Knt+hM2NJQtjEBoLC2mRwCE8R4qNQLAQR4B4IATeMiGlr1b0h8iruQWG5m23+2K0Gzpc7jbzacjBXKov3E7RtL1An04dHJbo6GNz21eBLYwAm04z5+DAAjjPVRqBICDPALAAafloT0HFAJ2Ff6h6aRBLc2PPm0PSW+QdGHLzmy+kW3z2aZdPjjhssfRQAIysMc0oS+X2jwROcxqGFDNLJK2ia35cxAAWbhxpREIAAciBIADTuQha8wPlXR6Dx2hdXov6fmKfxUem73QJvexSY1Szlw43wjPfz5Z0mMreBPeeM3Xa9Xnl61yBMeXEljFddVxBMBSrNntRAA4XIIAcMBJdMjeEbjPdP6A/w1s3JsaIbvSt5kCnzudOc+GJua8XX26GNI7Jm/jn5KIgbGx2RPfNB3elzsDX/8cEMDHHrfYjIls4QSaflu++xEA4cyHOAMB4KCOAHDA6ejQdSU9aNp5v33akf9ourDPbFjh+dPvJhgsgD8j6d+nb93fKdPJbEJw7Th9Oc9GEdjc9R+XdIIk42Dj2WePD+y/zZJnouHY6aMVEz22AmCtDfBWkg70/LtXCHTSriHg29E3pas1/tZAquALAsDhRASAAw6HIACBagk0dey++xEAZYQGAsDhJwSAAw6HIACBagn4dvRN6RAAZYQGAsDhJwSAAw6HIACBagk0dey++xEAZYQGAsDhJwSAAw6HIACBagn4dvRN6RAAZYQGAsDhJwSAAw6HIACBagk0dey++xEAZYQGAsDhJwSAAw6HIACBagn4dvRN6RAAZYQGAsDhJwSAAw6HIACBagk0dey++xEAZYQGAsDhJwSAAw6HIACBagn4dvRN6RAAZYQGAsDhJwSAAw6HIACBagk0dey++xEAZYQGAsDhJwSAAw6HIACBagn4dvRN6RAAZYQGAsDhJwSAAw6HIACBagk0dey++xEAZYQGAsDhJwSAAw6HIACBagn4dvRN6RAAZYQGAsDhJwSAAw6HIACBagk0dey++xEAZYQGAsDhJwSAAw6HIACBagn4dvRN6RAAZYQGAsDhJwSAAw6HIACBagk0dey++xEAZYQGAsDhJwSAAw6HIACBagn4dvRN6RAAZYQGAsDhJwSAAw6HIACBagk0dey++xEAZYQGAsDhJwSAAw6HIACBagn4dvRN6RAAZYQGAsDhJwSAAw6HIACBagk0dey++xEAZYQGAsDhJwSAAw6HIACBagn4dvRN6RAAZYQGAsDhJwSAAw6HIACBagk0dey++xEAZYQGAsDhJwSAAw6HIACBagn4dvRN6RAAZYQGAsDhJwSAAw6HIACBagk0dey++xEAZYQGAsDhpz+T5Bvwy9Kd4cibQxCAAARyJLBVZLtnbeFOOVYMm9YRQACsQ7Jpx+6RP4TLJG25KTs+QQACEMiewK6R7Z4JgCtlX0sMNAIIAEccXCvBD+E2jvw5BAEIQCA3Ag+IbPfswmez3CqFPUsJIACWYtmw04L4gsgfw2sd+XMIAhCAQG4EPhjZ5v04twphTyMBBEAjmg0Hjo/8MVwsabcVZXAYAhCAQA4Ebivp8sg279M5VAQbvAggAFZgOjzyx2DPw0xEbL+iHA5DAAIQGJLAzpJ+mqC9O3TISlB2EAEEwApcD0nwgzAR8B1JN15RFochAAEIDEHA3lVK0flbW3ePISpAma0IIABWYLumpEsTiYDfSTpS0v6SbirpBvzBgBggBgaKgb0kPViSPfOPve1vHb/9XcQIgBU9Sl6HEQAe/vhEIgEw+5HwP25+BfjBjxjIMwbe7dGekiQfAggAD18cgACImhCJxjrPxhq/4JfUMXBPj/aUJPkQQAB4+GKLya2ykxABiABigBggBhpjwN5zYvy/R4eSURIEgKczDuaH3/jDT30VQX5cmRID5cWATSDEVhYBBICnv0zZfg0RgAggBogBYmBdDHyZq3/PniSvZAiAAH/cUtIl/PjX/fi5Wivvag2f4bNUMWBtoo0oYCuPAAIg0GdPRAAgAIgBYoAY2BgDTwhsQ0meDwEEQKAv7FHAO/nxb/zxp7qKIB+uSImB8mLgXYHtJ8nzIoAAaOGPrSV9BhGACCAGiIERx8AXJFlbyFYuAQRAS99tI+kDI/7xc7VW3tUaPsNnqWLAOv8dWradnJYPAQRAhC+2kvRmRABXgcQAMTCiGHgHV/4RvUZepyIAEvjjIEnnj6gBSHUVQT5ckRID5cSALW3+mATtJVnkQwABkMgXu0j6T0QAV4LEADFQYQx8WtLuidpKssmHAAIgsS9sWc2PJ1xdiyukcq6Q8BW+qi0GvsLyvol7iLyyQwB05I8bTmbGepGkEyu8GqitkaM+dNzEwKYY+JWk10vau6O2kWzzIYAA6MEX15b0oEk5L5zcRjtK0men0wob/LH8nRkphM6T9CP+YEAMJI2B4yV9XtKbJNmEPjdnSt8eeoR8ikAA5OOLqi05LFIA2PlsEIAABCCQjgACIB1LcnIQQAA44HAIAhCAwAAEEAADQB9jkQiAMXqdOkMAAjkTQADk7J2KbEMAVORMqgIBCFRBAAFQhRvzrwQCIH8fYSEEIDAuAgiAcfl7sNoiAAZDT8EQgAAElhJAACzFws7UBBAAqYmSHwQgAIE4AgiAOH6c7UkAAeAJimQQgAAEeiKAAOgJ9NiLQQCMPQKoPwQgkBsBBEBuHqnUHgRApY6lWhCAQLEEEADFuq4swxEAZfkLayEAgfoJIADq93EWNUQAZOEGjIAABCCwkQACYCMKPnRJAAHQJV3yhgAEIBBOAAEQzowzWhBAALSAxikQgAAEOiSAAOgQLllvIoAA2MSCTxCAAARyIIAAyMELI7ABATACJ1NFCECgKAIIgKLcVa6xCIByfYflEIBAnQQQAHX6NbtaIQCycwkGQQACIyeAABh5APRVfQRAX6QpBwIQgIAfAQSAHydSRRJAAEQC5HQIQAACiQkgABIDJbvlBBAAy7mwFwIQgMBQBBAAQ5EfWbkIgB+5nHkAAA0ESURBVJE5nOpCAALZE0AAZO+iOgxEANThR2oBAQjUQwABUI8vs64JAiBr92AcBCAwQgIIgBE6fYgqIwCGoE6ZEIAABJoJIACa2XAkIQEEQEKYZAUBCEAgAQEEQAKIZLGaAAJgNSNSQAACEOiTAAKgT9ojLgsBMGLnU3UIQCBLAgiALN1Sn1EIgPp8So0gAIGyCSAAyvZfMdYjAIpxFYZCAAIjIYAAGImjh64mAmBoD1A+BCAAgbUEEABrefCtIwIIgI7Aki0EIACBlgQQAC3BcVoYAQRAGC9SQwACEOiaAAKga8Lk/ycCCAACAQIQgEBeBBAAefmjWmsQANW6lopBAAKFEkAAFOq40sxGAJTmMeyFAARqJ4AAqN3DmdQPAZCJIzADAhCAwJQAAoBQ6IUAAqAXzBQCAQhAwJsAAsAbFQljCCAAYuhxLgQgAIH0BBAA6ZmS4xICCIAlUNgFAQhAYEACCIAB4Y+paATAmLxNXSEAgRIIIABK8FIFNiIAKnAiVYAABKoigACoyp35VgYBkK9vsAwCEBgnAQTAOP3ee60RAL0jp0AIQAACTgIIACceDqYigABIRZJ8IAABCKQhgABIw5FcVhBAAKwAxGEIQAACPRNAAPQMfKzFIQDG6nnqDQEI5EoAAZCrZyqzCwFQmUOpDgQgUDwBBEDxLiyjAgiAMvyElRCAwHgIIADG4+tBa4oAGBQ/hUMAAhBYRwABsA4JO7oggADogip5QgACEGhPAAHQnh1nBhBAAATAIikEIACBHgggAHqATBESAoAogAAEIJAXAQRAXv6o1hoEQLWupWIQgEChBBAAhTquNLMRAKV5DHshAIHaCSAAavdwJvVDAGTiCMyAAAQgMCWAACAUeiGAAOgFM4VAAAIQ8CaAAPBGRcIYAgiAGHqcCwEIQCA9AQRAeqbkuIQAAmAJFHZBAAIQGJAAAmBA+GMqGgEwJm9TVwhAoAQCCIASvFSBjQiACpxIFSAAgaoIIACqcme+lUEA5OsbLIMABMZJAAEwTr/3XmsEQO/IKRACEICAk0BJAmBzSX+M+LvMSYKDnRJAAHSKl8whAAEIBBMoSQBsF9H5m3A4N5gOJyQjgABIhpKMIAABCCQhUJIA2DlSAJyahBiZtCKAAGiFjZMgAAEIdEagJAFw20gB8P3OKJLxSgIIgJWISAABCECgVwIlCYCDIwXAf/VKlsLWEEAArMHBFwhAAAKDEyhJALwxUgC8eXDaIzYAATBi51N1CEAgSwIlCYATIgXAU7P0wEiMQgCMxNFUEwIQKIZAKQJgj8jO30YB3LsYr1RoKAKgQqdSJQhAoGgCpQiA50UKgMslXbNoTxVuPAKgcAdiPgQgUB2BEgTANpJ+GSkAvlud5wqrEAKgMIdhLgQgUD2BEgTAoyM7f7v9/5rqPZl5BREAmTsI8yAAgdERyF0AbC/ptAQCgOf/A4c2AmBgB1A8BCAAgQUCuQuAVyfo/M+UtNVCvfnaMwEEQM/AKQ4CEIDACgI5C4C7SfpDAgHw+hUMONwDAQRAD5ApAgIQgEAAgVwFwA0l/TpB52/P/28TwIOkHRFAAHQElmwhAAEItCSQowDYSdJJiTr/41py4bTEBBAAiYGSHQQgAIFIArkJgOtJOjlR529X//eJ5MPpiQggABKBJBsIQAACiQjkJADuKOn0hJ3/iZI2T8SJbCIJIAAiAXI6BCAAgcQEchAAV5T0ckmXJuz87ep//8SsyC6CAAIgAh6nQgACEOiAwJACYEtJj5D0k8Qdv3X+H++AFVlGEEAARMDjVAhAAAIdEBhCAOw+6fBfIOmnHXT81vlfLMlGEbBlRAABkJEzMAUCEICApFgB8DpJT5vM1neIpIMkHSjJxu/b8/xbS7qLpPtO0xwp6UcddfrW8c/+noFn8yOAAMjPJ1gEAQiMm0CsAJh1urn8/zQv/uUZ0AiAPP2CVRCAwHgJ1CQAzpBkcwiwZUgAAZChUzAJAhAYNYFaBMBvJf3VqD2ZeeURAJk7CPMgAIHREahBAFwm6f6j81xhFUYAFOYwzIUABKonULoAuHwyedBjqvdSBRVEAFTgRKoAAQhURaBkAWBX/o+qyhsVVwYBULFzqRoEIFAkgVIFwCWSDiiS+EiNRgCM1PFUGwIQyJZAiQLgZ5L+MluiGLaUAAJgKRZ2QgACEBiMQGkC4AuSdhyMFgW3JoAAaI2OEyEAAQh0QqAUAXCBpKcwyU8nMdBLpgiAXjBTCAQgAAFvAiUIgI9Jup53jUiYJQEEQJZuwSgIQGDEBHIWAF+RdPcR+6aqqiMAqnInlYEABCogkJsAsHH99px/3wrYUoU5AgiAORh8hAAEIJABgVwEwM8lHcoyvhlEREcmIAA6Aku2EIAABFoSGEoAnCvpo5KeJGmvlrZzWkEEEAAFOQtTIQCBURCIFQCPl/RMSS+R9G+SrJ1/l6T3Tf/eLumN06t7S2u39ncZBVkquYYAAmANDr5AAAIQGJxArAAYvAIYUAYBBEAZfsJKCEBgPAQQAOPx9aA1RQAMip/CIQABCKwjgABYh4QdXRBAAHRBlTwhAAEItCeAAGjPjjMDCCAAAmCRFAIQgEAPBBAAPUCmiA1vh/5RUts/ExBsEIAABCCQjgACIB1LcnIQ4A6AAw6HIAABCAxAAAEwAPQxFokAGKPXqTMEIJAzAQRAzt6pyDYEQEXOpCoQgEAVBBAAVbgx/0ogAPL3ERZCAALjIoAAGJe/B6vtmyNeALQXBw8fzHIKhgAEIFAngW9FtMt/qBMJteqCwCsjAs0EwFFdGEWeEIAABEZM4KSIdvn8EXOj6oEEXhgRaCYAPhJYHskhAAEIQMBN4LSIdvmX7qw5CoFNBJ4WEWgmAL69KSs+QQACEIBAJIFtJF0W0S7/MLJ8Th8RgUdEBJoJgAslbTYiXlQVAhCAQJcE9opsk7/WpXHkXReB20cGm4mAPetCQm0gAAEIDEbgkZFt8tsGs5yCiyNwzchgMwHw+OJqjcEQgAAE8iTwjsg2+dl5VgurciVwdmTAfTrXimEXBCAAgYIIbCXpzMj2+ICC6oupGRD4XGTA2QsrO2VQD0yAAAQgUDKB/SPbYrsje/2SAWB7/wSekyDobDghGwQgAAEItCfw2ci2+Mfti+bMsRK4bWTQmeo8S9J2YwVIvSEAAQhEEtg7QTv8lkgbOH2EBOy503kJgu+lI2RHlSEAAQjEErCh1McmaIMfEmsI54+TwJEJgu8SSTcZJz5qDQEIQKA1gYMTtL8XSdq+tQWcOGoC+yYIQHsU8D1J246aJJWHAAQg4E/gBpLOTdD+vtu/SFJCYC2BzSWdmiAITQQcsTZrvkEAAhCAwBIC9t7U8Yna3XsvyZ9dEPAm8NxEgWgi4AXepZIQAhCAwPgIbC3pU4na3FMkbTk+hNQ4JYErJ7oVZQLA/g5NaRx5QQACEKiEwBUTdv7W1h5SCReqMTCBlydSpDMRYNNaWrCzQQACEICAtJukbyVsZ235X1tBkA0C0QR2TDQkcCYA7P8JkmyMKxsEIACBsRKwoX4Pk3ROws7f2td/HCtQ6t0NgScnDlALUpsu+N8l7dqNyeQKAQhAIFsC+0j6Qgft6nckbZFtrTGsSAL2Moldtc9fxaf6bHMF2GxVtgyxKWI2CEAAAjUSsNvyD5Bki6Wlaj/n87lc0u1qBEedhidggWVX7fMBl/qzDTt8q6RHTQXBtZnIYnjHYwEEIBBM4KrTRXjuNnmR2u6gfjjxC9XL2t7Dg63kBAgEEHh+xwJgWVCzr1vRBV/4EgPlx8BJXCwF9GQkbUXAJgf6PCKg07sgNMblN8b4EB/2GQMXS7plqxadkyAQSGBnST9FBCACiAFigBgYPAbsub+tG8AGgd4I7C7p1/z4B//x93mVQVlc1RID+cXAP/fW6lMQBOYI2EuBv0UEIAKIAWKAGBgkBt441x7zEQK9E7hjD2+2ctWR31UHPsEnxMCwMfAGSfZOFhsEBiWwlySbepIGAQbEADFADHQfA6ypMmiXR+GLBPaYTHDxP4gARBAxQAwQA53FgL3t/w+LjS/fIZADgW0lHcGPv7MfP1dW3V9ZwRjGucbAzyTZ9MFsEMiawCMl/QYhgBAgBogBYiBJDLxL0lWybvUxDgJzBGwFQVv218ao5qqosQvfEAPEQM4xcIqke8y1q3yEQFEE9p0E8HGIAEQQMUAMEAPeMXCmpGdJsseqbBAonoAtiHEsDYB3A5DzVQm2cdVMDHQTA2dIerqk7Ypv8akABJYQ2HOiam0Iy+mIAcQAMUAMEAN/WmH1c9PpfK+wpM1kFwSqI7ClpLtOxcA3elhmmCuWbq5Y4ApXYiA8BmzeFHtH6uGSrlVd606FIBBIwN5wvZOkQyZLWr5S0sclHSPpW5J+xB8MiAFioLAYsHlR7P0nu7p/y2Ta9GdIuo8kW0eFrSWB/w/x1V/LYv6BEwAAAABJRU5ErkJggg==;" parent="1" vertex="1">
          <mxGeometry x="700" y="690" width="70" height="70" as="geometry" />
        </mxCell>
        <mxCell id="bzez7L69sryukDLXe89N-1" value="" style="shape=image;verticalLabelPosition=bottom;labelBackgroundColor=default;verticalAlign=top;aspect=fixed;imageAspect=0;image=data:image/png,iVBORw0KGgoAAAANSUhEUgAAAgAAAAIACAYAAAD0eNT6AAAAAXNSR0IArs4c6QAAIABJREFUeAHtnQfYJUWVsA85S1ByMixRwmJCSauLigiCgagiIhJWFNmVFRYTIAiCCPgQxMWfBQQFVJKAIqAgWTLIoBIkCQgCA5JD/3M+p2fu3Onbtyt1d1W9/Tzfc+/XXeGct845dW6HahE2CEAAAhCAAAQgAAEIQAACEIAABCAAAQhAAAIQgAAEIAABCEAAAhCAAAQgAAEIQAACEIAABCAAAQhAAAIQgAAEIAABCEAAAhCAAAQgAAEIQAACEIAABCAAAQhAAAIQgAAEIAABCEAAAhCAAAQgAAEIQAACEIAABCAAAQhAAAIQgAAEIAABCEAAAhCAAAQgAAEIQAACEIAABCAAAQhAAAIQgAAEIAABCEAAAhCAAAQgAAEIQAACEIAABCAAAQhAAAIQgAAEIAABCEAAAhCAAAQgAAEIQAACEIAABCAAAQhAAAIQgAAEIAABCEAAAhCAAAQgAAEIQAACEIAABCAAAQhAAAIQgAAEIAABCEAAAhCAAAQgAAEIQAACEIAABCAAAQhAAAIQgAAEIAABCEAAAhCAAAQgAAEIQAACEIAABCAAAQhAAAIQgAAEIAABCEAAAhCAAAQgAAEIQKBHBOYVkbl7JA+iQAACCRBYWEQ+IiKHi8iFInKPiDwuIq+KSMEfDLCB3tiA+uTNIvLfIjJ/ArEHFSAAgQ4IzCIim4jIWSLyAgG+NwGehIuks6kN3C0ib+0gdtAlBCAQMYEPTf0V0TTQUI5JCRvopw1MFpEVI45FiA4BCLREYAkROZtf+/zaxwaSsoErRETvD2CDAAQgUEng3SLyEIE/qcDPr/J+/irvYlwuJgmojHvshED2BPQGv+eY/Jn8sYGkbeAybgzMPtYDAAIzENhKRF4h8Ccd+Lv4xUmf/Tz7cAlnAmaIf/wDgWwJ6Gl/7vDvZ6BmAmVcQtmAJgHzZRv1UBwCEJDFROSv/PLnlz82kKUN/I7LAcwCEMiXAHf78wsz1C9M2o3Dtn7DmYB8JwA0z5eAPudPkIYBNoAN/JYkIN+JAM3zI6Ar/N1CAkAChA1gA1NtQC8HLJBfKERjCORHYFMCP4EfG8AGhmzgUu4JyG8yQOP8COja/pz6hQE2gA0M28DlnAnIb0JA43wI6Fv9eOyPwD8c+PkfmyhtgMWC8pkP0DQzAh/l1z9nP7ABbGCMDXAmILOJAXXzIHD4GMcvfwXUfb4sIkeKyOoiMmce2NASAr0gUOeXvo+xTkAvhhwhIOCPwIWOCYBO/h/2Jw4tQQACBgR8T/Lj2uPpAIPBoSgE+k7gbscE4Ht9VxD5IJAwgXETdojjJAEJGxSq5UXgSccEQE/7s0EAAt0QCDHBN2mTewK6GW96hYBXAnoKv4nDjyrDNX+vw0FjEDAiMMov29hPEmA0VBSGQP8IuAaK/mmERBDIh4Cr/7rWv1JEXpMPbjSFQFoEXANAWjTQBgJxEXD1Xx/1SQLishmkhcA0Aq4BYFpDfIEABFon4Oq/vuqTBLQ+9HQIAXcCrgHAXQJagAAEbAm4+q/P+tdNWQ9EVxZlgwAEIiHgGgAiURMxIZAkAVf/9V2fJCBJM0OpVAm4BoBUuaAXBGIg4Oq/IeqTBMRgOcgIAcdHADV4sEEAAt0RcJ3AH/UQA6pkuEpEFuwOCz1DAAJNCFQ5r8m+Jn1QBgIQCEPAxFeryq4iIg8FSgKuF5FFwqhNqxCAgA8CVUHBZJ8PGWgDAhCwI2Diq1VltVeSADv21IJA9ASqgoLJvugBoAAEIiZg4qtVZUvVSQJKEnxCICMCVUHBZF9GqFAVAr0jYOKrVWUHFSIJGKTBdwhkQKAqKJjsywARKkKgtwRMfLWq7LBiJAHDRPgfAgkTqAoKJvsSRoNqEOg9ARNfrSpbpWDIJOAGbgysQs4+CHRDoCoomOzrRmp6hQAElICJr1aVHUWRJGAUGfZDICECVUHBZF9CKFAFAtERMPHVqrJ1CodOAl5b1znHIACB8ASqgoLJvvAS0gMEIDCKgImvVpUd1W65nySgJMEnBBIkUBUUTPYliASVIBANARNfrSrbRNGQScCNIsKZgCajQBkIBCBQFRRM9gUQiSYhAIGGBEx8tapsw26CLhZEEtB0FCgHAc8EqoKCyT7P4tAcBCBgQMDEV6vKGnRFEmACi7IQiIFAVVAw2ReDjsgIgVQJmPhqVVlTLlwOMCVGeQj0mEBVUDDZ12PVEA0CyRMw8dWqsjaASAJsqFEHAj0kUBUUTPb1UCVEgkA2BEx8taqsLajQScDrbAWjHgQg0JxAVVAw2de8J0pCAAK+CZj4alVZF3lCJgE3iQhJgMvoUBcCDQhUBQWTfQ26oAgEIBCIgImvVpV1FYskwJUg9SHQIYGqoGCyr0PR6RoC2RMw8dWqsj4AkgT4oEgbEOiAQFVQMNnXgch0CQEITCVg4qtVZX2BJAnwRZJ2INAigaqgYLKvRVHpCgIQGCJg4qtVZYeac/qXJMAJH5Uh0D6BqqBgsq99iekRAhAoCZj4alXZsh1fnyGTgJu5MdDXMNEOBP5JoCoomOyDIwQg0B0BE1+tKhtC8pBJwO0iskQIoWkTAjkSqAoKJvtyZIbOEOgLARNfrSobSg+SgFBkaRcCHglUBQWTfR5FoSkIQMCQgImvVpU17M6oOEmAES4KQ6B9AlVBwWRf+xLTIwQgUBIw8dWqsmU7oT5DJgGTuBwQathoNxcCVUHBZF8unNATAn0kYOKrVWXb0IkkoA3K9AEBCwJVQcFkn0WXVIEABDwRMPHVqrKexBjbTOgkYMmxElAAAhCYiUBVUDDZN1OD7IAABFojYOKrVWVbE1RESALapE1fEGhAoCoomOxr0AVFIACBQARMfLWqbCCxRjZLEjASDQcg0D6BqqBgsq99iekRAhAoCZj4alXZsp02P0kC2qRNXxCoIVAVFEz21TTNIQhAIDABE1+tKhtYvJHNh0wC7hAR7gkYiZ4DEJhOoCoomOyb3hLfIACBtgmY+GpV2bblHeyPJGCQBt8h0AGBqqBgsq8DkekSAhCYSsDEV6vKdg0ydBKwVNcK0j8E+kygKiiY7OuzbsgGgdQJmPhqVdk+8CEJ6MMoIEOWBKqCgsm+LKGhNAR6QsDEV6vK9kSNoI8I6j0BnAnoy0gjR68IVAUFk329UgZhIJAZARNfrSrbJ1ycCejTaCBLFgSqgoLJviwgoSQEekrAxFdzL/tHzgT01IoRqzMCrkGhM8HpGAIQEFf/za2+vkCIywE4DgSmEnANAICEAAS6I+DqvznWv1tElutuyOgZAv0h4BoA+qMJkkAgPwKu/ptr/d+LyOz5mQsaQ2BGAq4BYMbW+A8CEGiTgKv/5lx/pzYHir4g0EcCrgGgjzohEwRyIeDqvznXvy4XI0FPCIwi4BoARrXLfghAIDwBV//NvX74EaIHCPSYgGsA6LFqiAaB5Am4+m/u9ZM3EBSEQB0B1wBQ1zbHIACBsAQmi/AooAODsKND6xDoOQESgJ4PEOJBoIbAzQ6Tn6vvp1C/Bi2HIJA+AVcnTp8QGkKgvwS+QwLgdAakvyOLZBBogQAJQAuQ6QICgQisJiKvkARYJwGBhoVmIRAHARKAOMYJKSEwisDRJAAkAKOMg/0QqCNAAlBHh2MQ6D+BuUXkYpIAqySg/6OLhBAISIAEICBcmoZASwQ0CTiKywHGSUBLw0M3EOgnARKAfo4LUkHAhoDeE/A9EfmDiDzDWYGxCYENY+pAIBkCJADJDCWKQCA7AsSv7IYchX0SwIF80qQtCECgTQLErzZp01dyBHCg5IYUhSCQDQHiVzZDjaIhCOBAIajatTmriKwhIp8RkQNF5EQROV1EThaRY0VkfxHZVkSWs2ueWgEJ6LvlVxeRj4vIbiKy19S//xaRT025S399EZk/YP+5Nk38ynXk0dsLARzIC0anRtaaOsE/1PCmLV34RR/7+lenXqnsg8BCUyZ2XY3vkQZj97KIXCEie4rIYj46p42xN/mNi28ghEDWBMY5yLjjWcNzVP6tInJRg4lj1Bi8KCIfcZSB6vYEVhWRBy3H73kROX7K3zL23VPTkv2gPwERAlkTGHQGm+9Zw7NUXp/ZPlhE9BehDfPBOs9yScByFNyqzSMi93gav/+ccnlHL/+wmRMY9AWb7+Y9UgMCCRGwcZrBOgmhaEWVpUTkOg8Tx+AYHNqK5HQySECv8w+Ogev3X4rIgoMd8L0RAVfujTqhEARSJYADtTeyS4vIXzxPHDp++kpYtnYJnB9gHG8Tkde2q0b0vRG/oh9CFOiSAA7UDv35pk7Urryr6j/Rjgr0MkDgjwESAB3bK0VkroF++FpPoMofTPbVt85RCCROwMRZqsomjsebev8baMLQMdF7CdjaJfBwwPE8sl1Vou6tKiaZ7ItaeYSHgCsBE2epKuvafw71/z3gZKFj8lQOEHum4/0Bx/TVKU+HrNczffsqTlVMMtnXV72QCwKtEDBxlqqyrQgZcSezBDz1X47H1RHziVX0SwImADqu14uI2g5bPYHSB2w/61vnKAQSJ2DrOGW9xPE4q7dJ4IlCx2EfZylpwJSArvRX+kCozw+aCpVheVf2GSJDZQhMJ4ADTWcR4tvZgSeKySKyaAjBabOWwOJTL724+k9d/fNqJeCgEqjj1+QYFCGQNYEmTlJXJmt4Y5TX57pf8BCkRvHXJYF17Xm2bgjsHHBsdcx1pcdFulEtml5H+UbT/dEoiqAQCEGgqaOMKhdCplTa3DTgBHGLiGyYCqiI9fjklJf/PBpwnLeImE0boo+KS033tyEjfUCgtwSaOsqocr1VrAeCHeBpYtBf+r8VkW9P/cW/Ug90Q4TpBHRpZ73X4xsicuaUtzne52nc1ecOm94N3yoIjIpLTfdXNMkuCORDoKmjjCqXDylzTX/iOBHo42BHiciK5l1To0MCevf++0TkHMfxV5/7RYd6xND1qLjUdH8MOiIjBIIRaOooo8oFEyyBhi91nAC+mgCD3FXQlz6N8p0m+2/KHeAY/ZswrCszpnkOQyBtAnXO0eRY2nTctLvGIfjrm+Zmd+ue2j0gMKeI3O1gB3/ugQ59FqFJjKor02fdkA0CwQnUOUeTY8EFjLgDl7f+fSdivRF9RgLfdEgA9OVRbKMJNIlRdWVGt8wRCGRAoM45mhzLAJG1ii4JwE7WvVKxbwQ+QgIQbEiaxKi6MsEEo2EIxECgzjmaHItBx65kdEkAtuxKaPr1TkCf2mjiS1VlOANQPxxVzEz21bfOUQgkTsDEWarKJo7HST2XBGAjp56p3CcCeh9Ale802UcCUD+STRjWlalvnaMQSJxAnXM0OZY4Hif1XBKAdZx6pnLfCDxjmQSQANSPZJMYVVemvnWOQiBxAnXO0eRY4nic1HNJAFZ36pnKfSPwEAlAkCFpEqPqygQRikYhEAuBOudociwWPbuQ0yUBeGMXAtNnMAIPkAAEYdskRtWVCSIUjUIgFgJ1ztHkWCx6diGnSwKwRBcC02cwArbLA3MJoH5ImsSoujL1rXMUAokTqHOOJscSx+OknksCsIBTz1TuGwFd2KmJPw2XIQGoH8lhXqb/17fOUQgkTsDUYYbLJ47HST2XBGA2p56p3DcCd5EABBmS4Xhk+n8QoWgUArEQMHWY4fKx6NmFnLYJwPNdCEufQQn8iQQgCN/heGT6fxChaBQCsRAwdZjh8rHo2YWctgnA37sQlj6DEphEAhCE73A8Mv0/iFA0CoFYCJg6zHD5WPTsQk7bBOD+LoSlz6AE9K1+w77T5H/uAagfliYM68rUt85RCCROoM45mhxLHI+TerYJwB1OvVK5jwSuIgEIMixNYlRdmSBC0SgEYiFQ5xxNjsWiZxdy2iYAN3QhLH0GJXAxCUAQvk1iVF2ZIELRKARiIVDnHE2OxaJnF3LaJgCXdyEsfQYlcC4JQBC+TWJUXZkgQtEoBGIhUOccTY7FomcXct5sGfQv7EJY+gxK4DRLW+B+kPphaRKj6srUt85RCCROoM45mhxLHI+Teg9aBv2znHqlch8JnGBpC8/2UZkeydQkRtWV6ZEqiAKB9gnUOUeTY+1LHEePs4jIi5ZB/3/jUBEpDQgcZmkL6oPzG/STW9EmMaquTG680BcCMxCoc44mx2ZojH+mEVjUIeDvP60VvqRC4EsO9vCmVCAE0KNJjKorE0AkmoRAPATqnKPJsXg0bVfSDR0C/i7tikpvLRDYxsEeNmtBvli7aBKj6srEqjdyQ8ALgTrnaHLMixAJNrKnQ8DfNEEeuau0gYM97Js7vBr9m8SoujI1TXMIAukTqHOOJsfSJ2Sn4akOAf+tdl1Sq8cE9DR+E3+qKnNOj/XqWrQqXib7upaf/iHQKQETZ6kq26nwPe18VhF52CHgL95TvRDLnsA8DvbwuIjMbt910jWrYpLJvqThoBwExhEwcZaqsuPaz/H4xo7BXp8gYEuPwAMOdvHB9HB40agqJpns8yIEjUAgVgImzlJVNla9Q8mtv/6vdAj0F4QSjHY7J/AzB7v4nYiQGM48hFUxyWTfzC2yBwIZETBxlqqyGaFqpOoeDkFe+f53o14oFCOB3R1tY+cYlQ4sc1VMMtkXWDyah0C/CZg4S1XZfmvXrnRbiMhLjkH+De2KTG8tElhGRF51sI/nReTfW5Q3hq6qYpLJvhh0REYIBCNg4ixVZYMJFlHDemr2a47BXdleFpHOiGpH4DcOCYDayAsi8lm7rpOsVRWTTPYlCQWlINCUgImzVJVt2k+q5eYTkZ84BvWS6+apQkKvaQR0UZ9yvF0+DxeR2aa1mu8XF4Zalw0CWRPAgeyHf30RudNTQL9eRPQGQra0CegY274lcthXr5qSfK6cNq6x2g0zMf1/bAcUgEDKBEwdZrh8ymxG6abPdB8x5bT/K54mf70uvN6oztifHAEda5d7AQZ98DkR2SvjswGDLGy+J2dcKAQBEwI2TjNYx6SvFMrqjVzXeZr4S456OpctLwI/9GxDF4rIwnkhnNC29CHbzwyRoTIEphOwdZyy3vSW0v+2gMdT/iW/S0VkjvTRoeEQAb135HbPScAtIqJnp3LaSj+y/cyJFbpCYCYCto5T1pupwYR3HOs5YN+Y6a+2hE3ESLUVReRvnm3qSCMJ4i9cxiHbz/gJoAEEHAjYOk5Zz6HrqKouNOVaq15vLfV2/bxBRBaNigDChiDwNhF50qNd6VoBi4QQtKdtuvphT9VCLAi0QwAHasZ5W49B+ucioqeA2SCgBNYQkQc92tdnMsJK/MposFHVPwEcqBnTPT0E6GdERJeD5XG/ZsxzKrWsiFzuwcbUnw/ICBzxK6PBRlX/BHCgZky/6SE4H8wLXZrBzrSULuzzSw92pveq5LIRv3IZafQMQgAHaoZ1Xw+BWVn/VkT01x4bBAYJLC4iZ3iysWMGG078O/Er8QFGvbAEcKBmfD/mKTgr70dE5N+adUupDAi8Q0Tu92hf/5kBs1JF4ldJgk8IWBDAgZpB05v2nvAYpPVu7U2bdU2phAmoDfh8ukRXp8zpjZLEr4SdA9XCE8CBmjPexWMCoNz1zW4bNe+ekokR0MlfbcDVBwfrfz8xRuPUGdTd5vu49jkOgaQJ2DjNYJ2k4VQo93mP7wBQjk9Nufb75op+2JU2gTVF5B+eJ/8zRWTutLHNpN1gLLL5PlOD7IBATgRsnGawTk6sSl11TQCfi7fo2+FYDrikm/7n/CJyt8fJX18spC+nyvH1wIOxyOZ7+taGhhCoIWDjNIN1appO+pDeya8vYBlk4fJd3+jGlgcBffmTi60M1r1PRN6fB7ZKLQdZ2HyvbJSdEMiFgI3TDNbJhVOVnrOIyM6eTuXqpYAc3+ZWxTXlfSuJyMueEoBTpvzy1yWqc94GY5HN95zZoTsEnH+JgFBkVU9vCfwaMJMncIKHyV9XlNwmeVLNFLSZ9AfrNOuFUhBIlMCgM9h8TxSLsVpLiMitjsFdT+eyTLAx+mgqvFZEXnS0kckisn40GocX1CZmDdYJLyE9QKDHBAadweZ7j1VrXbTFROQuxwC/XutS02FbBFwfI9WnBnTRILbpBGxi1mCd6S3xDQIZEhh0BpvvGSKrVfndIqJ3Zduw1DptvMjlAyLyHRE5vcHfISLy77Uajz/4uin3SejLlE5q0J+W+ZKI6K9ll20dETmoQX/KQFm816WzhnXPd7ALtY3dGvaTUzFbPyvr5cQKXSEwE4HSEWw/Z2qQHaLPY9vyvDgwv6MtZfu2pVwri8hDFn1qHb1hzmbb2zIJ02Qn1KY3jP7dgkNpR7dxeahyaEo+tp+VjbITArkQsHWcsl4unEz0XNsh0D9m0pFhWf3lX46b6aee1bC5PHGJQ58XGeqnxXVRJdu77FXHd1r02aTKGx046Fh9vEknGZYxtePh8hkiQ2UITCcw7BCm/09viW+DBO5wCPi6UEyITU91m47vYPn9DYWa03GpW10mV9sw2b7gqOM+Jp0ZlN3QQS698W8eg75yKjponzbfc2KFrhCYiYCN0wzWmalBdkwQ+J5DwA+1NPDJDjLpmB9nOLZ67X/QVmy+axsmm95DYdNPWee7Jp0ZlN3RQa6fGfSTW9Fy3Gw/c+OFvhCYgYCt45T1ZmiMf6YR+IRDwN9kWit+v5AAjE8OQiUA+znYA6tEjvaDMg7Zfo5umSMQyICAreOU9TJAZKXiug4B/3NWPY6vRALQXQJwooM9bDF+aLMtUcYh289swaE4BJSAreOU9aBYTWA5B7a2d9xXSzJ9LwnAeHsPdQbgtw72wLP/0214+FsZh2w/h9vjfwhkRcDWccp6WcEyUHZ2h7vRdY33EBsJQHcJgMvb/5YKYQyJtFnGIdvPRDCgBgTsCNg6TlnPrtc8aj1h+avv54HwkAB0lwC4vD6aV0WPdogyDtl+jm6ZIxDIgICt45T1MkBkreL9lgnAedY91lckAegmAdBFgGzXJniufkizP1rGIdvP7AECIG8Cto5T1subXr32t1smAKFWAyQB6CYBmM/SDtTHQi4MVW+9cRwt45DtZxxaIiUEAhGwdZyyXiCxkmj2esvAf0Ug7V3uRNfxPtZQrkUs9S9tSz+1DZPtm459HmbSWcOyCzvIdG/DPnItNmgrNt9z5YbeEJggYOM0g3XAOJrAdZaBX+uF2HSVu8GxM/2+u6FQeupbf8Ga9lOWf9SwPy2+vUN/2q++sc/35pII/cW3MIm1V9qK7WdiOFAHAmYEbB2nrGfWW16lbRMAffFLiO31IvKU5QSpL7JZ0kIol+WHbV7OoysHPuKg4xIWOo6rom82LP3F9JMEoJ6uKc/h8vWtcxQCiRMYdgjT/xPH46SebQKg9w6E2vS1tw8YTkj3iMj6lgLpGvb/z7A/tcHjRWRuyz7fJSKmj93pqfYNLPsbV81lSWQSgHq6pvFquHx96xyFQOIEhh3C9P/E8Tip18cEQBXSx8r+VUQ0GRj3t4aI6JoGrtviIvLuBv1pGS3ruqnMKvs4/fT4mp50HCUzCcAoMu77TePVcHl3CWgBAhETGHYI0/8jVj246H1NAIIrTgczECABmAGH139M49Vwea/C0BgEYiMw7BCm/8emb5vykgC0Sbu/fZEAhBsb03g1XD6cZLQMgQgIDDuE6f8RqNiZiCQAnaHvVcckAOGGwzReDZcPJxktQyACAsMOYfp/BCp2JiIJQGfoe9UxCUC44TCNV8Plw0lGyxCIgMCwQ5j+H4GKnYlIAtAZ+l51TAIQbjhM49Vw+XCS0TIEIiAw7BCm/0egYmcikgB0hr5XHZMAhBsO03g1XD6cZLQMgQgIDDuE6f8RqNiZiLYJAMu/djZkQTrWBZRM/aoszzoA9UNScrL9rG+doxBInICt45T1EsfjpJ5tAvCKiMzr1DOV+0RAF1Eq/cX0kwSgfiRNeQ6Xr2+doxBInMCwQ5j+nzgeJ/VsEwAdA13Nji0NAruSAAQbSNN4NVw+mGA0DIEYCAw7hOn/MejYlYy/dwj8h3clNP16J/BLBzvQZZjZRhMwjVfD5Ue3zBEIZEBg2CFM/88AkbWKlzgEfn2hjb5Gli1uAsuIyEsOdhDqxVBxU50uvWm8Gi4/vSW+QSBDAsMOYfp/hsgaq3yWQ+DXcbhARBZq3BsF+0ZAX4TkkgSqDVzRN6V6Jo9pvBou3zN1EAcC7RIYdgjT/9uVNq7ejnBMAHQsHhIRfaXue0RkwbjUz1ZafZnRZ0TkDg/jf1q2FJspbhqvhss364VSEEiUwLBDmP6fKBYvau3gYQIYHg99RPB0Efk3LxLSiA8CK4jI16e8YVHP+NwpIvoUx/C42f7/FR8CJtyGLdeyXsJoUA0C4wmUjmD7Ob6HfEus4nEiGB6fV0Xkm/mi7Y3m3xCRlwOO80a90bSfggz7hen//dQKqSDQEgFThxku35KY0Xbzx4CTg47FJ6IlE7/guwce28kiMlf8mIJqMByPTP8PKhyNQ6DvBEwdZrh83/XrWr4DAk8SD4rIHF0rmWH/S4jI04HH9tQMuZqqPByPTP837Y/yEEiKgKnDDJdPCkYAZZYWkRcCTxQfCiA3TdYT2CvwmKqfrVsvAkc9jAEQIZA1geEJ3fT/rOE1VP6HHgJV3bgc0lAOivkjcHHgMeXxv2ZjVecXTY4164VSEEiUQBMnqSuTKBavai0qIn8LOGGc4lVaGmtCQJ/GqPMLl2N6U+HaTYSgjPMYgBACWRNwCVRal60ZgY8HnDC4VtxsDHyW0vUZXH1nVP1v+xQ08bZGMWy6P3E8qAeBegJNHWVUufrWOTpI4MBAk4YuOMTWLoE/BBpLvbQwZ7uqRN3bqLjUdH/UyiM8BFwJNHWUUeVc+8+p/iwiclSAiUPPLrC1S+CMAOOo1/3nb1eN6HsbFZea7o8eAApAwIVAU0cZVc6l71zrftHxBTGDY/EELw3qxIx0/YXBcXD9/mMRmbsTTeK9mNIBAAAgAElEQVTu1JV73NojPQQcCeBAjgAtq79FRFxeF1yO286W/VPNjcBsInKThyTg71PfG6Bnh9jMCZR+YPtp3iM1IJAQAVvHKeslhKJ1VXQS2VJEfmsxkTwnInu0LjEdDhLQV/1Oshg79Z1Hp6zyd5CILDbYIN+NCZRxyPbTuEMqQCAlAraOU9ZLiUWXurxhyqSw29QXytw14oUy+l55fT+8Thxv7FJY+p5GQE/b7z1lSeY/N0gEHpkybieJyFac7p/Gz/VLGYdsP137pz4EoiZg6zhlvaiV77Hw+i755UXkzSKyhoi8nnXhezxa/xRNx2sTEdG3QH5eRPTyjN6guaGILNl76eMUsIxDtp9xao3UEPBEwNZxynqexKAZCEAAAsYEyjhk+2ncIRUgkBIBW8cp66XEAl0gAIG4CJRxyPYzLm2RFgKeCdg6TlnPszg0BwEIQKAxgTIO2X427oiCEEiRgK3jlPVSZIJOEIBAHATKOGT7GYeWSAmBQARsHaesF0gsmoUABCAwlkAZh2w/x3ZAAQikTMDWccp6KbNBNwhAoN8Eyjhk+9lv7ZAOAoEJ2DpOWS+weDQPAQhAYCSBMg7Zfo5smAMQyIGAreOU9XJghI4QgEA/CZRxyPazn1ohFQRaImDrOGW9lsSkGwhAAAIzESjjkO3nTA2yAwI5EbB1nLJeTqzQFQIQ6BeBMg7ZfvZLG6SBQMsEbB2nrNeyuHQHAQhAYBqBMg7Zfk5riC8QyJGAreOU9XJkhs4QgEA/CJRxyPazH1ogBQQ6ImDrOGW9jsSmWwhAAAJSxiHbTxBCIGsCto5T1ssaHspDAAKdEijjkO1np8LTOQS6JmDrOGW9ruWnfwhAIF8CZRyy/cyXHJpDQIRTaFgBBCAQLQHbib+sF63iCA4BHwRKR7D99CEDbUAAAhCwIWAbt8p6Nn1SBwLJECgdwfYzGRAoAgEIREfANm6V9aJTGIEh4JNA6Qi2nz5loS0IQAACJgRs41ZZz6QvykIgOQKlI9h+JgcEhSAAgWgI2Matsl40iiIoBEIQKB3B9jOETLQJAQhAoAkB27hV1mvSB2UgkCyB0hFsP5MFg2IQgEDvCdjGrbJe7xVEQAiEJFA6gu1nSNloGwIQgEAdAdu4Vdara5tjEEieQOkItp/JA0JBCECgtwRs41ZZr7eKIRgE2iBQOoLtZxsy0gcEIACBKgK2causV9Um+yCQDYHSEWw/swGFohCAQO8I2Matsl7vFEIgCLRJoHQE2882ZaUvCEAAAoMEbONWWW+wLb5DIDsCpSPYfmYHDIUhAIHeELCNW2W93iiCIHkTeI2IbCsi/ysi14rI30TkRQ8v6ykNnU/3Fx/BEIbYADZgYgMawzWWa0z/gYhsIyIL5D3Vof0ggRVF5Ici8gyTvfObCU0ck7IEcmwAG+jCBjTWHy8iKwxOBHzPi8A8IvIdEXmJiZ+JHxvABrCB7GxAzw4cIiJz5zX1oa1mfrfi8Nk5fBe/NuiTX7nYQL9t4CoRWZJpMQ8Ca029JoRT9tspGR/GBxvABtqygftFZI08psB8tdRf/npDSFtGRT+wxgawAWwgDhvQJGCJfKfHtDXX6zw3MfmT/GAD2AA2gA2MsIHrRETvD2NLjIDe8EcmDgNsABvABrCBOhvYL7G5L3t19FE/7vbH6eucnmPYBzaADagNPM2lgLRyBn3OH+eGATaADWAD2EATGzgmrSkwX210hT8W+cHpmzg9ZbATbAAbUBv4BysGppE06PK+ODUMsAFsABvABkxsYOs0psC8tdC1/U0GnbLwwgawAWwAGzgu76kzDe31JRA4MwywAWwAG8AGTGxAVwhki5zAoyQAJEDYADaADWADhjbwSORzH+KLyAuGg26SIVKWXxTYADaADaRpA88zg8ZPAOdM0zkZV8YVG8AGQttA/DNg5hqENhDaJwhhA9gANpCmDWQ+fcavPo6ZpmMyrowrNoANhLaB+GfAzDUIbSC0TxDCBrABbCBNG8h8+oxffRwzTcdkXBlXbAAbCG0D8c+AmWsQ2kBonyCEDWAD2ECaNpD59Bm/+jhmmo7JuDKu2AA2ENoG4p8BM9cgtIHQPkEIG8AGsIE0bSDz6TN+9XHMNB2TcWVcsQFsILQNxD8DZq5BaAOhfYIQNoANYANp2kDm02f86uOYaTom48q4YgPYQGgbiH8GzFyD0AZC+wQhbAAbwAbStIHMp8/41ccx03RMxpVxxQawgdA2EP8MmLkGoQ2E9glC2AA2gA2kaQOZT5/xq49jpumYjCvjig1gA6FtIP4ZMHMNQhsI7ROEsAFsABtI0wYynz7jVx/HTNMxGVfGFRvABkLbQPwzYOYahDYQ2icIYQPYADaQpg1kPn3Grz6OmaZjMq6MKzaADYS2gfhnwMw1CG0gtE8QwgawAWwgTRvIfPqMX30cM03HZFwZV2wAGwhtA/HPgJlrENpAaJ8ghA1gA9hAmjaQ+fQZv/o4ZpqOybgyrtgANhDaBuKfATPXILSB0D5BCBvABrCBNG0g8+kzfvVxzDQdk3FlXLEBbCC0DcQ/A2auQWgDoX2CEDaADWADadpA5tNn/OrjmGk6JuPKuGID2EBoG4h/Bsxcg9AGQvsEIWwAG8AG0rSBzKfP+NXHMdN0TMaVccUGsIHQNhD/DJi5BqENhPYzCEKzzDJLsfTSSxcbbLBBseWWWxZbbbVVsfPOO0/87bLLLsUXv/jF4pOf/GSx8cYbFyussEIx22yzJWsXqttKK61UrL322sV73/veCR477LBDsd122xWbb7558Z73vKd461vfWiy55JLJMpAMbB4dRe2XLXICBKGeB6sVV1yx2Guvvaz/dFL2Hazmm2++YtNNNy0OOeSQ4qqrriqee+65wmR7/vnniyuuuKI48MADi/XXX7+YddZZvcvoW+dR7S2zzDLFZz/72eLYY48trr766uKZZ55pjOJvf/tbceGFFxbf/va3iy222KJ4zWte0ymHj3zkI9Z2pjb6jne8oxX5l1hiCSc5t99++1bkHGUzCe2PfPpDfByh5wnARz/60cYTSlXBAw44wMsY66/8jTbaqDj55JOLp59+uqor6333339/cdBBBxU6mcYQHFVOPatx+eWXF6+88oq13sMVNTE699xzJ86cLLrooq2z+NnPfjYsktH/DzzwQLHQQgsFl1vPoLhs1113XXAZY7BjDzIyg0ZOAEcgARhrA5tttllx0003ucTcRnVffPHF4oQTTiiWXXbZsTJ5CF7Gfay++urFSSedVLz88suN9HEp9MILL0z09aY3vclYTls2rgmA6nvMMccEl5cEYOL0e3DODewo8ukP8ftgRMhQk4R0eQZAr1P/8pe/dJnHrOo+++yzxX777VfMOeecvbCNt7/97cU555xTvPrqq1b6uFTSROD4448v2kgEfCQAymjDDTcMOm4kACQATN1+CAR11AYZJP3XTP7Kr6sEQE/3P/rooy5zl3Pdm2++udBf3V3Z0YILLlgceeSRXk/z20LRsyMHH3xwMddccwXj4SMBUP3uvvvuQu8TCTVuJAAkAH6mP1oJ5qShnD+3drtIAPRudb0e3YftH//4x8TTA22P+wc/+MHivvvu6wOCGWS49dZbJ54wCMHDVwKgAh966KHBYgsJAAkAU7cfAsGcNESAyrHNthMAvRu9jWvcM8xqY/7R0+D6CGEb46+XHfSUe583HZ999tnHOw+fCYDeHLnOOut4l1FtgASABMDP9EcrQRy0jUCdSx9tJgCrrbaa9zv8fU2keiZAr8WHHPcFFliguOCCC3yJHLwdvWFyjjnm8MbEZwKgyk+aNKmYe+65vclXjj0JAAkAU7cfAt6ds3RSPv04aVsJgF5b/uMf/xh80nLp4J577gn2mJkuZNTGkw4u+lfVveiiiwq9V8GHv/lOAFRevZnTh2yDbZAA+Iktg0wtv/uZhWilMwLendPSkJBjxM2AbSUAupBLDJs+hufbxpZaaqni3nvvjUH9Shl1PQIfv7RDJAAvvfRSsdZaa3kdMxIAEoDOZszEOvbqmL4DM+218xSALjozefLkysmlbzv1MTOf15b1tP8NN9zQNzWN5Tn99NOdV1QMkQCoIjfeeKPXSxUkACQAic3DnalDAjDil3dfko82zgDsueeexhNOlxUuvfRSL3ar18+7WOcgFDtdUtjFbkMlAKrvl7/8ZSfZBvUiASAB6GzGTKxjb0456KB89+egbSQAt912m7c56c477yx23333iRfi6H0Fs88+e6Frt3/4wx8uzj77bG+L6fi4IfC73/2uN7370tA222xj7dMhEwB9rHSVVVaxlm0wppAA+Isvg1wtvic2HeanjheHtDAc+m145iF0ArDyyit7m7v+7//+b+y1aH0b3l//+lfnPvXlOy529653vat3jzs6QymK4rHHHisWW2wxKzYhEwDV7corr3S+TKFjTgJAApDfVB1GY6tA4RJ4qWvmvKETAH0zmo/t+uuvb3ydV3+9uy409PDDD1u/VlhvmLvjjjt8qF3Zxl133VX86Ec/Kr761a8Wn/nMZyZeCbz11lsXn/vc5ybe/HfeeecVTz75ZGVdHztPPfVUK78OnQCobp///OetZBuMGyQAZjFkkJ3n72FmJVptjYCzM3o2KOQZOjMQOgE4+uijfcw5E6+zNbEFvV7tuq255ppW9uKj72HZ9azGN77xjUJf39yEw2yzzTaxZv6JJ55Y6EJHvjd9XXMTOQbLtJEA6HoOb3zjG41lG5STBIAEoLUZMvGOnBxx0Cn5HsYpQycAZ511lpe5x/Rd9osssojzWYCddtrJ2H71kT/Xsw+DwPR9Cf/xH//h9OIilekHP/iB13cO6HsU9BXOJn7ZRgKg7C6++GJj2Qb1IAEIE2sGGTf8nvj0mL56RgGioVHQ5tCveBduoROASy65ZHA+s/quv2BtdNSbAl22ww47zLhfreNrO+OMMwpNZGx0r6qz9tprF3oTpa/tAx/4gJFsbSUAqt8OO+xgJNsgLxIAEoD0p+Z2NLR2wkGH5Hs4hwydAFxzzTXO840+m693+5vageviQ6eddppRn6997Wu9LHWs+n7pS18y6rspG12XwNejiZrcNe1Xy7WZAOg9ELr6ool8ZVkSgHDxpmTc8LOdWYpeghGwcsCGxkHbHs4EhE4AdBU5H5vNY3n64p2FF17Y+m/++ec3srF9993Xh6oTp/xD+oCuT3Duued6kfVtb3tbY0ZtJgCqnOpow5EEgAQg2IyYWcNWDmjjtNSxc9rQCcCvf/1rLxONvkGvz2Os18N9LPd75plntqKnJkb67gPX7Zhjjmksb9sJgOq21VZbNZavtC8SALtYUvLz+JnZdJmeusbO59F46LvBGYLQCYA+ruZj09e/2tx53pY9veMd73BW89lnny2WW2651uz2/e9/v7PM+rjkrLPO2kjmLhIAvYnSdN0CEgASgPSm4m40ahQY2grS9DOzY4dOAPRatq9NX/zyhS98oZc2ddBBBzmruf/++7eum55xcN2avjuhiwRAddMk1MT3SQBmjhMm/DyW7WbWoldvBIwcz6Ph0G+DX//KO3QCoCvz+d40oC+zzDK9GmPXhX/0SQdd0rhtH1httdWcHw889NBDG8ndVQKg9qdLRTdlSwJAAuBtBsy8ocZO19Q5KefXOUMnAHrDmZ6G9b3pgi+HHHJI44VxQtrN8ssv76zeKaec0pmvuN6nceuttzaSvcsEQBdS0vsemtgBCYDfGNOE+YgymU+f8avfyOFGDD51G/6Kd+EXOgFQ2XytBjhqlr3uuuuKnXfeuTC9a9+F22DdzTbbbJRojfc3PY0+2K+v79tuu21jOasK6qUZXf54nDxdJgAqty6GNE5GPU4CQAIQ/9TbDw0aOVwTp6RMGKdsIwFYY401nE8zV008w/smT548EeTf+c53tmp3X//614dFMfr/kUcecVq5ztU3dJXFF1980Ujm4cI6aY6TwzUB0IWRXDZdX+F973vfWDlJAMLEmnH2UXG8H7MYUlgTGOtsFYNOnRZ++Zfc20gAtC99k1+b26RJkwp9Lt91XfiSU92n68Sk9evab+OY63oNO+6441gdXBMAtVXXNvTRx3FnikgASACsZzwqzkBgbFBoI7jRx2iHbisBWHbZZYunnnqqzRxgoi99fPA3v/nNxNKwugpeCFvQZMNl68OTDUceeaSLCsURRxwxlq3r5K22qjdK/v3vf3eS9fDDD6+VlQRgdLwI4T81bc4wmfBPfARqHa1m4KnX0lmAthIAHevNN9+80NOwXW2agOhE5/sJAtdX7+oaAl37gt5D4bL9+Mc/HquDjwRAOW233XYuok5cjlpvvfVGyksCQAIQ31TbT4lHOlnXAY/+/+nkbSYAylxfadv1pm/r++EPf1isuuqqzvapyw27bm0u/jPK7l1vZLzgggvGsvSVAKgOrusX6GObo25cJAEgAejndBqfVGODwqiAxP52nLDtBEDH1dea+a4Tr56N0Bf+uJwR0BvoXLd55523cz/ZYIMNnNS48sorx+rgMwFYcskli8cff9xJ5gMPPLBSZhKAdmJPgxgf34yHxDMQqHSwBgNPvQQvAQyOu76uVZe+7cP29NNPF7vssouVzenrel02Xc9gkEtX310TgNtvv32sHj4TAOX06U9/2gV9oY8v6mQ/zJwEgARghlmMf6wJzORcw87G/906WxdnAMox18cDr732Wqcg7rPyCSecUMw111xGNut6BkCTj5JHl596Tdxl+9Of/jRWD98JgPI666yzXMQubrrppkIXqxpkTwLQbUwaGAvriYeK/SAwg2MNDCz7W/qFP455lwmAyqYvktGzAXfeeadTIPdV+fzzzx95bbiK5WyzzeZ8Y+Ooa9FV/YXat+666zoh1ERunGwhEoClllrK+VLAPvvsM4PsJAAkAP2YPuOXYgbHGhcgON6+43WdAJRjronAxz72sUKvJXe9/eIXvyh0Yi9lG/fpeinD5R6EcbI1Pf6BD3zACfuvfvWrsbxCJACq32c/+1kn2fWm0De/+c3T5CcBaD8OjbDT+GfAzDWY5lQjBpjjHZ8J6EsCMGgf73rXu4qf/vSnzqvTucwK3/rWtxrbpq7k57LphDOofxfft99+excVitNPP32sDqESAOWlTyG4bFdfffW0pI8EgAQg83nbm/pjg0IXwY4+pzt4HxOAcnz0Pe577LFHccMNN7jEdqu6+oSA3hhXylL3qde/XbZdd921UT91MrgeO/jgg11UKI499tixOoRMAJZeeuniiSeecNLhi1/84oQOJADT44OrXTnW9zYR0VA3BMYGBUcDoX3HMwh9TgAGbWP11VcvvvOd7xT6Vre2Nr2uPcsss4y1sbPPPttJpFNPPXVsH4MsQny/8MILnXRospphyARAmeiTHC7bM888U/zLv/wLLwNyjCke7bObWYtevRHoPLB5NMYkdYklASjHUa/Nb7TRRsXJJ59c6CN0obctt9xy7Ljvv//+TmI88MADY/so9Q/xOc888xQ6+bls66+//lgdQicAmqzpvQgumy4b/ba3vc2liULfThlinDJs09tEREPdEMAR+pNNV45FbAnAYBDUl7ro6fNbbrnFKWDXVdZfxoN9Vn3fYost6ppodGzNNdcc209V3z726RLNLpteLllooYXGyh86AVAWyy+/vPM7J77//e+74CAB8Bfzupm16NUbgbFBwUcAow37a3YxJwCD4/7ud7+7cH2jXVXUf/nllwt91Gywr+HvK664YlVVo33f/e53a/sY7tPn/+ecc46RrMOF9Q17TeRpIwFQOXbbbbdhEY3+d31fBWcA7OPRkB15m4hoqBsCjQLD0KBTx18GPZZlKglAaUOqj+vb4oZni5122qmWo5561tP4LpvewKaLCpV6tPW58sorF5rkuGz6XoUm8raVAOh4/PrXv3ZRyakuCQAJQDfTbf96bRQYmgSPXMror9i77rrL6u9HP/qRMe/UEgC1kze96U2FLk3ra9NTwuPs76ijjnLubu+99x7bzzg5TI/rW/xct0033bSR3G0lAMrgDW94Q6GrLHaxkQCQAPRvKu5GokaBwTRopVz+4Ycfto5Z+iyzKZsUEwBloC+LefDBB61ZDla85pprxnLdcMMNB6tYfdfXFev77k3H0Lb8e97zHudVDHWSbbqSYZsJgDLZfffdrcbBtRIJAAlAN9Nt/3ptLZjZBsG+1XNZVEbPHJjq43oDmz4/btpnW+VdF7cpJ4J77713rI6zzz578dhjj5VVrD9tzuLY8Fx44YULvXbvuunbFJv233YCoKtLXnrppa4qGtcnASAB6N9U3I1EjYND0yCSejmXU9evvPJKoXfGmzBynST11Hddfx//+McnVonTleJs/9Zaa63aPkb1r4+3Pffcc8YBfLjCo48+2qj/Y445Zriq1f/bbLNNo/5G6T1uvyYrutyxj22zzTZrLGvbCYBy0EsBbTwuOsiSBIAEoJvptn+9Ng4O44JWLsf1OWSX7f3vf78Rc30Riss27gawPffc06X5ibqf+9znjHQatBWXhKoUfPLkyY3613sPXG+o0z5ffPHF4hOf+ESjPgd1bfJ93nnnLc4999xSNafPSZMmTbzMqUm/WqaLBED7/a//+i8nPU0rkwCQAPRvKu5GoiBBrGnAibHccccdZxpvZiivr7Q10VtP4bpsRxxxRG1/egbAddP3ApjoNFjWxxoBf/nLXxr37+OmOuWlj6IpW9PXEw/qPvx91VVXLW677TbX4ZhWX1/CM9xH3f9dJQB6KeB3v/vdNLlDfyEBIAHoZrrtX69GAaIueORyTBe2cdn016MG+ia89LEz/XXrsn3961+v7UsfM3Pd9G17iy66aG0/Vfrq42B6+t51M7m5Uhf0cX2OfFDeO+64o9h4442NdR/kscACCxQHHHBAoW+987XpksymyUlXCYCyWGmllQrXtzY2ZUcCQALQv6m4G4mcAtdgEMvlu04grtsf/vCHQl+kM46Zj2vWW2+9dW0/+uvr8ccfd1Wp0ctmhvVde+21nfvVBk466aRaHYf7dZ3oqoTWJEQvC+gp/OH+Rv2v69rrxO97XQSVT0+rj+p31H5XLvrEyqi2m+z/8pe/XIXW+z4SABKAbqbb/vXq5LBNnDq1MvqrVe86d93uv//+Qk+/641ww4z0xii929zH1uRsg06grpv+qtYnFoZ1GfW/cnRdF76Ueeedd27cr8qjjyCGmHRVHr2hTV99+5WvfGWChyY5+i77t7zlLYWuhrjjjjsWRx55ZNDlkfUywhxzzGHERLl0nQBoMhpitcjSTspPEgASgP5Nxd1IZBwkRgX0nPZrAPe16Ute9NejLvd68cUXF3feeaevpifezKcT7bix+dCHPuSlTz2F++lPf3psfxroDzvsMC99aiO61O84HYePf/KTn/TWf58a0psc11lnHWMeyqfrBEBl0EtSPp4MqRsTEgASgG6m2/71ahUohoNpbv/rL7oYtuOPP77R+Oob/HwmHrrMqz7tMHwNWid+Xdzmsssu84bP5Pr/sJ26vibYmxIeG9I3Hw7r2fT/PiQAKuv//M//eCQyc1MkACQA/ZuKu5HIOlg0DSqplrvkkktmjiw927Peeus1Hl/Xd7VXqa5nBPQuf52kNej6uNdguB/TO90H7XHBBRcMeip+WNbQ/59//vmFriEwqKPJ974kAKrDtddeGwwXCQAJQDfTbf96tQ4WJoElxbLrrrtusADlo+Ebb7zRaGw16N50000+um6tDV0pr+kyt6Ns8PWvf33x0EMPtSZzqI6uv/5640Wmhpn0JQFQuVZZZZVglwJIAEgA+jcVdyOR0SQxHDBy///nP/95qHju3K5e1zcdH712/NJLLzn33VYDvlbk0xv0unoxjQ9W+qbDZZZZxni8h+2jTwmAyva1r33NB56Z2iABIAHoZrrtX6/OQWM4iOT0/9JLLx3ktPZMEctwh95MaDsObT2KZajSTMXPO++8oskNjk05bLDBBr0cy5kUH9qh75ewuQmyikvfEgA9K6WTte+NBIAEoH9TcTcSWU8UVQEkx336K7RPmy4cpKe1bcdCJ9UTTzyxTyrNJIs+Qvm6173OWsdRbPS5/D/96U8z9dfXHfoWxMUXX9wbh74lADpOa6yxRvHCCy94HQISABKAbqbb/vXqLXiMCqo57D/kkEO8BijbxvRZ/K222sp5TPWpgFNPPdVWjKD1nnzyyeLtb3+7s46j7FInVJ1Y+76deeaZRosOjdJ3cH8fEwCVb9999/U6HCQAJAD9m4q7kShYIB0MLKl/18fbTjnlFK9Byqaxvfbay9t46pkAbU/fYNiXTc9uvPOd7/Sm4yi71EV0VHffvzx9cNR1I1Q2tblR8tvu72sCoJcC9CZHXxsJAAlAN9Nt/3r1HkRsg0/s9bqcMPWXv/5KCsFQXyer68p3vf35z38ubF87bMtFTz/rZNGX7dJLLy30MoWtPuPq9TUBULl1CW59j4aPjQSABKB/U3E3EgULJuOCTarH3/ve9xb6drq2Nr17PdSracsxWnjhhYsf/OAHXl6la8NF3+CnL0Yq5WnzU88G7LHHHoXead/Vpu+O0GWjfd70WMWwzwmAyvvNb37TyxCQAJAAdDPd9q/XToJqVfBJaZ9OVoceemiw55jLKHjVVVd5uwO8CX9dAVGvPbd1WeD3v//9xPr5TWQLXWbOOecsPvWpTxWTJk0q8Qf/vOGGGyb61HsyQuun7fc9AdAx8PH6aBIAEoD+TcXdSNRKYGkjePWxj2WXXXbixS9645rPTU+Hb7vttsF/EY5iusIKKxTf+973iscee8ynWhNt6StxTzvttImlhEP/4h2lX91+nYw32WST4oQTTgjyQqH77rtvwmZ0oak6OUIc63sCoDrrZSDXSwEkACQA3Uy3/eu19SATInD1vThWOCQAAAy6SURBVM355puv2G677YozzjijeOqpp6wmTT3VrwF60003DXIDmA1DPT2+8cYbF0cddVShp6ltt4cffnji7Yc77LBDkMf7bHRrUkf113ceaDJ0xRVXWC0mpG8lvOiii4qDDjpo4gbHLpOeGBIAHRdl5bKRAJAA9G8q7kYiEoApjxk1Cfa+yugvSD2Vrm+j05XOdPI8/fTTp/399Kc/LS688MLiJz/5SXH00UcXX/jCFwpdpGb4xTq+5PHZziKLLFKsv/76hb5XYL/99puQX3/Nq376WOFxxx03sU8D+G677TYxeeqrj7uc9Hzqr3fm66I8+iim6rfPPvsU+oio6q1/Bx98cLH33nsXu+66a6E3Vy633HKt2p5PXWmr3bjRU97dzFr06o0AAajlBKCnjowdYAfYADZgagPeJiIa6oaA6YBTniCBDWAD2AA2oDbAFjkBHBlHxgawAWwAG7CxgcinP8S3GXTqECywAWwAG8AGmEEjJ4AT48TYADaADWADNjYQ+fSH+DaDTh2CBTaADWAD2AAzaOQEcGKcGBvABrABbMDGBiKf/hDfZtCpQ7DABrABbAAbYAaNnABOjBNjA9gANoAN2NhA5NMf4tsMOnUIFtgANoANYAPMoJETwIlxYmwAG8AGsAEbG4h8+kN8m0GnDsECG8AGsAFsgBk0cgI4MU6MDWAD2AA2YGMDkU9/iG8z6NQhWGAD2AA2gA0wg0ZOACfGibEBbAAbwAZsbCDy6Q/xbQadOgQLbAAbwAawAWbQyAngxDgxNoANYAPYgI0NRD79Ib7NoFOHYIENYAPYADbADBo5AZwYJ8YGsAFsABuwsYHIpz/Etxl06hAssAFsABvABphBIyeAE+PE2AA2gA1gAzY2EPn0h/g2g04dggU2gA1gA9gAM2jkBHBinBgbwAawAWzAxgYin/4Q32bQqUOwwAawAWwAG2AGjZwATowTYwPYADaADdjYQOTTH+LbDDp1CBbYADaADWADzKCRE8CJcWJsABvABrABGxuIfPpDfJtBpw7BAhvABrABbIAZNHICODFOjA1gA9gANmBjA5FPf4hvM+jUIVhgA9gANoANMINGTgAnxomxAWwAG8AGbGwg8ukP8W0GnToEC2wAG8AGsAFm0MgJ4MQ4MTaADWAD2ICNDUQ+/SG+zaBTh2CBDWAD2AA2wAwaOQGcGCfGBrABbAAbsLGByKc/xLcZdOoQLLABbAAbwAaYQSMngBPjxNgANoANYAM2NhD59If4NoNOHYIFNoANYAPYADNo5ARwYpwYG8AGsAFswMYGIp/+EP85wfBtDJ862A02gA3kbAOTmT7jJ3AFCYDk7MToziSGDWADNjZwS/zTHxocQQJAAoANYAPYADZgaAOHMX3GT2AXw0G3yRSpwy8MbAAbwAbSsYFXRGS1+Kc/NJhTRG4lCSD7xwawAWwAG2hoAz9k6kyHwAoi8mjDgSeLTyeLZywZS2wAGzC1gatFZJ50pj80UQKriMhDJAH8AsAGsAFsABsYYQPXi8giTJlpElhZRP46YuBNs0TK88sCG8AGsIF0bIDJP815fwatUksCZlCOfyAAAQi0SCCVBIjJv0Wj6bqrlUTkwUTOBHTNkv4hAIF8CaSQADD5Z2i/KyaSBGQ4dKgMAQj0hEDsCQCTf08MqQsxNAl4IPIzAV1wo08IQAACSiDmBIDJHxsWfUQw5iSAIYQABCDQFYFYE4DruNu/K5PpX7+vF5F7Is1m+0cTiSAAgVwIxJgA6OS/cC4DhJ7NCMSaBDTTjlIQgAAE/BOILQFg8vdvA8m0uLyI3B3ZmYBk4KMIBCAQHYGYEgAm/+jMq32BlxORuyJKAtonRI8QgAAE/kkglgSAyR+LbUwgpiSgsVIUhAAEIOCZQAwJwJUi8hrPetNc4gQ0CbgzgjMBiQ8D6kEAAj0m0PcEgMm/x8bTd9GWjSAJ6DtD5IMABNIl0OcEgMk/XbtrTTNNAv7c4zMBrYGgIwhAAAJDBPqaADD5Dw0U/9oTWEJEbu9pEmCvFTUhAAEIuBHoYwJwBdf83QaV2jMT0CTgDz1MAmaWlD0QgAAE2iHQtwSAyb+dcc+yl8V7mARkORAoDQEI9IJAnxIAJv9emETaQmgScFuPzgSkTRvtIACBPhPoSwKgk/8CfQaFbOkQWExEbu1JEpAOVTSBAARiI9CHBIDJPzarSUBeTQJu6UESkABKVIAABCIl0HUCwOQfqeGkIPaiPUgCUuCIDhCAQJwEukwALue0f5xGk5LUmgTc3OGZgJRYogsEIBAXga4SACb/uOwkaWn13dL6sokunCFpsCgHAQj0mkAXMY/Jv9cmkadwmgT8voMkIE/aaA0BCPSBQNsJAJN/H0YdGSoJLCQi17acBFQKwk4IQAACLRBoMwFg8m9hQOnCjYAmAde0mAS4SUttCEAAAvYE2koAfscNf/aDRM12CbSZBLSrGb1BAAIQmE6gjQSAyX86b75FQmBBEbm6hTMBkeBATAhAIEECoRMAJv8EjSYXlTQJuCpwEpALS/SEAAT6RyBkAqCT//z9UxmJINCcQOgkoLkklIQABCDgl0CoBIDJ3+840VqHBOYTkd8GOhPQoVp0DQEIZE4gRALA5J+5UaWoviYBvwmQBKTICp0gAIE4CPhOAC7jtH8cA4+U5gQ0CbjEcxJgLgU1IAABCPgh4DMBYPL3Mya00mMC83pOAnqsKqJBAAKJE/CVADD5J24oqDedgCYBF3s6EzC9Vb5BAAIQaJeAjwSAyb/dMaO3HhDQJOAiD0lAD1RBBAhAIFMCrgkAk3+mhoPaIpoEuDoQHCEAAQh0RcA1fmkMZINAtgRcHShbcCgOAQh0ToD41fkQIEDMBHCgmEcP2SGQNwHiV97jj/aOBHAgR4BUhwAEOiNA/OoMPR2nQAAHSmEU0QECeRIgfuU57mjtiQAO5AkkzUAAAq0TIH61jpwOUyKAA6U0mugCgbwIEL/yGm+09UwAB/IMlOYgAIHWCBC/WkNNRykSwIFSHFV0gkAeBIhfeYwzWgYi8LLjYkCzBJKLZiEAAQjUEdDY45IAaOxjg0DWBJ50dKLXZk0P5SEAga4ILOoYu57oSnD6hUBfCNzj6ERb90UR5IAABLIisK1j7LorK1ooC4EKAr92dKLbRWS+inbZBQEIQCAUgflF5A7H2PWrUMLRLgRiIXCkoxPpNbjfishSsSiMnBCAQNQElhaRSz3ErcOjpoDwEPBA4GMeHEmTgGdE5PQp8uwrInvxBwNsABvwbAMaW84QkWc9xawPe4ifNAGBqAnoTXwvenIolztyqet2RzP84IcNNLeBF0Rk4agjN8JDwBOBc0kAnB4nIvA2D7ywglUfbOAsT7GTZiAQPQE9FdYHp0QGxgEbwAbasIHNo4/aKAABTwR0QY1bSQJIgrABbCADG9Anl2b1FDtpBgJJEPB1M2Ab2Tt98CsRG8AGbG2Am/+SmLJQwjeBX2aQ/dsGDeox4WAD8dvA+b6DJu1BIBUCy4jIoyQBnAbGBrCBBG3g7yKyXCrBGj0gEILAxiLyUoLOz6+3+H+9MYaMoa0NaEzbKETApE0IpEZgOxF5lSSAX4HYADaQgA1oLNsxtSCNPhAISWB7zgQQ/BMI/ra/GKmXxtkGfeXvziEDJW1DIFUCHxIRfWUmwRAG2AA2EJsNPC4im6QanNELAm0QeIOIXEYSQBKEDWADEdmAvqBs+TYCJH1AIHUCulCQXhK4N6IAENuvFeTlFzY24G4DfxERvYdJYxYbBCDgkcCcU5KAHUTkChIBfg1iA9hAT2xAb/LTmKSxaQ6P8Y6mIACBEQTeKCK7ishPpi4jrG/X4hcMDLABbCC0DTw/Neb8eGoM0ljEBgEIdEzgNSKiiwmpQ/IHA2wAG/BpAxpbNMawQQACEIAABCAAAQhAAAIQgAAEIAABCEAAAhCAAAQgAAEIQAACEIAABCAAAQhAAAIQgAAEIAABCEAAAhCAAAQgAAEIQAACEIAABCAAAQhAAAIQgAAEIAABCEAAAhCAAAQgAAEIQAACEIAABCAAAQhAAAIQgAAEIAABCEAAAhCAAAQgAAEIQAACEIAABCAAAQhAAAIQgAAEIAABCEAAAhCAAAQgAAEIQAACEIAABCAAAQhAAAIQgAAEIAABCEAAAhCAAAQgAAEIQAACEIAABCAAAQhAAAIQgAAEIAABCEAAAhCAAAQgAAEIQAACEIAABCAAAQhAAAIQgAAEIAABCEAAAhCAAAQgAAEIQAACEIAABCAAAQhAAAIQgAAEIAABCEAAAhCAAAQgAAEIQAACEIAABCAAAQhAAAIQgAAEIAABCEAAAhCAAAQgAIGpBP4/7yV2APQTIKMAAAAASUVORK5CYII=;" vertex="1" parent="1">
          <mxGeometry x="830" y="685" width="80" height="80" as="geometry" />
        </mxCell>
      </root>
    </mxGraphModel>
  </diagram>
</mxfile>
